<svg width="88" height="84" viewBox="0 0 88 84" fill="none" xmlns="http://www.w3.org/2000/svg">
<path d="M48.6561 77.3207C60.1157 77.3207 69.4056 76.0341 69.4056 74.4469C69.4056 72.8597 60.1157 71.5731 48.6561 71.5731C37.1964 71.5731 27.9065 72.8597 27.9065 74.4469C27.9065 76.0341 37.1964 77.3207 48.6561 77.3207Z" fill="#4C4C4C"/>
<path d="M62.679 37.5566C57.241 36.9276 51.4258 37.8817 46.1484 38.0424C39.7923 38.2365 33.435 38.4454 27.0767 38.6012C26.8837 38.6061 26.6908 38.6105 26.4978 38.6154C26.2249 38.622 25.9519 38.6286 25.6784 38.6352C25.4871 38.6395 25.0743 38.5694 24.9072 38.6538C26.7275 37.7315 26.9709 35.3786 26.4441 33.4068C23.8723 23.7725 24.3744 29.4505 21.1152 32.1171C19.536 33.4095 18.8426 35.7871 19.9581 37.4957C18.3926 36.8026 16.604 35.4981 15.0413 36.1989C8.81398 38.9905 8.71477 36.9737 8.58266 38.6812C8.45769 40.295 12.6909 42.2421 14.2394 42.712C15.7659 43.1748 17.4043 42.9396 18.9818 42.6906C19.6275 51.1931 23.2447 59.4373 29.0532 65.6768C32.0948 68.9438 35.7542 71.6888 39.9008 73.3393C48.8803 76.9133 59.4878 75.1225 66.9742 69.1319C70.6313 66.2054 72.8611 61.9098 73.8083 57.374C74.6897 53.1545 75.0268 48.407 73.4739 44.2995C72.4988 41.7195 70.8462 39.9671 68.2743 38.9252C66.4836 38.1998 64.6046 37.7787 62.6785 37.556L62.679 37.5566Z" fill="#225FED"/>
<mask id="mask0_6327_74366" style="mask-type:luminance" maskUnits="userSpaceOnUse" x="8" y="28" width="67" height="48">
<path d="M62.679 37.5566C57.241 36.9276 51.4258 37.8817 46.1484 38.0424C39.7923 38.2365 33.435 38.4454 27.0767 38.6012C26.8837 38.6061 26.6908 38.6105 26.4978 38.6154C26.2249 38.622 25.9519 38.6286 25.6784 38.6352C25.4871 38.6395 25.0743 38.5694 24.9072 38.6538C26.7275 37.7315 26.9709 35.3786 26.4441 33.4068C23.8723 23.7725 24.3744 29.4505 21.1152 32.1171C19.536 33.4095 18.8426 35.7871 19.9581 37.4957C18.3926 36.8026 16.604 35.4981 15.0413 36.1989C8.81398 38.9905 8.71477 36.9737 8.58266 38.6812C8.45769 40.295 12.6909 42.2421 14.2394 42.712C15.7659 43.1748 17.4043 42.9396 18.9818 42.6906C19.6275 51.1931 23.2447 59.4373 29.0532 65.6768C32.0948 68.9438 35.7542 71.6888 39.9008 73.3393C48.8803 76.9133 59.4878 75.1225 66.9742 69.1319C70.6313 66.2054 72.8611 61.9098 73.8083 57.374C74.6897 53.1545 75.0268 48.407 73.4739 44.2995C72.4988 41.7195 70.8462 39.9671 68.2743 38.9252C66.4836 38.1998 64.6046 37.7787 62.6785 37.556L62.679 37.5566Z" fill="white"/>
</mask>
<g mask="url(#mask0_6327_74366)">
<path d="M29.7159 66.4111C37.604 69.6753 47.3252 67.908 53.5613 62.0765C56.399 59.4231 58.4901 56.0892 60.8832 53.029C63.2764 49.9687 66.1398 47.0631 69.8123 45.7975C71.8465 45.0967 74.3739 45.0479 75.8665 46.5981C76.9945 47.7699 77.2231 49.5213 77.3316 51.1449C77.5903 55.0156 77.4895 58.957 76.442 62.6923C75.3945 66.4275 73.3335 69.9632 70.2229 72.2799C67.3386 74.4277 63.7675 75.4038 60.2639 76.212C54.4843 77.545 48.4549 78.5419 42.6485 77.3301C36.8421 76.1183 31.2616 72.2717 29.5087 66.6035" fill="#D4E2FF"/>
<path d="M29.6287 66.7286C33.1927 68.1948 37.1398 68.6592 40.9575 68.1833C44.778 67.7073 48.4954 66.3272 51.6313 64.079C55.2194 61.5068 57.6701 57.8389 60.2825 54.3543C62.759 51.0511 65.6657 47.6728 69.6495 46.2049C71.3274 45.5864 73.4295 45.3078 75.0163 46.3228C76.7939 47.459 76.9304 49.8195 77.0389 51.7162C77.3048 56.3628 77.0186 61.1958 75.0843 65.4959C74.2473 67.3569 73.1258 69.0974 71.6952 70.557C70.2645 72.0167 68.3675 73.2241 66.3936 74.0422C64.3595 74.8856 62.2158 75.4268 60.0742 75.9186C57.6641 76.4725 55.2347 76.9654 52.778 77.2593C48.2729 77.7983 43.577 77.6854 39.3164 75.9795C35.8835 74.6048 32.7262 72.224 30.8878 68.969C30.4476 68.1904 30.0935 67.3701 29.8266 66.5163C29.7005 66.1133 29.0652 66.2855 29.1924 66.6913C30.3391 70.358 33.0496 73.2943 36.3143 75.2288C40.0843 77.4633 44.4475 78.2759 48.792 78.2008C51.3183 78.157 53.8343 77.8318 56.3168 77.3761C58.6682 76.944 61.0203 76.4319 63.3219 75.7821C65.4613 75.1778 67.5803 74.3954 69.4654 73.2C71.3504 72.0046 72.775 70.5504 73.9814 68.8051C76.5845 65.0391 77.6002 60.4496 77.7575 55.9318C77.8008 54.6827 77.7827 53.4325 77.7219 52.184C77.6682 51.09 77.6156 49.9791 77.3722 48.9082C77.1491 47.9261 76.727 46.9611 75.9892 46.2559C75.3255 45.622 74.4594 45.2377 73.5588 45.0907C71.5861 44.7683 69.6029 45.3786 67.8643 46.2833C65.9738 47.267 64.3211 48.6675 62.8615 50.2089C59.7365 53.5087 57.4903 57.5242 54.361 60.8191C51.5754 63.7522 48.0383 65.8331 44.1372 66.8931C40.3633 67.9184 36.3203 67.9941 32.53 67.0066C31.602 66.7647 30.6915 66.4593 29.8047 66.0941C29.4133 65.9329 29.2428 66.5695 29.6298 66.7286H29.6287Z" fill="white"/>
<path d="M32.7218 70.8915C40.61 74.1558 50.3312 72.3885 56.5673 66.5569C59.405 63.9035 61.4961 60.5697 63.8892 57.5094C66.2824 54.4491 69.1458 51.5435 72.8183 50.278C74.8524 49.5772 77.3799 49.5284 78.8725 51.0785C80.0005 52.2503 80.2291 54.0017 80.3376 55.6253C80.5963 59.496 80.4955 63.4375 79.448 67.1727C78.4005 70.908 76.3395 74.4436 73.2289 76.7603C70.3446 78.9082 66.7735 79.8842 63.2698 80.6925C57.4903 82.0255 51.4609 83.0223 45.6545 81.8105C39.8481 80.5987 34.2676 76.7521 32.5146 71.084" fill="#D4E2FF"/>
<path d="M32.6347 71.209C36.1987 72.6753 40.1458 73.1397 43.9635 72.6638C47.784 72.1878 51.5014 70.8076 54.6373 68.5595C58.2254 65.9872 60.6761 62.3194 63.2885 58.8347C65.7649 55.5316 68.6717 52.1533 72.6555 50.6854C74.3334 50.0669 76.4354 49.7883 78.0223 50.8033C79.7999 51.9394 79.9364 54.3 80.0449 56.1967C80.3107 60.8433 80.0246 65.6763 78.0903 69.9764C77.2533 71.8374 76.1318 73.5778 74.7012 75.0375C73.2009 76.5679 71.3734 77.7046 69.3996 78.5227C67.3655 79.3661 65.2217 79.9073 63.0802 80.3991C60.67 80.9529 58.2407 81.4459 55.784 81.7398C51.2789 82.2788 46.583 82.1659 42.3224 80.46C38.8894 79.0853 35.7322 76.7044 33.8937 73.4495C33.4536 72.6709 33.0995 71.8506 32.8326 70.9968C32.7065 70.5938 32.0712 70.766 32.1984 71.1717C33.3451 74.8384 36.0556 77.7748 39.3203 79.7093C43.0903 81.9438 47.4535 82.7564 51.798 82.6813C54.3243 82.6374 56.8402 82.3123 59.3227 81.8566C61.6742 81.4245 64.0263 80.9124 66.3279 80.2626C68.4672 79.6583 70.5863 78.8758 72.4714 77.6805C74.3564 76.4851 75.781 75.0309 76.9874 73.2856C79.5905 69.5196 80.6062 64.93 80.7635 60.4123C80.8068 59.1632 80.7887 57.913 80.7279 56.6644C80.6742 55.5705 80.6215 54.4596 80.3782 53.3887C80.1551 52.4066 79.733 51.4415 78.9952 50.7364C78.3314 50.1025 77.4654 49.7181 76.5648 49.5712C74.5921 49.2487 72.6089 49.859 70.8703 50.7638C68.9797 51.7475 67.3271 53.148 65.8674 54.6893C62.7425 57.9892 60.4963 62.0047 57.367 65.2996C54.5814 68.2327 51.0443 70.3136 47.1432 71.3735C43.3693 72.3989 39.3263 72.4746 35.536 71.487C34.608 71.2452 33.6975 70.9398 32.8106 70.5746C32.4193 70.4134 32.2488 71.05 32.6358 71.209H32.6347Z" fill="white"/>
<path d="M34.8842 75.0633C42.7724 78.3275 52.4935 76.5602 58.7296 70.7287C61.5673 68.0753 63.6584 64.7414 66.0516 61.6812C68.4447 58.6209 71.3082 55.7153 74.9807 54.4497C77.0148 53.7489 79.5422 53.7001 81.0348 55.2503C82.1629 56.4221 82.3914 58.1735 82.5 59.7971C82.7587 63.6678 82.6578 67.6092 81.6103 71.3445C80.5629 75.0797 78.5019 78.6154 75.3912 80.9321C72.5069 83.0799 68.9359 84.056 65.4322 84.8642C59.6527 86.1972 53.6232 87.1941 47.8168 85.9823C42.0105 84.7705 36.4299 80.9239 34.677 75.2557" fill="#D4E2FF"/>
<path d="M34.797 75.3807C38.361 76.847 42.3081 77.3114 46.1259 76.8355C49.9463 76.3595 53.6638 74.9794 56.7996 72.7312C60.3877 70.1589 62.8384 66.4911 65.4508 63.0065C67.9273 59.7033 70.834 56.325 74.8179 54.8571C76.4957 54.2386 78.5978 53.96 80.1846 54.975C81.9622 56.1112 82.0987 58.4717 82.2073 60.3684C82.4731 65.015 82.187 69.848 80.2526 74.1481C79.4156 76.0091 78.2941 77.7496 76.8635 79.2092C75.3633 80.7396 73.5358 81.8763 71.562 82.6944C69.5278 83.5378 67.3841 84.079 65.2425 84.5708C62.8324 85.1247 60.4031 85.6176 57.9463 85.9115C53.4412 86.4505 48.7454 86.3376 44.4847 84.6317C41.0518 83.257 37.8945 80.8762 36.0561 77.6212C35.616 76.8426 35.2619 76.0223 34.9949 75.1685C34.8688 74.7655 34.2336 74.9377 34.3607 75.3435C35.5074 79.0102 38.2179 81.9465 41.4826 83.881C45.2527 86.1155 49.6158 86.9281 53.9603 86.853C56.4867 86.8091 59.0026 86.484 61.4851 86.0283C63.8366 85.5962 66.1886 85.0841 68.4902 84.4343C70.6296 83.83 72.7487 83.0476 74.6337 81.8522C76.4283 80.7144 77.9433 79.2026 79.1498 77.4573C81.7529 73.6913 82.7685 69.1018 82.9259 64.584C82.9692 63.3349 82.9511 62.0847 82.8902 60.8362C82.8365 59.7422 82.7839 58.6313 82.5405 57.5604C82.3174 56.5783 81.8954 55.6133 81.1576 54.9081C80.4938 54.2742 79.6277 53.8898 78.7272 53.7429C76.7544 53.4205 74.7713 54.0308 73.0326 54.9355C71.1421 55.9192 69.4895 57.3197 68.0298 58.861C64.9049 62.1609 62.6586 66.1764 59.5294 69.4713C56.7437 72.4044 53.2066 74.4853 49.3056 75.5452C45.5317 76.5706 41.4887 76.6463 37.6983 75.6588C36.7703 75.4169 35.8599 75.1115 34.973 74.7463C34.5816 74.5851 34.4112 75.2217 34.7981 75.3807H34.797Z" fill="white"/>
<g opacity="0.12">
<path d="M10.711 38.781C14.389 40.2314 16.2554 41.0133 20.2058 40.8691C22.1133 51.8511 27.4834 61.6729 38.0519 65.2047C48.6205 68.7366 64.0411 66.4812 74.3087 62.151C72.0537 67.3476 67.451 71.3291 62.2092 73.4731C56.968 75.6171 51.1342 76.0354 45.5093 75.3818C39.556 74.6904 33.6838 72.792 28.7353 69.4099C23.7868 66.0272 19.8079 61.1043 18.0292 55.3791C17.3467 53.183 16.9663 50.8416 15.7303 48.9027C14.3534 46.7428 12.0797 45.3413 10.3109 43.489C8.54208 41.6367 7.26109 38.8051 8.47247 36.5482C8.58045 37.3899 8.50974 37.5489 9.26945 37.9821L10.711 38.7805" fill="black"/>
</g>
<path d="M23.7374 27.6509C24.5377 27.1311 25.6214 27.7403 26.1761 28.5173C27.0602 29.7554 27.2537 31.3368 27.5804 32.8228C27.9071 34.3088 28.4908 35.8886 29.8053 36.654C30.8133 37.2407 32.0477 37.227 33.2135 37.1963C41.9267 36.9677 50.6403 36.739 59.3535 36.5109C61.8814 36.4446 64.4511 36.3826 66.8952 37.0318C69.3393 37.6811 71.6859 39.1517 72.7953 41.4256C65.2777 38.577 56.9488 39.1276 48.9515 39.9479C40.9548 40.7682 32.763 41.8051 24.9691 39.8349C24.4034 39.6918 23.7763 39.4812 23.5237 38.9548C23.2392 38.3626 23.5626 37.6756 23.8312 37.0757C25.0902 34.2633 25.1533 30.9382 24.0016 28.0803" fill="#2065EF"/>
</g>
<path d="M44.533 48.0627C45.4906 50.4693 47.1082 52.6089 49.162 54.1859C49.4893 54.4371 49.8302 54.6767 50.0999 54.9887C50.3696 55.3002 50.5658 55.6999 50.5395 56.1117C50.5071 56.6145 50.1448 57.0493 49.708 57.2994C49.2705 57.5494 48.7646 57.6448 48.2675 57.726C44.6925 58.3089 41.0277 58.3325 37.4457 57.7967" fill="#225FED"/>
<path d="M44.2157 48.1504C44.749 49.479 45.4578 50.7177 46.3397 51.8456C46.7612 52.3852 47.2195 52.8957 47.7128 53.3706C48.239 53.8783 48.8151 54.3104 49.383 54.7677C49.902 55.1861 50.4929 55.8474 50.0588 56.5361C49.6811 57.1343 48.9203 57.2846 48.2735 57.3937C46.5919 57.6783 44.8839 57.8219 43.1792 57.8488C41.2914 57.8784 39.4009 57.7561 37.5334 57.4798C37.1196 57.4184 36.9409 58.0522 37.3586 58.1142C40.9011 58.639 44.4991 58.6373 48.0395 58.0939C48.7975 57.9777 49.5945 57.8565 50.2046 57.3515C50.7599 56.8914 51.0241 56.1588 50.7642 55.4674C50.4831 54.7189 49.8182 54.2923 49.2191 53.8169C48.62 53.3415 48.068 52.8261 47.5549 52.2668C46.4071 51.0149 45.4835 49.553 44.8504 47.976C44.6948 47.5878 44.0584 47.7572 44.2163 48.151L44.2157 48.1504Z" fill="#004BD1"/>
<path d="M54.8013 6.40454H39.0655C36.2492 6.40454 33.9662 8.68836 33.9662 11.5057V27.2473C33.9662 30.0646 36.2492 32.3485 39.0655 32.3485H43.8298L46.343 35.673C46.639 36.0651 47.2277 36.0651 47.5243 35.673L50.0374 32.3485H54.8018C57.6181 32.3485 59.9011 30.0646 59.9011 27.2473V11.5057C59.9011 8.68836 57.6181 6.40454 54.8018 6.40454H54.8013Z" fill="#4C4C4C"/>
<path d="M62.6818 36.6343C63.5703 36.3941 66.084 35.8924 68.2546 37.1618C68.4048 37.2495 68.5983 37.1875 68.6712 37.0296L72.0943 29.609C72.1984 29.3836 71.9951 29.138 71.7545 29.1977L68.5364 30.0011C68.4021 30.0345 68.2629 29.9704 68.2004 29.847L66.9852 27.4266C66.8865 27.2298 66.6152 27.2062 66.4836 27.3828L64.7581 29.6989C64.6611 29.8294 64.4769 29.8568 64.3459 29.7603L61.8491 27.9229C61.6414 27.7699 61.3509 27.9382 61.3799 28.1948L62.3101 36.382C62.3304 36.5624 62.5069 36.6814 62.6818 36.6343Z" fill="#F5C115"/>
<mask id="mask1_6327_74366" style="mask-type:luminance" maskUnits="userSpaceOnUse" x="61" y="27" width="12" height="11">
<path d="M62.6818 36.6343C63.5703 36.3941 66.084 35.8924 68.2546 37.1618C68.4048 37.2495 68.5983 37.1875 68.6712 37.0296L72.0943 29.609C72.1984 29.3836 71.9951 29.138 71.7545 29.1977L68.5364 30.0011C68.4021 30.0345 68.2629 29.9704 68.2004 29.847L66.9852 27.4266C66.8865 27.2298 66.6152 27.2062 66.4836 27.3828L64.7581 29.6989C64.6611 29.8294 64.4769 29.8568 64.3459 29.7603L61.8491 27.9229C61.6414 27.7699 61.3509 27.9382 61.3799 28.1948L62.3101 36.382C62.3304 36.5624 62.5069 36.6814 62.6818 36.6343Z" fill="white"/>
</mask>
<g mask="url(#mask1_6327_74366)">
<g opacity="0.24">
<path d="M61.4233 28.0824C62.0169 30.1091 62.61 32.1357 63.2036 34.1624C63.2639 34.3674 63.339 34.5923 63.5248 34.6975C63.6591 34.7732 63.8225 34.7683 63.977 34.7683C66.0205 34.7628 68.0157 36.0141 68.9009 37.8565C66.5708 37.4195 64.1541 37.4502 61.836 37.9453C61.3586 34.6762 61.1443 31.3681 61.1964 28.0649" fill="#C18A00"/>
</g>
</g>
<path d="M60.3824 45.7613C63.7747 45.7613 66.5247 43.0103 66.5247 39.6167C66.5247 36.2231 63.7747 33.472 60.3824 33.472C56.99 33.472 54.24 36.2231 54.24 39.6167C54.24 43.0103 56.99 45.7613 60.3824 45.7613Z" fill="white"/>
<mask id="mask2_6327_74366" style="mask-type:luminance" maskUnits="userSpaceOnUse" x="54" y="33" width="13" height="13">
<path d="M60.3824 45.7613C63.7747 45.7613 66.5247 43.0103 66.5247 39.6167C66.5247 36.2231 63.7747 33.472 60.3824 33.472C56.99 33.472 54.24 36.2231 54.24 39.6167C54.24 43.0103 56.99 45.7613 60.3824 45.7613Z" fill="white"/>
</mask>
<g mask="url(#mask2_6327_74366)">
<path d="M60.9475 33.5236C59.325 33.7094 57.8138 34.6937 56.9873 36.1024C56.1607 37.511 56.0395 39.3112 56.6688 40.8186C57.298 42.326 58.6634 43.5049 60.2459 43.9074C61.4036 44.2018 62.6199 44.0965 63.8093 43.9896C64.7077 43.9085 65.6582 43.8081 66.3773 43.2631C64.962 44.8834 63.0255 46.0415 60.9289 46.5213C58.8323 47.0016 56.5849 46.8015 54.6062 45.9581C53.5532 45.5096 52.5337 44.8384 52.0075 43.8218C51.5394 42.9176 51.5174 41.8429 51.6753 40.8367C52.0108 38.6954 53.1361 36.6869 54.7871 35.2837C56.438 33.88 58.6004 33.0926 60.7672 33.1068" fill="#F2F2F2"/>
<path d="M59.49 40.7506C61.4298 40.7506 63.0024 39.1775 63.0024 37.2369C63.0024 35.2963 61.4298 33.7231 59.49 33.7231C57.5501 33.7231 55.9775 35.2963 55.9775 37.2369C55.9775 39.1775 57.5501 40.7506 59.49 40.7506Z" fill="#565656"/>
<path d="M59.894 34.9015C60.1637 34.9015 60.3824 34.6828 60.3824 34.4129C60.3824 34.1431 60.1637 33.9244 59.894 33.9244C59.6243 33.9244 59.4056 34.1431 59.4056 34.4129C59.4056 34.6828 59.6243 34.9015 59.894 34.9015Z" fill="#F4F4F4"/>
</g>
<path d="M55.7226 21.2491C55.5955 21.7179 55.4343 22.1686 55.2436 22.5991C54.6406 23.9562 53.7367 25.1137 52.635 26.0136C52.0792 26.4676 51.473 26.8558 50.8295 27.1706C48.8737 28.1274 46.5765 28.4049 44.3111 27.7896C39.3537 26.4429 36.4273 21.3313 37.7729 16.3733C38.5036 13.6815 40.3431 11.5885 42.6656 10.4518C42.9446 10.3153 43.2307 10.1925 43.5223 10.0844C45.2758 9.43356 47.2419 9.30525 49.1851 9.83275C49.8039 10.0011 50.3909 10.2275 50.9418 10.5056C54.8056 12.4532 56.9006 16.9096 55.7226 21.2485V21.2491Z" fill="#FFD93B"/>
<path d="M46.7102 25.8063C50.6187 25.8063 53.7872 22.6367 53.7872 18.7267C53.7872 14.8168 50.6187 11.6472 46.7102 11.6472C42.8018 11.6472 39.6333 14.8168 39.6333 18.7267C39.6333 22.6367 42.8018 25.8063 46.7102 25.8063Z" fill="#F5C115"/>
<path opacity="0.5" d="M45.9324 21.5912C43.2021 20.8493 40.4001 19.6912 40.5864 19.0053C40.7728 18.3193 43.7749 18.7377 46.5057 19.4796C49.2365 20.2215 52.038 21.3796 51.8517 22.0655C51.6653 22.7515 48.6632 22.3331 45.9324 21.5912ZM46.458 19.6556C42.9451 18.7015 40.8605 18.6938 40.7629 19.053C40.6654 19.4121 42.4676 20.46 45.9806 21.4147C49.4936 22.3688 51.5782 22.3764 51.6757 22.0173C51.7733 21.6581 49.971 20.6103 46.458 19.6556Z" fill="white"/>
<path opacity="0.5" d="M52.9326 17.3449C52.7238 17.7019 52.3664 18.191 51.7887 18.5968C50.8086 19.2833 49.6575 19.2334 48.5744 19.6414C48.1255 19.8108 47.6936 20.085 47.4063 20.4759C47.2737 20.6574 47.1876 20.8675 47.1038 21.072C47.0835 21.1213 46.9289 21.5309 46.9541 21.628C46.862 21.5403 46.5545 21.2606 46.4575 21.0605C46.3501 20.8384 46.3035 20.6372 46.2821 20.5023C46.2054 20.6097 46.0749 20.7644 45.8716 20.8982C45.5756 21.0923 45.2851 21.135 45.1382 21.1466C45.2144 21.1411 45.3004 20.6382 45.3086 20.5807C45.341 20.3608 45.3722 20.1371 45.3487 19.9134C45.2993 19.4308 45.0642 18.9757 44.7638 18.6028C44.0348 17.7025 43.0169 17.1624 42.5192 16.0745C42.2248 15.4335 42.1645 14.8303 42.1635 14.4168C42.6409 14.9559 43.1013 15.2892 43.4329 15.4943C43.8884 15.774 44.3998 15.99 45.4216 16.4216C45.9713 16.654 46.3874 16.8158 46.7141 17.2578C46.8779 17.4809 46.9646 17.7003 47.0122 17.8538V17.8565C47.1295 17.748 47.3148 17.6027 47.5702 17.493C48.0745 17.2775 48.5163 17.3482 49.1077 17.4267C50.2073 17.5709 50.7571 17.6432 51.2921 17.6323C51.6818 17.6241 52.2458 17.5687 52.9315 17.3449H52.9321H52.9326Z" fill="white"/>
<path d="M46.4779 19.9062C46.6083 19.4248 46.3244 18.9291 45.8431 18.798C46.3244 18.9285 46.8199 18.6445 46.9509 18.1631C46.8205 18.6445 47.1044 19.1402 47.5857 19.2712C47.1044 19.1407 46.6089 19.4248 46.4779 19.9062Z" fill="#F5C115"/>
<path opacity="0.4" d="M46.9646 21.6461C46.9597 21.6433 46.9559 21.6357 46.9542 21.6274C46.9838 21.656 46.9915 21.6642 46.9646 21.6461Z" fill="white"/>
<path opacity="0.25" d="M52.635 26.0136C52.0792 26.4676 51.473 26.8558 50.8295 27.1705C48.8737 28.1274 46.5765 28.4049 44.3111 27.7896C39.3537 26.4429 36.4273 21.3313 37.7729 16.3733C38.5036 13.6815 40.3431 11.5885 42.6656 10.4518C42.0078 11.3818 41.4986 12.4406 41.1829 13.6036C39.7407 18.9159 42.8771 24.3916 48.1869 25.8343C49.6877 26.2417 51.2022 26.2839 52.6345 26.0136H52.635Z" fill="#C18A00"/>
</svg>
