<svg width="20" height="20" viewBox="0 0 20 20" fill="none" xmlns="http://www.w3.org/2000/svg">
<g clip-path="url(#clip0_3460_2972)">
<path d="M6.26703 1.44238C6.7732 1.22155 7.36256 1.45282 7.58344 1.95898C7.80385 2.46502 7.5728 3.05459 7.06683 3.27539C5.96895 3.75449 5.00468 4.49498 4.25922 5.43262C3.51387 6.37019 3.00974 7.47679 2.79047 8.6543C2.57133 9.83171 2.64347 11.0456 3.0014 12.1885C3.35942 13.3313 3.99258 14.369 4.84418 15.2109C5.69597 16.053 6.7411 16.6746 7.88812 17.0195C9.03506 17.3643 10.2494 17.4231 11.4243 17.1904C12.599 16.9577 13.6994 16.4404 14.6284 15.6846C15.5573 14.9285 16.2878 13.9557 16.7543 12.8525C16.9695 12.3439 17.5562 12.1062 18.0649 12.3213C18.5731 12.5366 18.8111 13.1234 18.5961 13.6318C18.0024 15.0358 17.0733 16.2731 15.8911 17.2354C14.7087 18.1976 13.3083 18.8562 11.8129 19.1523C10.3176 19.4485 8.77179 19.3735 7.31195 18.9346C5.85222 18.4956 4.52196 17.7054 3.43793 16.6338C2.35394 15.5621 1.54887 14.2407 1.0932 12.7861C0.637621 11.3314 0.545667 9.78672 0.824646 8.28809C1.1037 6.78953 1.74525 5.38171 2.69379 4.18848C3.64257 2.99512 4.86972 2.05215 6.26703 1.44238ZM10.0004 0.666992C11.2259 0.667054 12.4395 0.908945 13.5717 1.37793C14.704 1.84697 15.7334 2.5338 16.6 3.40039C17.4666 4.26702 18.1545 5.29645 18.6235 6.42871C19.0923 7.56081 19.3334 8.77466 19.3334 10C19.3332 10.5521 18.8855 10.9999 18.3334 11H10.0004C9.44826 11 9.00063 10.5521 9.00043 10V1.66699C9.00043 1.40183 9.10593 1.14749 9.2934 0.959961C9.48092 0.772523 9.73528 0.666992 10.0004 0.666992ZM11.0004 9H17.2641C17.1789 8.38113 17.0149 7.77404 16.7748 7.19434C16.4064 6.30473 15.8668 5.49536 15.186 4.81445C14.5051 4.13356 13.6957 3.59412 12.8061 3.22559C12.2263 2.98546 11.6194 2.82158 11.0004 2.73633V9Z" fill="white"/>
</g>
<defs>
<clipPath id="clip0_3460_2972">
<rect width="20" height="20" fill="white"/>
</clipPath>
</defs>
</svg>
