<svg width="74" height="80" viewBox="0 0 74 80" fill="none" xmlns="http://www.w3.org/2000/svg">
<path d="M40.068 70.396C51.3611 70.396 60.5161 69.1186 60.5161 67.5427C60.5161 65.9669 51.3611 64.6895 40.068 64.6895C28.7748 64.6895 19.6199 65.9669 19.6199 67.5427C19.6199 69.1186 28.7748 70.396 40.068 70.396Z" fill="#4C4C4C"/>
<path d="M53.8872 30.9237C48.5281 30.2995 42.7974 31.2462 37.5971 31.4064C31.3329 31.5989 25.068 31.8062 18.8023 31.9609C18.612 31.9656 18.4224 31.9702 18.232 31.9748C17.9626 31.981 17.694 31.988 17.4245 31.9942C17.2365 31.9988 16.8297 31.9284 16.6646 32.0127C18.4585 31.097 18.6979 28.7619 18.1791 26.8043C15.6445 17.2405 16.1396 22.8767 12.9273 25.5242C11.3707 26.8074 10.6876 29.1672 11.7875 30.8634C10.2447 30.175 8.48233 28.8802 6.94182 29.5756C0.805087 32.3469 0.706837 30.3444 0.577118 32.0398C0.454306 33.6416 4.62606 35.5745 6.15122 36.0409C7.65566 36.5003 9.26986 36.2667 10.825 36.0192C11.4613 44.46 15.0259 52.6431 20.7497 58.8369C23.747 62.08 27.3531 64.8049 31.4396 66.4431C40.2889 69.9909 50.7425 68.2135 58.1196 62.2664C61.7241 59.3613 63.9209 55.0973 64.8543 50.5942C65.7232 46.406 66.0548 41.6933 64.525 37.6157C63.564 35.0547 61.9352 33.3152 59.4007 32.2811C57.6361 31.561 55.7839 31.1426 53.8865 30.9222L53.8872 30.9237Z" fill="#225FED"/>
<mask id="mask0_6327_85566" style="mask-type:luminance" maskUnits="userSpaceOnUse" x="0" y="21" width="66" height="48">
<path d="M53.8872 30.9237C48.5281 30.2995 42.7974 31.2462 37.5971 31.4064C31.3329 31.5989 25.068 31.8062 18.8023 31.9609C18.612 31.9656 18.4224 31.9702 18.232 31.9748C17.9626 31.981 17.694 31.988 17.4245 31.9942C17.2365 31.9988 16.8297 31.9284 16.6646 32.0127C18.4585 31.097 18.6979 28.7619 18.1791 26.8043C15.6445 17.2405 16.1396 22.8767 12.9273 25.5242C11.3707 26.8074 10.6876 29.1672 11.7875 30.8634C10.2447 30.175 8.48233 28.8802 6.94182 29.5756C0.805087 32.3469 0.706837 30.3444 0.577118 32.0398C0.454306 33.6416 4.62606 35.5745 6.15122 36.0409C7.65566 36.5003 9.26986 36.2667 10.825 36.0192C11.4613 44.46 15.0259 52.6431 20.7497 58.8369C23.747 62.08 27.3531 64.8049 31.4396 66.4431C40.2889 69.9909 50.7425 68.2135 58.1196 62.2664C61.7241 59.3613 63.9209 55.0973 64.8543 50.5942C65.7232 46.406 66.0548 41.6933 64.525 37.6157C63.564 35.0547 61.9352 33.3152 59.4007 32.2811C57.6361 31.561 55.7839 31.1426 53.8865 30.9222L53.8872 30.9237Z" fill="white"/>
</mask>
<g mask="url(#mask0_6327_85566)">
<path d="M21.4029 59.5664C29.1768 62.8064 38.7561 61.0522 44.9021 55.2636C47.6983 52.6292 49.7593 49.3204 52.118 46.2823C54.4767 43.2441 57.2983 40.3599 60.9174 39.1038C62.9223 38.4077 65.4131 38.3598 66.8838 39.8989C67.996 41.0622 68.2209 42.8009 68.3276 44.4121C68.5824 48.2546 68.4834 52.1667 67.451 55.8747C66.4186 59.5826 64.3876 63.0925 61.3219 65.392C58.4796 67.5244 54.9603 68.4928 51.5078 69.2949C45.8124 70.6183 39.8706 71.6075 34.1484 70.4048C28.4269 69.2021 22.9273 65.3835 21.1995 59.7566" fill="#D4E2FF"/>
<path d="M21.2808 60.0144C28.321 62.9249 36.8072 61.8529 42.9977 57.4218C46.5009 54.9142 48.9172 51.3525 51.451 47.9268C53.875 44.6497 56.6896 41.2488 60.5774 39.7236C62.1931 39.0893 64.2203 38.7305 65.8076 39.6416C67.57 40.6525 67.7734 42.8739 67.8862 44.7054C68.1702 49.3198 67.9376 54.1361 66.0671 58.4265C65.2657 60.2635 64.1927 61.9898 62.8133 63.4431C61.3672 64.9676 59.6087 66.1054 57.6913 66.9337C55.6703 67.807 53.5226 68.3522 51.3857 68.8488C49.0231 69.398 46.6414 69.8899 44.2327 70.1853C39.8215 70.7268 35.2245 70.6394 31.0405 68.988C27.6478 67.6492 24.5161 65.2971 22.6955 62.071C22.2587 61.2968 21.9087 60.4839 21.6439 59.6346C21.4666 59.0669 20.577 59.309 20.7558 59.8814C21.8972 63.5406 24.5637 66.4735 27.7967 68.4141C31.5386 70.661 35.8777 71.4816 40.1961 71.4074C42.6976 71.3641 45.1899 71.0392 47.6484 70.5844C49.9726 70.1544 52.2968 69.6447 54.5711 68.9973C56.7035 68.3901 58.8189 67.6004 60.6941 66.3923C62.4625 65.2538 63.9532 63.7479 65.1444 62.0115C67.7212 58.2556 68.7259 53.6759 68.8833 49.1721C68.927 47.9268 68.9086 46.6808 68.848 45.4363C68.7958 44.3597 68.742 43.2676 68.511 42.2118C68.2992 41.2426 67.9008 40.2944 67.21 39.572C66.5729 38.9053 65.7124 38.4799 64.8167 38.3012C62.8932 37.9191 60.9374 38.4698 59.2134 39.3222C57.3352 40.2503 55.6841 41.6085 54.2311 43.1121C51.1071 46.3444 48.8911 50.3238 45.8577 53.6334C43.1213 56.6182 39.6557 58.7583 35.7718 59.8582C32.033 60.917 28.0178 61.0153 24.2513 60.0353C23.3226 59.794 22.413 59.4861 21.5264 59.1195C20.9784 58.8929 20.7397 59.7909 21.2816 60.0144H21.2808Z" fill="white"/>
<path d="M24.3658 64.0146C32.1397 67.2546 41.719 65.5004 47.865 59.7119C50.6612 57.0775 52.7221 53.7686 55.0809 50.7305C57.4396 47.6924 60.2612 44.8082 63.8803 43.5521C65.8852 42.856 68.376 42.808 69.8467 44.3472C70.9589 45.5105 71.1838 47.2492 71.2905 48.8603C71.5453 52.7028 71.4463 56.615 70.4139 60.3229C69.3815 64.0308 67.3505 67.5408 64.2848 69.8403C61.4425 71.9727 57.9232 72.941 54.4707 73.7431C48.7753 75.0665 42.8335 76.0558 37.1113 74.853C31.3898 73.6503 25.8902 69.8318 24.1624 64.2049" fill="#D4E2FF"/>
<path d="M24.243 64.4617C31.2831 67.3722 39.7694 66.3002 45.9599 61.869C49.4631 59.3615 51.8794 55.7997 54.4131 52.3741C56.8371 49.097 59.6518 45.6961 63.5396 44.1708C65.1553 43.5366 67.1824 43.1777 68.7698 44.0889C70.5321 45.0998 70.7355 47.3211 70.8484 49.1527C71.1324 53.7671 70.8998 58.5834 69.0292 62.8738C68.2279 64.7107 67.1548 66.4371 65.7755 67.8904C64.3294 69.4149 62.5709 70.5526 60.6535 71.381C58.6325 72.2542 56.4848 72.7995 54.3479 73.2961C51.9853 73.8452 49.6035 74.3371 47.1949 74.6326C42.7837 75.174 38.1867 75.0866 34.0026 73.4353C30.61 72.0964 27.4783 69.7444 25.6576 66.5183C25.2209 65.7441 24.8709 64.9312 24.606 64.0819C24.4287 63.5142 23.5391 63.7563 23.718 64.3286C24.8593 67.9878 27.5259 70.9208 30.7589 72.8614C34.5008 75.1083 38.8399 75.9289 43.1582 75.8547C45.6597 75.8113 48.1521 75.4865 50.6106 75.0317C52.9348 74.6017 55.259 74.092 57.5333 73.4446C59.6656 72.8374 61.781 72.0477 63.6562 70.8396C65.4247 69.7011 66.9153 68.1951 68.1066 66.4587C70.6833 62.7028 71.6881 58.1232 71.8454 53.6194C71.8892 52.3741 71.8708 51.1281 71.8101 49.8836C71.7579 48.8069 71.7042 47.7148 71.4732 46.6591C71.2613 45.6899 70.8629 44.7417 70.1721 44.0192C69.535 43.3525 68.6746 42.9271 67.7788 42.7485C65.8553 42.3664 63.8995 42.9171 62.1756 43.7694C60.2973 44.6976 58.6463 46.0558 57.1933 47.5594C54.0693 50.7916 51.8533 54.771 48.8198 58.0807C46.0835 61.0654 42.6179 63.2056 38.734 64.3054C34.9951 65.3643 30.98 65.4625 27.2135 64.4825C26.2847 64.2412 25.3751 63.9334 24.4886 63.5668C23.9406 63.3402 23.7018 64.2381 24.2437 64.4617H24.243Z" fill="white"/>
<path d="M26.4966 68.1557C34.2706 71.3957 43.8499 69.6415 49.9958 63.853C52.7921 61.2186 54.853 57.9098 57.2118 54.8716C59.5705 51.8335 62.3921 48.9493 66.0112 47.6932C68.0161 46.9971 70.5069 46.9491 71.9775 48.4883C73.0897 49.6516 73.3146 51.3903 73.4213 53.0014C73.6762 56.8439 73.5771 60.7561 72.5448 64.464C71.5124 68.172 69.4814 71.6819 66.4157 73.9814C63.5734 76.1138 60.0541 77.0822 56.6015 77.8842C50.9062 79.2076 44.9644 80.1969 39.2421 78.9941C33.5207 77.7914 28.021 73.9729 26.2932 68.346" fill="#D4E2FF"/>
<path d="M26.3746 68.6028C33.4147 71.5133 41.901 70.4413 48.0915 66.0102C51.5947 63.5026 54.011 59.9409 56.5447 56.5152C58.9687 53.2381 61.7834 49.8372 65.6711 48.312C67.2869 47.6777 69.314 47.3188 70.9014 48.23C72.6637 49.2409 72.8671 51.4622 72.98 53.2938C73.264 57.9082 73.0314 62.7245 71.1608 67.0149C70.3595 68.8518 69.2864 70.5782 67.9071 72.0315C66.461 73.556 64.7025 74.6937 62.7851 75.5221C60.7641 76.3953 58.6164 76.9406 56.4795 77.4372C54.1169 77.9863 51.7351 78.4783 49.3265 78.7737C44.9153 79.3151 40.3183 79.2277 36.1342 77.5764C32.7416 76.2376 29.6099 73.8855 27.7892 70.6594C27.3525 69.8852 27.0024 69.0723 26.7376 68.223C26.5603 67.6553 25.6707 67.8974 25.8496 68.4697C26.9909 72.129 29.6575 75.0619 32.8905 77.0025C36.6324 79.2494 40.9715 80.07 45.2898 79.9958C47.7913 79.9525 50.2836 79.6276 52.7422 79.1728C55.0664 78.7428 57.3906 78.2331 59.6649 77.5857C61.7972 76.9785 63.9126 76.1888 65.7878 74.9807C67.5563 73.8422 69.0469 72.3363 70.2382 70.5998C72.8149 66.8439 73.8197 62.2643 73.977 57.7605C74.0208 56.5152 74.0024 55.2692 73.9417 54.0247C73.8895 52.948 73.8358 51.8559 73.6048 50.8002C73.3929 49.831 72.9945 48.8828 72.3037 48.1604C71.6666 47.4936 70.8062 47.0682 69.9104 46.8896C67.9869 46.5075 66.0311 47.0582 64.3072 47.9105C62.4289 48.8387 60.7779 50.1969 59.3249 51.7005C56.2009 54.9327 53.9849 58.9122 50.9514 62.2218C48.215 65.2065 44.7495 67.3467 40.8655 68.4465C37.1267 69.5054 33.1115 69.6036 29.3451 68.6237C28.4163 68.3823 27.5067 68.0745 26.6202 67.7079C26.0721 67.4813 25.8334 68.3793 26.3753 68.6028H26.3746Z" fill="white"/>
<g opacity="0.12">
<path d="M2.67417 32.1398C6.29864 33.5792 8.13774 34.3557 12.0309 34.2126C13.9106 45.1137 19.203 54.8639 29.6175 58.37C40.0326 61.876 55.229 59.6369 65.3471 55.3388C63.125 60.497 58.5887 64.4493 53.4237 66.5779C48.2587 68.7064 42.5096 69.121 36.9662 68.4728C31.0996 67.7868 25.3129 65.9019 20.4358 62.5443C15.5594 59.1867 11.6379 54.3 9.88474 48.6167C9.21234 46.4371 8.837 44.1129 7.61887 42.1877C6.2618 40.0437 4.02126 38.6523 2.27811 36.8138C0.534951 34.9753 -0.727704 32.1645 0.465869 29.9238C0.572562 30.7592 0.502713 30.9169 1.25109 31.347L2.67187 32.139" fill="black"/>
</g>
<path d="M15.511 21.0908C16.3001 20.5749 17.3678 21.1798 17.9143 21.9509C18.7855 23.1799 18.9766 24.7493 19.2982 26.2242C19.6198 27.6992 20.1955 29.2678 21.4912 30.0273C22.4844 30.6097 23.701 30.5958 24.85 30.5656C33.4369 30.339 42.0237 30.1116 50.6105 29.885C53.102 29.8193 55.6335 29.7582 58.0429 30.4024C60.4515 31.0467 62.7642 32.507 63.8573 34.764C56.4487 31.9362 48.241 32.483 40.3604 33.2967C32.4797 34.1112 24.4072 35.1406 16.7268 33.1846C16.1696 33.0422 15.5517 32.8334 15.3022 32.3113C15.0221 31.7235 15.3406 31.0413 15.6054 30.4458C16.8458 27.6544 16.908 24.3533 15.7735 21.5162" fill="#2065EF"/>
</g>
<path d="M58.1358 53.7444C57.9739 54.3454 57.7697 54.9223 57.5264 55.4738C56.7596 57.2125 55.6097 58.6953 54.2082 59.8477C53.5012 60.4293 52.7298 60.9267 51.9116 61.3304C49.4247 62.5564 46.5025 62.9114 43.621 62.1232C37.3162 60.3984 33.5943 53.8496 35.3059 47.498C36.2355 44.0499 38.575 41.3675 41.5286 39.9119C41.8833 39.7371 42.2471 39.5801 42.6186 39.4416C44.8492 38.6079 47.3499 38.4431 49.8207 39.1199C50.6082 39.3357 51.3543 39.6257 52.0551 39.9815C56.9691 42.4767 59.6333 48.1856 58.1358 53.7444Z" fill="#FFD93B"/>
<path d="M46.6736 59.5834C51.6445 59.5834 55.6742 55.5228 55.6742 50.5139C55.6742 45.5049 51.6445 41.4443 46.6736 41.4443C41.7028 41.4443 37.6731 45.5049 37.6731 50.5139C37.6731 55.5228 41.7028 59.5834 46.6736 59.5834Z" fill="#F5C115"/>
<path opacity="0.5" d="M45.6851 54.1832C42.2126 53.2334 38.6488 51.7491 38.886 50.8705C39.1232 49.9919 42.9411 50.5279 46.4143 51.4777C49.8876 52.4282 53.4506 53.9117 53.2135 54.7904C52.9763 55.669 49.1584 55.133 45.6851 54.1832ZM46.3529 51.7035C41.8849 50.4807 39.2337 50.4714 39.1101 50.9316C38.9865 51.3918 41.2777 52.7345 45.7458 53.9566C50.2138 55.1794 52.865 55.1887 52.9886 54.7285C53.1121 54.2683 50.8209 52.9256 46.3529 51.7035Z" fill="white"/>
<path opacity="0.5" d="M54.5881 48.7434C54.3225 49.2006 53.8681 49.8278 53.1335 50.3476C51.887 51.227 50.4232 51.1628 49.0454 51.6857C48.4744 51.903 47.9248 52.2542 47.5602 52.7546C47.3921 52.9874 47.2816 53.2558 47.1756 53.5188C47.1495 53.5822 46.953 54.1066 46.9853 54.2311C46.8686 54.1182 46.4771 53.7608 46.3536 53.5041C46.2169 53.2194 46.1578 52.9619 46.1302 52.7886C46.0327 52.9263 45.8669 53.1251 45.6083 53.296C45.2321 53.5443 44.8622 53.6 44.6757 53.6147C44.7724 53.6069 44.8821 52.9634 44.8929 52.8899C44.9343 52.6084 44.9742 52.3214 44.9435 52.0345C44.8806 51.4157 44.5812 50.8333 44.1998 50.3553C43.2725 49.2021 41.9784 48.5099 41.3452 47.1161C40.9706 46.2947 40.8946 45.522 40.8931 44.9922C41.5002 45.6829 42.0859 46.1098 42.508 46.3728C43.0868 46.7317 43.7377 47.0078 45.0372 47.5608C45.7364 47.8586 46.2653 48.0659 46.6813 48.6321C46.8901 48.9182 46.9999 49.199 47.0605 49.3955V49.3993C47.2094 49.2601 47.4458 49.0737 47.7697 48.9337C48.4114 48.6576 48.9725 48.7481 49.7247 48.8486C51.1233 49.0335 51.8225 49.1263 52.5033 49.1124C52.9992 49.1016 53.7169 49.0312 54.5881 48.7442H54.5888L54.5881 48.7434Z" fill="white"/>
<path d="M46.378 52.0242C46.5438 51.4077 46.183 50.772 45.5713 50.6049C46.183 50.772 46.814 50.4084 46.9798 49.792C46.814 50.4084 47.1747 51.0442 47.7865 51.2113C47.1747 51.0442 46.5438 51.4077 46.378 52.0242Z" fill="#F5C115"/>
<path opacity="0.4" d="M46.9971 54.2527C46.9912 54.249 46.9861 54.2401 46.9846 54.2305C47.0205 54.2653 47.03 54.2756 46.9971 54.2527Z" fill="white"/>
<path opacity="0.25" d="M54.2089 59.8479C53.502 60.4296 52.7305 60.9269 51.9123 61.3306C49.4254 62.5565 46.5032 62.9116 43.6218 62.1234C37.3169 60.3986 33.595 53.8498 35.3067 47.4982C36.2362 44.0501 38.5758 41.3678 41.5294 39.9121C40.6927 41.1032 40.0449 42.4599 39.6435 43.9495C37.8097 50.7552 41.798 57.7696 48.5519 59.6182C50.4608 60.1403 52.3867 60.1944 54.2089 59.8479Z" fill="#C18A00"/>
<path d="M36.0051 41.3525C36.9485 43.7417 38.5427 45.8656 40.5668 47.4311C40.8892 47.6802 41.2254 47.9184 41.491 48.2278C41.7573 48.5372 41.95 48.9339 41.9246 49.3423C41.8932 49.8412 41.5355 50.2736 41.1049 50.5211C40.6743 50.7694 40.1753 50.8645 39.6856 50.9449C36.1632 51.5235 32.5511 51.5467 29.021 51.0145" fill="#225FED"/>
<path d="M35.5608 41.4756C36.6001 44.0736 38.2941 46.2563 40.4963 47.9556C40.9845 48.3323 41.7436 48.9472 41.3598 49.6472C41.0182 50.2706 40.1916 50.3928 39.5629 50.4972C37.9411 50.7663 36.2961 50.9033 34.6535 50.9288C32.8114 50.9574 30.9661 50.8375 29.1439 50.5668C28.5644 50.4809 28.3142 51.3751 28.8991 51.4617C32.4238 51.9853 35.993 51.9845 39.5146 51.4385C40.2883 51.3186 41.1027 51.184 41.7144 50.6488C42.241 50.1878 42.5127 49.4878 42.3208 48.7971C42.1044 48.0159 41.4565 47.5387 40.8509 47.0685C40.2522 46.6036 39.6927 46.0877 39.1761 45.5316C38.0163 44.2825 37.0844 42.8152 36.4497 41.2281C36.2309 40.6813 35.3398 40.9203 35.5616 41.4748L35.5608 41.4756Z" fill="#004BD1"/>
<path d="M46.9937 0H31.4865C28.7109 0 26.4612 2.267 26.4612 5.06381V20.6899C26.4612 23.4867 28.7109 25.7537 31.4865 25.7537H36.1817L38.6579 29.0533C38.9496 29.4423 39.5298 29.4423 39.8215 29.0533L42.2977 25.7537H46.9929C49.7685 25.7537 52.0182 23.4867 52.0182 20.6899V5.06381C52.0182 2.267 49.7685 0 46.9929 0H46.9937Z" fill="#D84C4C"/>
<path d="M40.4518 35.5485C39.9406 35.0048 39.9406 34.1231 40.4518 33.5793L41.3782 32.5947L42.3047 33.5793C42.8159 34.1231 42.8159 35.0048 42.3047 35.5485C41.7935 36.0923 40.9637 36.0923 40.4525 35.5485H40.4518Z" fill="#F7F7F7"/>
<path d="M34.2099 38.782C33.2028 37.7116 33.2028 35.9767 34.2099 34.9063L36.0329 32.9688L37.8558 34.9063C38.8629 35.9767 38.8629 37.7116 37.8558 38.782C36.8488 39.8525 35.2169 39.8525 34.2099 38.782Z" fill="#F7F7F7"/>
<mask id="mask1_6327_85566" style="mask-type:luminance" maskUnits="userSpaceOnUse" x="33" y="32" width="6" height="8">
<path d="M34.2099 38.782C33.2028 37.7116 33.2028 35.9767 34.2099 34.9063L36.0329 32.9688L37.8558 34.9063C38.8629 35.9767 38.8629 37.7116 37.8558 38.782C36.8488 39.8525 35.2169 39.8525 34.2099 38.782Z" fill="white"/>
</mask>
<g mask="url(#mask1_6327_85566)">
<path d="M34.1161 34.689C33.5896 35.4021 33.5182 36.4115 33.8874 37.2182C34.2566 38.0249 35.0342 38.615 35.8946 38.8076C36.7551 39.0002 37.6823 38.8107 38.4345 38.3459C38.0216 39.5401 36.7934 40.3963 35.5392 40.3646C34.2842 40.3329 33.1006 39.4148 32.7483 38.2012C32.396 36.9869 32.9026 35.5715 33.9427 34.8638" fill="#DBDBDB"/>
</g>
<path d="M53.8904 30.0084C54.7662 29.7694 57.2431 29.2721 59.3823 30.532C59.5305 30.6194 59.7208 30.5575 59.793 30.4005L63.1664 23.0349C63.2693 22.8114 63.069 22.567 62.831 22.6273L59.6594 23.4247C59.5274 23.458 59.39 23.3946 59.3286 23.2716L58.1312 20.8693C58.0337 20.6743 57.7666 20.6504 57.6369 20.8259L55.9367 23.1254C55.8407 23.2546 55.6596 23.2824 55.5307 23.1865L53.0706 21.3627C52.8656 21.2111 52.5793 21.3774 52.6085 21.6327L53.525 29.7593C53.5449 29.938 53.7184 30.0563 53.8911 30.0092L53.8904 30.0084Z" fill="#F5C115"/>
<mask id="mask2_6327_85566" style="mask-type:luminance" maskUnits="userSpaceOnUse" x="52" y="20" width="12" height="11">
<path d="M53.8904 30.0084C54.7662 29.7694 57.2431 29.2721 59.3823 30.532C59.5305 30.6194 59.7208 30.5575 59.793 30.4005L63.1664 23.0349C63.2693 22.8114 63.069 22.567 62.831 22.6273L59.6594 23.4247C59.5274 23.458 59.39 23.3946 59.3286 23.2716L58.1312 20.8693C58.0337 20.6743 57.7666 20.6504 57.6369 20.8259L55.9367 23.1254C55.8407 23.2546 55.6596 23.2824 55.5307 23.1865L53.0706 21.3627C52.8656 21.2111 52.5793 21.3774 52.6085 21.6327L53.525 29.7593C53.5449 29.938 53.7184 30.0563 53.8911 30.0092L53.8904 30.0084Z" fill="white"/>
</mask>
<g mask="url(#mask2_6327_85566)">
<g opacity="0.24">
<path d="M52.6499 21.5188C53.2348 23.5305 53.8196 25.5423 54.4045 27.554C54.4636 27.7575 54.5381 27.981 54.7215 28.0854C54.8543 28.1604 55.0148 28.1558 55.1667 28.155C57.1808 28.1496 59.1466 29.3918 60.0193 31.221C57.7235 30.7871 55.3417 30.8172 53.0567 31.3092C52.5862 28.0637 52.3751 24.7804 52.4265 21.501" fill="#C18A00"/>
</g>
</g>
<path d="M51.6246 39.0681C54.9676 39.0681 57.6777 36.3372 57.6777 32.9686C57.6777 29.6 54.9676 26.8691 51.6246 26.8691C48.2816 26.8691 45.5715 29.6 45.5715 32.9686C45.5715 36.3372 48.2816 39.0681 51.6246 39.0681Z" fill="white"/>
<mask id="mask3_6327_85566" style="mask-type:luminance" maskUnits="userSpaceOnUse" x="45" y="26" width="13" height="14">
<path d="M51.6246 39.0681C54.9676 39.0681 57.6777 36.3372 57.6777 32.9686C57.6777 29.6 54.9676 26.8691 51.6246 26.8691C48.2816 26.8691 45.5715 29.6 45.5715 32.9686C45.5715 36.3372 48.2816 39.0681 51.6246 39.0681Z" fill="white"/>
</mask>
<g mask="url(#mask3_6327_85566)">
<path d="M52.1811 26.92C50.5823 27.1041 49.0932 28.0818 48.2788 29.4802C47.4644 30.8786 47.3446 32.666 47.9648 34.1619C48.585 35.6578 49.9306 36.8288 51.4903 37.2279C52.6309 37.5202 53.8299 37.4158 55.0019 37.3091C55.8869 37.2287 56.8241 37.1289 57.5326 36.5882C56.1379 38.197 54.2298 39.3464 52.1635 39.8228C50.0972 40.2993 47.8827 40.1013 45.9323 39.2644C44.8946 38.8189 43.8898 38.1529 43.3717 37.1436C42.9104 36.2456 42.8889 35.179 43.0447 34.1805C43.3755 32.055 44.4847 30.061 46.1112 28.6681C47.7384 27.2751 49.8692 26.4931 52.0046 26.507" fill="#F2F2F2"/>
<path d="M50.7449 34.0947C52.6568 34.0947 54.2067 32.533 54.2067 30.6064C54.2067 28.6799 52.6568 27.1182 50.7449 27.1182C48.8331 27.1182 47.2832 28.6799 47.2832 30.6064C47.2832 32.533 48.8331 34.0947 50.7449 34.0947Z" fill="#565656"/>
<path d="M51.1426 28.2873C51.4084 28.2873 51.6239 28.0702 51.6239 27.8023C51.6239 27.5345 51.4084 27.3174 51.1426 27.3174C50.8768 27.3174 50.6614 27.5345 50.6614 27.8023C50.6614 28.0702 50.8768 28.2873 51.1426 28.2873Z" fill="#F4F4F4"/>
</g>
<path d="M40.4925 17.5371H38.3241C38.1337 17.5371 37.9748 17.3901 37.9587 17.1991L36.9655 5.48512C36.9471 5.26933 37.1159 5.08447 37.3309 5.08447H41.1618C41.3729 5.08447 41.5402 5.26314 41.5279 5.47507L40.8586 17.189C40.8471 17.3847 40.6867 17.5371 40.4925 17.5371Z" fill="#F4F4F4"/>
<path d="M40.1594 18.5776H38.6296C38.2646 18.5776 37.9688 18.8758 37.9688 19.2436V20.7851C37.9688 21.1529 38.2646 21.451 38.6296 21.451H40.1594C40.5244 21.451 40.8203 21.1529 40.8203 20.7851V19.2436C40.8203 18.8758 40.5244 18.5776 40.1594 18.5776Z" fill="#F4F4F4"/>
</svg>
