<svg width="22" height="22" viewBox="0 0 22 22" fill="none" xmlns="http://www.w3.org/2000/svg">
<path d="M15.5736 8.32812C15.8339 8.06792 16.2559 8.06801 16.5163 8.32812C16.7766 8.58847 16.7766 9.01114 16.5163 9.27148L9.87174 15.916L12.3008 16.2031C12.6661 16.2466 12.9272 16.578 12.8841 16.9434C12.8408 17.309 12.5089 17.5707 12.1432 17.5273L8.35091 17.0781C8.09733 17.0481 7.88317 16.8754 7.79948 16.6341C7.71588 16.3928 7.77712 16.1252 7.95768 15.9447L15.5736 8.32812Z" fill="white"/>
<path d="M10.3561 4.67643L14.1491 5.1263C14.4026 5.15634 14.6168 5.3285 14.7005 5.56966C14.7841 5.81093 14.7229 6.0792 14.5423 6.25977L6.92643 13.8757C6.66613 14.1359 6.24409 14.1358 5.98372 13.8757C5.72337 13.6153 5.72337 13.1933 5.98372 12.9329L12.6283 6.28776L10.1992 6.00065C9.83379 5.95726 9.57276 5.62586 9.61588 5.26042C9.65926 4.89493 9.99062 4.63325 10.3561 4.67643Z" fill="white"/>
<path fill-rule="evenodd" clip-rule="evenodd" d="M17.6667 1C19.5076 1 21 2.49238 21 4.33333V17.6667C21 19.5076 19.5076 21 17.6667 21H4.33333C2.49238 21 1 19.5076 1 17.6667V4.33333C1 2.49238 2.49238 1 4.33333 1H17.6667ZM4.33333 2.33333C3.22876 2.33333 2.33333 3.22876 2.33333 4.33333V17.6667C2.33333 18.7712 3.22876 19.6667 4.33333 19.6667H17.6667C18.7712 19.6667 19.6667 18.7712 19.6667 17.6667V4.33333C19.6667 3.22876 18.7712 2.33333 17.6667 2.33333H4.33333Z" fill="white"/>
<path d="M15.5736 8.32812C15.8339 8.06792 16.2559 8.06801 16.5163 8.32812C16.7766 8.58847 16.7766 9.01114 16.5163 9.27148L9.87174 15.916L12.3008 16.2031C12.6661 16.2466 12.9272 16.578 12.8841 16.9434C12.8408 17.309 12.5089 17.5707 12.1432 17.5273L8.35091 17.0781C8.09733 17.0481 7.88317 16.8754 7.79948 16.6341C7.71588 16.3928 7.77712 16.1252 7.95768 15.9447L15.5736 8.32812Z" stroke="white" stroke-width="0.5" stroke-linejoin="round"/>
<path d="M10.3561 4.67643L14.1491 5.1263C14.4026 5.15634 14.6168 5.3285 14.7005 5.56966C14.7841 5.81093 14.7229 6.0792 14.5423 6.25977L6.92643 13.8757C6.66613 14.1359 6.24409 14.1358 5.98372 13.8757C5.72337 13.6153 5.72337 13.1933 5.98372 12.9329L12.6283 6.28776L10.1992 6.00065C9.83379 5.95726 9.57276 5.62586 9.61588 5.26042C9.65926 4.89493 9.99062 4.63325 10.3561 4.67643Z" stroke="white" stroke-width="0.5" stroke-linejoin="round"/>
<path fill-rule="evenodd" clip-rule="evenodd" d="M17.6667 1C19.5076 1 21 2.49238 21 4.33333V17.6667C21 19.5076 19.5076 21 17.6667 21H4.33333C2.49238 21 1 19.5076 1 17.6667V4.33333C1 2.49238 2.49238 1 4.33333 1H17.6667ZM4.33333 2.33333C3.22876 2.33333 2.33333 3.22876 2.33333 4.33333V17.6667C2.33333 18.7712 3.22876 19.6667 4.33333 19.6667H17.6667C18.7712 19.6667 19.6667 18.7712 19.6667 17.6667V4.33333C19.6667 3.22876 18.7712 2.33333 17.6667 2.33333H4.33333Z" stroke="white" stroke-width="0.5" stroke-linejoin="round"/>
</svg>
