<svg width="28" height="28" viewBox="0 0 28 28" fill="none" xmlns="http://www.w3.org/2000/svg">
<g clip-path="url(#clip0_5530_6156)">
<path d="M14 28C21.732 28 28 21.732 28 14C28 6.26801 21.732 0 14 0C6.26801 0 0 6.26801 0 14C0 21.732 6.26801 28 14 28Z" fill="#26A17B"/>
<path fill-rule="evenodd" clip-rule="evenodd" d="M15.6817 15.2103V15.2085C15.5855 15.2155 15.0893 15.2453 13.9825 15.2453C13.0987 15.2453 12.4766 15.219 12.2578 15.2085V15.2112C8.85583 15.0615 6.31658 14.4692 6.31658 13.7604C6.31658 13.0525 8.85583 12.4602 12.2578 12.3079V14.6214C12.4801 14.6372 13.1171 14.6748 13.9973 14.6748C15.0535 14.6748 15.5828 14.631 15.6817 14.6223V12.3097C19.0767 12.461 21.6098 13.0534 21.6098 13.7604C21.6098 14.4692 19.0767 15.0598 15.6817 15.2103V15.2103ZM15.6817 12.069V9.9988H20.419V6.8418H7.52058V9.9988H12.2578V12.0682C8.40783 12.2449 5.51245 13.0079 5.51245 13.9214C5.51245 14.8349 8.40783 15.597 12.2578 15.7747V22.4089H15.6817V15.7729C19.5256 15.5962 22.4139 14.834 22.4139 13.9214C22.4139 13.0088 19.5256 12.2467 15.6817 12.069" fill="white"/>
</g>
<defs>
<clipPath id="clip0_5530_6156">
<rect width="28" height="28" fill="white"/>
</clipPath>
</defs>
</svg>
