<svg width="27" height="28" viewBox="0 0 27 28" fill="none" xmlns="http://www.w3.org/2000/svg">
<g clip-path="url(#clip0_5530_6156)">
<path d="M13.3081 27.3082C20.658 27.3082 26.6163 21.3499 26.6163 14C26.6163 6.65015 20.658 0.691895 13.3081 0.691895C5.95826 0.691895 0 6.65015 0 14C0 21.3499 5.95826 27.3082 13.3081 27.3082Z" fill="#26A17B"/>
<path fill-rule="evenodd" clip-rule="evenodd" d="M14.9069 15.1505V15.1488C14.8154 15.1555 14.3438 15.1838 13.2917 15.1838C12.4516 15.1838 11.8602 15.1588 11.6523 15.1488V15.1513C8.41838 15.0091 6.00462 14.446 6.00462 13.7723C6.00462 13.0994 8.41838 12.5363 11.6523 12.3916V14.5907C11.8635 14.6057 12.469 14.6415 13.3058 14.6415C14.3097 14.6415 14.8129 14.5999 14.9069 14.5916V12.3932C18.1342 12.5371 20.5421 13.1002 20.5421 13.7723C20.5421 14.446 18.1342 15.0074 14.9069 15.1505V15.1505ZM14.9069 12.1645V10.1965H19.4101V7.19556H7.14912V10.1965H11.6523V12.1637C7.99252 12.3317 5.24023 13.057 5.24023 13.9253C5.24023 14.7937 7.99252 15.5181 11.6523 15.687V21.9934H14.9069V15.6853C18.5608 15.5173 21.3065 14.7928 21.3065 13.9253C21.3065 13.0578 18.5608 12.3333 14.9069 12.1645" fill="white"/>
</g>
<defs>
<clipPath id="clip0_5530_6156">
<rect width="26.6163" height="26.6163" fill="white" transform="translate(0 0.691895)"/>
</clipPath>
</defs>
</svg>
