<svg width="24" height="24" viewBox="0 0 24 24" fill="none" xmlns="http://www.w3.org/2000/svg">
<path d="M12 0C18.624 0 24 5.376 24 12C24 18.624 18.624 24 12 24C5.376 24 0 18.624 0 12C0 5.376 5.376 0 12 0ZM4.8276 16.0992C6.5892 18.7272 9.234 20.4 12.192 20.4C15.15 20.4 17.7948 18.7284 19.5552 16.0992C17.558 14.2329 14.9255 13.1964 12.192 13.2C9.4581 13.1961 6.82515 14.2326 4.8276 16.0992ZM12 10.8C12.9548 10.8 13.8705 10.4207 14.5456 9.74559C15.2207 9.07045 15.6 8.15478 15.6 7.2C15.6 6.24522 15.2207 5.32955 14.5456 4.65442C13.8705 3.97929 12.9548 3.6 12 3.6C11.0452 3.6 10.1295 3.97929 9.45442 4.65442C8.77928 5.32955 8.4 6.24522 8.4 7.2C8.4 8.15478 8.77928 9.07045 9.45442 9.74559C10.1295 10.4207 11.0452 10.8 12 10.8Z" fill="#7C7C7E"/>
</svg>
