<svg width="48" height="40" viewBox="0 0 48 40" fill="none" xmlns="http://www.w3.org/2000/svg">
<g clip-path="url(#clip0_4750_23159)">
<mask id="mask0_4750_23159" style="mask-type:luminance" maskUnits="userSpaceOnUse" x="0" y="0" width="48" height="40">
<path d="M47.9885 0H0V39.9822H47.9885V0Z" fill="white"/>
</mask>
<g mask="url(#mask0_4750_23159)">
<path d="M42.8765 24.2872H42.9895V24.2911C42.954 24.2892 42.914 24.2872 42.8765 24.2872Z" fill="black"/>
<path d="M47.9885 24.2872C45.4365 24.2872 45.4345 29.2467 45.4345 30.6178C45.4345 29.2713 45.4305 24.4366 42.9895 24.2915C42.954 24.2896 42.914 24.2877 42.8765 24.2877H42.9895C44.351 24.2858 45.4345 24.1826 45.4345 19.4106C45.4345 24.3055 46.5805 24.2877 47.9885 24.2877V24.2872Z" fill="#0088FF"/>
<path d="M6.96899 28.7947C5.27249 28.7947 5.27399 32.0978 5.27399 33.0019C5.27399 32.0978 5.27249 28.7947 3.57599 28.7947C4.51399 28.7947 5.27399 28.8139 5.27399 25.558C5.27399 28.8072 6.03399 28.7947 6.96899 28.7947Z" fill="#0088FF"/>
<path d="M24.8395 8.83998C23.998 8.83998 23.999 10.4781 23.999 10.9267C23.999 10.4785 23.9985 8.83998 23.157 8.83998C23.622 8.83998 23.999 8.84962 23.999 7.23468C23.999 8.84625 24.376 8.83998 24.8395 8.83998Z" fill="white"/>
<path d="M11.6405 12.5836L13.9955 11.2198C13.455 11.5726 12.9235 11.9268 12.39 12.2145C12.39 12.2145 12.388 12.2145 12.386 12.2164C12.386 12.2164 12.384 12.2183 12.382 12.2183C12.38 12.2203 12.378 12.2203 12.3755 12.2222C12.3715 12.2241 12.367 12.2261 12.361 12.2285L12.359 12.2304C12.271 12.2694 12.0055 12.3991 11.6405 12.5836Z" fill="url(#paint0_linear_4750_23159)"/>
<path d="M14.1805 17.9692V17.9803C13.4145 18.3629 12.569 18.6352 11.8115 18.933C11.686 18.9885 11.5635 19.0448 11.442 19.1027C11.4375 19.1051 11.4325 19.107 11.428 19.1094V19.0979C11.5495 19.0395 11.6725 18.9832 11.798 18.9287C12.5595 18.6285 13.4105 18.3542 14.1805 17.9692Z" fill="url(#paint1_linear_4750_23159)"/>
<path d="M14.1805 23.3817V23.386C13.3355 22.8959 12.4005 22.1904 11.428 21.1783V21.1682C11.4325 21.1735 11.4375 21.1783 11.4425 21.1836C12.4095 22.1899 13.34 22.8926 14.1805 23.3817Z" fill="url(#paint2_linear_4750_23159)"/>
<path d="M21.351 24.4265V26.0492C20.8785 25.7306 20.395 25.4424 19.8745 25.267C19.433 25.1321 19 25.0535 18.5985 25.0684V24.56C19.5935 24.5966 20.5265 24.5345 21.351 24.4265Z" fill="url(#paint3_linear_4750_23159)"/>
<path d="M24.7675 23.6188C24.8195 23.5981 24.8765 23.5754 24.938 23.5504V25.5581C24.7205 25.5258 24.501 25.4781 24.277 25.4106C23.5175 25.2289 22.8465 24.8251 22.183 24.4014V24.2978C23.7565 24.0169 24.7675 23.6188 24.7675 23.6188Z" fill="url(#paint4_linear_4750_23159)"/>
<path d="M7.82348 14.9479C7.82348 14.9479 7.82348 14.9494 7.82348 14.9499C7.82265 14.9518 7.82182 14.9542 7.82098 14.9561C7.82182 14.9532 7.82223 14.9508 7.82307 14.9479H7.82348Z" fill="url(#paint5_linear_4750_23159)"/>
<path d="M25.771 23.201C26.758 22.7793 28.009 22.2251 28.5235 21.9971V24.027C27.618 24.4482 26.7225 24.7754 25.771 24.8154V23.201Z" fill="url(#paint6_linear_4750_23159)"/>
<path d="M37.0695 19.7653C37.6625 19.8125 38.4705 19.9456 39.281 20.3701V20.3721C38.668 20.0525 37.928 19.8424 37.0695 19.7653Z" fill="url(#paint7_linear_4750_23159)"/>
<path d="M40.962 26.2906C40.962 26.2906 40.9637 26.2863 40.9645 26.2844C40.9637 26.2868 40.9633 26.2887 40.9624 26.2911H40.962V26.2906Z" fill="url(#paint8_linear_4750_23159)"/>
<path d="M41.0815 22.3957C41.7795 24.0708 41.226 25.667 40.9695 26.2704C41.481 24.8443 41.5025 23.4728 41.0685 22.3653C41.073 22.3754 41.0775 22.3855 41.0815 22.3957Z" fill="url(#paint9_linear_4750_23159)"/>
<path d="M15.027 17.4872C15.0225 17.4906 15.018 17.4935 15.013 17.4969V17.4829C15.5235 17.12 15.952 16.6723 16.2285 16.0776C16.835 14.8376 16.515 13.8439 16.6845 12.4467C16.8035 11.4627 16.9375 10.8198 17.103 10.3157C17.2115 9.98313 17.353 9.81157 17.267 9.76868C17.38 9.80097 17.2305 9.97253 17.1165 10.321C16.951 10.8236 16.8175 11.468 16.6975 12.4521C16.528 13.8487 16.8485 14.8429 16.2425 16.0829C15.9665 16.6771 15.5365 17.1248 15.027 17.4872Z" fill="url(#paint10_linear_4750_23159)"/>
<path d="M15.0275 23.8236C15.169 23.8877 16.3145 24.3682 17.7525 24.5051V25.5581H15.013V23.8169C15.018 23.8193 15.0225 23.8212 15.0275 23.8236Z" fill="url(#paint11_linear_4750_23159)"/>
<path d="M14.1805 5.87372V10.2438C14.081 10.3055 13.9835 10.3672 13.888 10.4279L11.428 11.852V8.38167C12.248 7.45444 13.1705 6.61155 14.1805 5.87372Z" fill="url(#paint12_linear_4750_23159)"/>
<path d="M12.7735 19.1108C13.2375 18.9393 13.714 18.7624 14.1805 18.5508V22.4689C13.421 21.9798 12.675 21.3566 11.958 20.6106C11.7785 20.4246 11.601 20.2304 11.428 20.0313V19.6911C11.5485 19.6265 11.6615 19.5696 11.7695 19.5181C11.8865 19.4626 11.9975 19.4111 12.1095 19.3619C12.323 19.2781 12.542 19.1971 12.7735 19.1108Z" fill="url(#paint13_linear_4750_23159)"/>
<path d="M21.351 2.75085V23.6525C20.7 23.7398 19.978 23.7981 19.212 23.7981C19.007 23.7981 18.802 23.7937 18.5985 23.7851V3.71616C19.4835 3.30555 20.4035 2.98218 21.351 2.75085Z" fill="url(#paint14_linear_4750_23159)"/>
<path d="M24.938 2.41977V22.7393C24.795 22.7986 24.668 22.8501 24.562 22.8921C24.5475 22.8978 23.6185 23.2559 22.183 23.52V2.63615C23.049 2.49061 23.936 2.41736 24.8395 2.41736C24.873 2.41736 24.9045 2.41736 24.938 2.41977Z" fill="url(#paint15_linear_4750_23159)"/>
<path d="M10.5765 9.42218V12.3104C10.494 12.3537 10.4075 12.4 10.315 12.4492C9.57599 12.8439 8.96499 13.1942 8.49849 13.4906C8.40799 13.548 8.32399 13.6029 8.24649 13.655C8.81549 12.1301 9.60549 10.708 10.5765 9.42218Z" fill="url(#paint16_linear_4750_23159)"/>
<path d="M28.5235 2.82652V21.1798C28.4505 21.2116 28.378 21.2434 28.3055 21.2757L28.2355 21.3065C27.7275 21.5316 26.6725 21.9986 25.771 22.386V2.44098C26.71 2.49206 27.6285 2.6217 28.5235 2.82652Z" fill="url(#paint17_linear_4750_23159)"/>
<path d="M39.281 9.66215V19.505C38.153 19.0111 37.084 18.9802 36.6005 18.9662C36.5765 18.9653 36.5525 18.9648 36.5285 18.9648V6.68866C37.562 7.57155 38.4865 8.56962 39.281 9.66215Z" fill="url(#paint18_linear_4750_23159)"/>
<path d="M42.468 19.3923V19.4096C42.468 20.6901 42.321 21.9378 42.042 23.1374C41.9835 22.7716 41.882 22.3952 41.724 22.0154C41.5035 21.4858 41.19 20.9923 40.793 20.5475C40.628 20.3166 40.441 20.1272 40.2365 19.9836V11.1301C40.3935 11.4005 40.544 11.6786 40.686 11.9586C40.719 12.0231 40.752 12.0877 40.784 12.1528C40.957 12.5017 41.115 12.8569 41.2635 13.2188C41.2845 13.2709 41.3055 13.3229 41.326 13.3754C41.607 14.0906 41.8395 14.8284 42.0205 15.5855V15.5875C42.103 15.9349 42.1745 16.2863 42.235 16.641C42.323 17.159 42.387 17.6848 42.424 18.2183V18.2202C42.453 18.6077 42.4675 18.9971 42.468 19.3923Z" fill="url(#paint19_linear_4750_23159)"/>
<path d="M32.1085 3.92289V19.7051C32.0565 19.7219 32.0045 19.7388 31.952 19.7561C31.7315 19.8289 31.5095 19.9079 31.283 19.9894C31.281 19.9899 31.2795 19.9908 31.278 19.9913C30.623 20.2323 30.0105 20.5113 29.418 20.7812C29.3975 20.7908 29.3765 20.8 29.356 20.8096V2.9812C29.7305 3.07518 30.0995 3.18168 30.463 3.29976C30.626 3.35229 30.788 3.40771 30.949 3.46506C31.281 3.58313 31.609 3.71132 31.931 3.84819L31.933 3.85012C31.9915 3.87229 32.05 3.89638 32.1085 3.92289Z" fill="url(#paint20_linear_4750_23159)"/>
<path d="M35.6955 6.01926V18.985C34.833 19.0381 33.9065 19.1971 32.9405 19.4593V4.31372C32.9675 4.32577 32.993 4.33782 33.018 4.35179C33.9655 4.82987 34.861 5.38794 35.6955 6.01926Z" fill="url(#paint21_linear_4750_23159)"/>
<path d="M15.0005 5.40961V9.866C15.656 9.50985 16.2375 9.28383 16.8095 9.16094C16.9805 9.12528 17.1175 9.10166 17.242 9.10166C17.4855 9.10166 17.65 9.19275 17.753 9.2819V3.95178C16.787 4.35901 15.8665 4.84913 15.0005 5.40961Z" fill="url(#paint22_linear_4750_23159)"/>
<path d="M17.3155 13.7494C17.3155 14.5485 17.3155 15.3745 16.86 16.3099C16.561 16.9513 16.096 17.4897 15.4395 17.9566C15.438 17.9581 15.436 17.9591 15.4345 17.9605C15.2965 18.0569 15.151 18.1494 15 18.2381V23.0622C15.11 23.1181 15.2205 23.1716 15.332 23.2227C15.341 23.227 16.3935 23.6906 17.7395 23.8366V20.6954C17.744 20.6935 17.7485 20.6911 17.753 20.6892V10.506C17.596 10.9933 17.477 11.6077 17.3695 12.4906C17.3155 12.9374 17.3155 13.3499 17.3155 13.7494Z" fill="url(#paint23_linear_4750_23159)"/>
<path d="M44.176 17.9889C44.176 18.2467 44.105 18.4887 43.9795 18.6964C43.8455 18.9219 43.649 19.1074 43.4145 19.2327C43.203 19.3455 42.9585 19.4101 42.701 19.4101C41.8875 19.4101 41.2265 18.773 41.2265 17.9889C41.2265 17.2048 41.8875 16.5677 42.701 16.5677C42.8075 16.5677 42.91 16.5778 43.0105 16.598V16.6C43.4245 16.6848 43.776 16.9388 43.979 17.2834C44.1045 17.4911 44.1755 17.733 44.1755 17.9889H44.176Z" fill="#C2DDF3"/>
<path d="M11.428 7.23518C11.428 7.75518 11.068 8.1947 10.5765 8.33398C10.4675 8.36627 10.355 8.38217 10.2355 8.38217C9.5785 8.38217 9.0455 7.86795 9.0455 7.23518C9.0455 6.60241 9.579 6.0882 10.2355 6.0882C10.3545 6.0882 10.4675 6.1041 10.5765 6.13639C11.068 6.27567 11.428 6.71518 11.428 7.23518Z" fill="#C2DDF3"/>
<path d="M3.57601 22.5624C4.04103 22.5624 4.41801 22.199 4.41801 21.7508C4.41801 21.3026 4.04103 20.9393 3.57601 20.9393C3.11098 20.9393 2.73401 21.3026 2.73401 21.7508C2.73401 22.199 3.11098 22.5624 3.57601 22.5624Z" fill="#C2DDF3"/>
<path d="M41.9425 12.6925C41.9425 12.9826 41.7585 13.2308 41.495 13.3315C41.4115 13.3638 41.3215 13.3822 41.2275 13.3822C40.832 13.3822 40.51 13.0737 40.51 12.6925C40.51 12.4183 40.6775 12.1826 40.918 12.0718C41.012 12.0275 41.1165 12.0034 41.2275 12.0034C41.623 12.0034 41.943 12.3118 41.943 12.693H41.9425V12.6925Z" fill="#C2DDF3"/>
<path d="M31.4805 8.01881C31.4805 8.12773 31.4115 8.22074 31.3125 8.25881C31.281 8.27086 31.2475 8.27761 31.212 8.27761C31.0635 8.27761 30.943 8.16194 30.943 8.01881C30.943 7.91616 31.006 7.82749 31.096 7.78604C31.1315 7.76917 31.1705 7.7605 31.212 7.7605C31.3605 7.7605 31.4805 7.87616 31.4805 8.01929V8.01881Z" fill="white"/>
<path d="M38.4415 17.1301C38.4415 17.2391 38.3725 17.3321 38.2735 17.3701C38.242 17.3822 38.2085 17.3889 38.173 17.3889C38.0245 17.3889 37.904 17.2733 37.904 17.1301C37.904 17.0275 37.967 16.9388 38.057 16.8974C38.0925 16.8805 38.1315 16.8718 38.173 16.8718C38.3215 16.8718 38.4415 16.9875 38.4415 17.1306V17.1301Z" fill="white"/>
<path d="M19.8845 13.468C19.8845 13.5402 19.8385 13.6019 19.773 13.627C19.752 13.6352 19.7295 13.6395 19.7065 13.6395C19.608 13.6395 19.5275 13.5629 19.5275 13.468C19.5275 13.3995 19.569 13.3407 19.629 13.3133C19.6525 13.3022 19.6785 13.2964 19.706 13.2964C19.8045 13.2964 19.884 13.373 19.884 13.468H19.8845Z" fill="white"/>
<path d="M30.6845 14.8477C30.3035 14.8477 30.3035 15.5899 30.3035 15.7928C30.3035 15.5899 30.3035 14.8477 29.922 14.8477C30.1325 14.8477 30.3035 14.852 30.3035 14.1205C30.3035 14.8506 30.474 14.8477 30.6845 14.8477Z" fill="white"/>
<path d="M23.5745 18.4651C23.1935 18.4651 23.1935 19.2073 23.1935 19.4101C23.1935 19.2073 23.1935 18.4651 22.812 18.4651C23.0225 18.4651 23.1935 18.4694 23.1935 17.7379C23.1935 18.468 23.364 18.4651 23.5745 18.4651Z" fill="white"/>
<path d="M17.36 7.41638C16.979 7.41638 16.979 8.15855 16.979 8.36144C16.979 8.15855 16.979 7.41638 16.5975 7.41638C16.808 7.41638 16.979 7.42071 16.979 6.68915C16.979 7.41927 17.1495 7.41638 17.36 7.41638Z" fill="white"/>
<path d="M34.3855 6.81494C34.0045 6.81494 34.0045 7.55711 34.0045 7.76C34.0045 7.55711 34.0045 6.81494 33.623 6.81494C33.8335 6.81494 34.0045 6.81927 34.0045 6.08771C34.0045 6.81783 34.175 6.81494 34.3855 6.81494Z" fill="white"/>
<path d="M40.962 26.2906C40.962 26.2906 40.9637 26.2863 40.9645 26.2844C40.9637 26.2868 40.9633 26.2887 40.9624 26.2911H40.962V26.2906Z" fill="white"/>
<path d="M40.9695 26.2703C40.949 26.3195 40.93 26.3619 40.914 26.3971C39.1965 30.0636 36.1675 33.04 32.401 34.7658C32.333 34.7971 32.2645 34.8279 32.196 34.8583C31.673 35.3022 30.959 35.9291 30.1465 36.7089C28.226 38.5508 27.7865 39.2944 26.544 39.7181C25.0865 40.2154 23.4975 39.9397 23.356 39.4732C23.2255 39.0434 24.38 38.6347 24.6895 37.374C24.7825 36.9952 24.7705 36.6544 24.737 36.4038C24.7135 36.4038 24.69 36.4034 24.666 36.4029C22.59 36.3836 20.603 36.0197 18.755 35.3662C18.756 35.3658 18.757 35.3653 18.758 35.3648C18.7545 35.3629 18.7505 35.3609 18.747 35.359C18.552 35.4573 18.2825 35.5884 17.959 35.734C17.849 35.7836 16.9155 36.2024 16.2965 36.399C14.794 36.8756 12.708 36.8159 12.443 36.0891C12.4115 36.0024 12.4145 35.9311 12.417 35.8737C12.4515 35.1036 13.7505 35.0178 14.4315 33.9205C14.6085 33.6347 14.568 33.5643 14.6805 33.2496C14.5955 33.2058 14.511 33.1614 14.426 33.1176H14.4245C14.4245 33.1176 10.974 30.7205 9.94496 29.4164C8.64546 27.7701 7.40696 25.9479 6.90246 23.9441C6.54996 22.2877 6.62496 20.7301 5.52946 19.3875C5.34946 19.1687 5.13596 18.9783 4.91047 18.8072C4.56597 18.5475 4.21547 18.2915 3.82147 18.0636C2.44997 17.3123 0.709965 16.627 0.209463 15.0385C-0.184037 13.867 0.217463 13.0169 0.231963 11.7528C0.241463 10.8641 0.197463 10.2752 0.111963 9.80962C0.0239631 9.34022 -0.175037 9.19613 0.343963 9.37251C1.54897 9.87131 2.72447 10.8193 3.89597 11.8458C4.02547 11.959 4.16147 12.0631 4.30547 12.1581C5.07646 12.6665 7.62546 14.3985 7.82396 14.9479C7.82396 14.9489 7.82396 14.9494 7.82396 14.9499C7.82646 14.9571 7.82896 14.9638 7.83046 14.9706H7.83196C7.98696 14.6 9.38246 13.7884 10.59 13.1431C10.893 12.9822 11.184 12.8294 11.4415 12.6983L11.636 12.5855L11.64 12.5836L13.995 11.2197L14.194 11.1046C14.47 10.9296 14.7465 10.7561 15.0265 10.5952C15.6375 10.2414 16.266 9.94842 16.924 9.80673C17.1105 9.76769 17.2155 9.75372 17.2665 9.76866C17.3795 9.80095 17.23 9.97251 17.116 10.3209C16.9505 10.8236 16.817 11.4679 16.697 12.452C16.5275 13.8487 16.848 14.8429 16.242 16.0829C15.966 16.6771 15.536 17.1248 15.0265 17.4872C15.022 17.4906 15.0175 17.4935 15.0125 17.4969C14.7565 17.6742 14.481 17.8332 14.194 17.9735C14.1895 17.9759 14.1845 17.9783 14.18 17.9802C13.414 18.3629 12.5685 18.6352 11.811 18.933C11.6855 18.9884 11.563 19.0448 11.4415 19.1026C11.437 19.105 11.432 19.107 11.4275 19.1094C11.2415 19.1985 11.062 19.293 10.888 19.3894C10.741 19.4689 10.641 19.5928 10.5905 19.7315C10.536 19.8742 10.5345 20.0323 10.5905 20.1778C10.616 20.2395 10.6505 20.3002 10.6975 20.3542C10.9405 20.6453 11.185 20.9166 11.4275 21.1682C11.432 21.1735 11.437 21.1783 11.442 21.1836C12.409 22.1899 13.3395 22.8925 14.18 23.3817C14.185 23.3846 14.1895 23.3875 14.1945 23.3903C14.4775 23.5571 14.7515 23.6973 15.0125 23.8169C15.0175 23.8193 15.022 23.8212 15.027 23.8236C15.1685 23.8877 16.314 24.3682 17.752 24.505C17.761 24.506 17.7705 24.507 17.7795 24.5079C18.0565 24.5335 18.3295 24.5503 18.598 24.56C19.593 24.5966 20.526 24.5344 21.3505 24.4265C21.6425 24.3884 21.92 24.345 22.1825 24.2978C23.756 24.0169 24.767 23.6188 24.767 23.6188C24.819 23.5981 24.876 23.5754 24.9375 23.5503C25.1665 23.4573 25.455 23.3359 25.7705 23.2009C26.7575 22.7793 28.0085 22.225 28.523 21.9971C28.5275 21.9952 28.532 21.9932 28.5365 21.9913C28.8135 21.8684 29.0925 21.7494 29.369 21.6246C30.044 21.3185 30.734 20.9932 31.4695 20.7229C31.691 20.6434 31.9085 20.5658 32.122 20.4954C32.406 20.4014 32.684 20.3166 32.9545 20.2419C33.954 19.9629 34.8745 19.8058 35.7085 19.7556C35.9965 19.7378 36.273 19.7311 36.541 19.7388C36.6825 19.7431 36.857 19.7489 37.056 19.7643C37.0605 19.7648 37.0645 19.7648 37.069 19.7653C37.662 19.8125 38.47 19.9455 39.2805 20.3701C39.285 20.372 39.2895 20.3744 39.294 20.3769C39.364 20.414 39.42 20.4453 39.4525 20.4646C39.838 20.5672 40.097 20.8742 40.236 21.0756V21.0761H40.2365C40.5995 21.4434 40.8775 21.879 41.0675 22.3653C41.072 22.3754 41.0765 22.3855 41.0805 22.3956C41.7785 24.0708 41.225 25.667 40.9685 26.2703H40.9695Z" fill="white"/>
<path d="M24.718 36.2785L32.4525 34.6419C32.3735 34.7079 32.2875 34.7802 32.196 34.8583C31.673 35.3021 30.959 35.9291 30.1465 36.7089C28.226 38.5508 27.7865 39.2944 26.544 39.7181C25.0865 40.2154 23.4975 39.9397 23.356 39.4732C23.2255 39.0434 24.38 38.6347 24.6895 37.374C24.7825 36.9952 24.7705 36.6544 24.737 36.4038C24.7315 36.359 24.725 36.3171 24.718 36.2785Z" fill="#6DA7DA"/>
<path d="M32.4546 34.6414L32.4525 34.6419L32.4529 34.6414H32.4546Z" fill="#6DA7DA"/>
<path d="M0.111977 9.80962C0.0239743 9.34022 -0.174984 9.19613 0.344008 9.37251C1.549 9.87131 2.72451 10.8193 3.89601 11.8458C4.02551 11.959 4.16148 12.0631 4.30548 12.1581C5.07649 12.6665 7.62544 14.3985 7.82399 14.9479V14.9499C7.82649 14.9571 7.82899 14.9638 7.83049 14.9706H7.83199C7.98699 14.6 9.38249 13.7884 10.59 13.1431C10.893 12.9822 11.184 12.8294 11.4415 12.6983L11.636 12.5855L11.64 12.5836L13.995 11.2197L14.194 11.1046C14.47 10.9296 14.7465 10.7561 15.0265 10.5952C15.6375 10.2414 16.266 9.94842 16.924 9.80673C17.1104 9.76769 17.2154 9.75372 17.2665 9.76866C17.3795 9.80095 17.23 9.97251 17.116 10.3209C16.9505 10.8236 16.817 11.4679 16.697 12.452C16.5275 13.8487 16.848 14.8429 16.242 16.0829C15.966 16.6771 15.536 17.1248 15.0265 17.4872C15.022 17.4906 15.0175 17.4935 15.0125 17.4969C14.7565 17.6742 14.481 17.8332 14.194 17.9735C14.1895 17.9759 14.1845 17.9783 14.18 17.9802C13.414 18.3629 12.5685 18.6352 11.811 18.933C11.6855 18.9884 11.563 19.0448 11.4415 19.1026C11.437 19.105 11.432 19.107 11.4275 19.1094C11.2415 19.1985 11.062 19.293 10.888 19.3894C10.741 19.4689 10.641 19.5928 10.5905 19.7315C10.536 19.8742 10.5345 20.0323 10.5905 20.1778C10.616 20.2395 10.6505 20.3002 10.6975 20.3542C10.9405 20.6453 11.185 20.9166 11.4275 21.1682C11.432 21.1735 11.437 21.1783 11.442 21.1836C12.409 22.1899 13.3395 22.8925 14.18 23.3817C14.185 23.3846 14.1895 23.3875 14.1945 23.3903C14.4775 23.5571 14.7515 23.6973 15.0125 23.8169C15.0175 23.8193 15.022 23.8212 15.027 23.8236C15.1686 23.8877 16.314 24.3682 17.752 24.505C17.761 24.506 17.7705 24.507 17.7795 24.5079C18.0565 24.5335 18.3295 24.5503 18.598 24.56C19.593 24.5966 20.526 24.5344 21.3505 24.4265C21.6425 24.3884 21.92 24.345 22.1825 24.2978C23.756 24.0169 24.767 23.6188 24.767 23.6188C24.819 23.5981 24.876 23.5754 24.9375 23.5503C25.1665 23.4573 25.455 23.3359 25.7705 23.2009C26.7575 22.7793 28.0085 22.225 28.523 21.9971C28.5275 21.9952 28.532 21.9932 28.5365 21.9913C28.8135 21.8684 29.0925 21.7494 29.369 21.6246C30.044 21.3185 30.734 20.9932 31.4695 20.7229C31.691 20.6434 31.9085 20.5658 32.122 20.4954C32.406 20.4014 32.684 20.3166 32.9545 20.2419C33.954 19.9629 34.8745 19.8058 35.7085 19.7556C35.9965 19.7378 36.273 19.7311 36.541 19.7388C36.6825 19.7431 36.857 19.7489 37.056 19.7643C37.0605 19.7648 37.0645 19.7648 37.069 19.7653C37.662 19.8125 38.47 19.9455 39.2805 20.3701C39.285 20.372 39.2895 20.3744 39.294 20.3769C39.3638 20.4139 39.4197 20.4451 39.4522 20.4644C39.427 20.4601 39.4022 20.4558 39.3765 20.4515C39.3735 20.4506 39.371 20.4501 39.368 20.4496C38.795 20.346 38.2595 20.7638 37.9345 21.0506C35.3485 23.3315 30.9035 30.8087 26.8175 31.1605C26.208 31.213 25.494 31.1166 24.482 31.5002C23.532 31.8602 22.774 32.4708 21.663 33.3667C21.104 33.8173 20.8635 34.053 20.255 34.4747C19.7755 34.8077 19.28 35.105 18.7615 35.3667C18.7605 35.3662 18.759 35.3653 18.758 35.3648C18.7545 35.3629 18.7505 35.3609 18.747 35.359C18.552 35.4573 18.2825 35.5884 17.959 35.734C17.849 35.7836 16.9155 36.2024 16.2965 36.399C14.794 36.8756 12.708 36.8159 12.443 36.0891C12.4115 36.0024 12.4145 35.9311 12.417 35.8737C12.4515 35.1036 13.7505 35.0178 14.4315 33.9205C14.5974 33.6526 14.5722 33.574 14.6611 33.3059L14.6805 33.2496C14.5955 33.2058 14.511 33.1614 14.426 33.1176H14.4245C14.4194 33.1141 10.9732 30.7195 9.94499 29.4164C8.64549 27.7701 7.40699 25.9479 6.90249 23.9441C6.54999 22.2877 6.62499 20.7301 5.52949 19.3875C5.34949 19.1687 5.13599 18.9783 4.91051 18.8072C4.56601 18.5475 4.21549 18.2915 3.8215 18.0636C2.45 17.3123 0.709984 16.627 0.209486 15.0385C-0.184002 13.867 0.217496 13.0169 0.231996 11.7528C0.241496 10.8641 0.197476 10.2752 0.111977 9.80962ZM39.453 20.4646H39.4525C39.4524 20.4645 39.4523 20.4645 39.4522 20.4644C39.4525 20.4645 39.4527 20.4646 39.453 20.4646Z" fill="url(#paint24_linear_4750_23159)"/>
<path d="M40.9695 26.2703C40.949 26.3195 40.93 26.3619 40.914 26.3971C39.1965 30.0636 36.1675 33.04 32.401 34.7658C32.333 34.7971 32.2645 34.8279 32.196 34.8583C29.959 35.852 27.466 36.4043 24.8395 36.4043C24.805 36.4043 24.771 36.4043 24.737 36.4038C24.7135 36.4038 24.69 36.4034 24.666 36.4029C22.59 36.3836 20.603 36.0197 18.755 35.3663C18.756 35.3658 18.757 35.3653 18.758 35.3648C18.7595 35.3638 18.761 35.3634 18.7625 35.3624C19.281 35.1007 19.7765 34.8034 20.256 34.4703C20.8645 34.0487 21.105 33.813 21.664 33.3624C22.775 32.4665 23.533 31.8559 24.483 31.4959C25.495 31.1123 26.209 31.2087 26.8185 31.1561C30.9045 30.8043 35.3495 23.3272 37.9355 21.0463C38.2605 20.7595 38.796 20.3417 39.369 20.4453C39.372 20.4458 39.3745 20.4463 39.3775 20.4472C39.403 20.452 39.4285 20.4578 39.453 20.4646C39.8385 20.5672 40.0975 20.8742 40.2365 21.0757V21.0761H40.237C40.522 21.3913 40.835 21.8173 41.068 22.3653C41.0725 22.3754 41.077 22.3855 41.081 22.3956C41.779 24.0708 41.2255 25.667 40.969 26.2703H40.9695Z" fill="#C2DDF3"/>
<path d="M38.1453 23.5534C38.2898 23.6492 38.3282 23.8484 38.2299 23.997C37.7115 24.7827 37.1244 25.5577 36.5428 26.2902C34.764 28.625 32.5229 30.5578 29.7494 31.4982C29.5047 31.5857 29.2568 31.6628 29.0079 31.7356C28.998 31.7356 28.9896 31.7295 28.9859 31.7204C28.9821 31.7105 28.9859 31.6984 28.9948 31.6914C31.7318 30.6475 33.3548 29.2682 34.2208 28.4257C35.1444 27.5273 35.9575 26.473 36.7393 25.439C37.1988 24.833 37.6372 24.2109 38.0531 23.5738C38.0737 23.5426 38.1144 23.5335 38.1448 23.5534H38.1453Z" fill="white"/>
<path d="M39.132 24.4678C39.288 24.5669 39.0277 25.2376 38.925 25.3976C38.5982 25.9077 38.5573 25.9469 38.1945 26.4309C37.4821 27.3867 36.7406 28.3479 35.882 29.1799C34.8561 30.1895 33.6539 31.0164 32.3461 31.585C31.9132 31.7752 31.4683 31.9361 31.0171 32.0714C31.0047 32.0755 30.9919 32.0714 30.987 32.0622C30.9806 32.0508 30.9865 32.032 31.0028 32.0252C31.0033 32.0252 31.0062 32.0239 31.0067 32.0239C34.2557 30.8048 36.2779 28.2844 37.4638 26.7715C37.8815 26.2381 38.4443 25.4724 39.0412 24.4911C39.0604 24.4591 39.1014 24.449 39.132 24.4682V24.4678Z" fill="white"/>
<path d="M39.285 26.4423C39.4409 26.5452 39.1063 27.2859 39 27.4458C38.7279 27.8552 38.8163 27.7285 38.5153 28.1165C37.9015 28.9126 37.2613 29.7114 36.5218 30.3972C35.6383 31.2297 34.6087 31.9014 33.497 32.3577C33.1289 32.5101 32.7518 32.6384 32.3701 32.7448C32.3554 32.7518 32.3398 32.7448 32.3356 32.7335C32.3313 32.7216 32.3398 32.7041 32.3568 32.7006C32.3597 32.6997 32.3639 32.698 32.3696 32.6958C35.1441 31.6715 36.8866 29.5686 37.8613 28.3657C38.2214 27.9212 38.7076 27.2801 39.2245 26.4546C39.2372 26.4344 39.2628 26.4283 39.2821 26.441C39.2831 26.4419 39.284 26.4423 39.2854 26.4432L39.285 26.4423Z" fill="white"/>
<path d="M32.8415 23.0246C32.71 23.1779 32.522 23.3653 32.2655 23.5432C32.1485 23.6241 32.017 23.6863 31.8755 23.7142C31.715 23.7461 31.4885 23.7547 31.193 23.6781C31.129 23.6612 31.0905 23.5967 31.1095 23.5354C31.153 23.3957 31.2425 23.1967 31.43 23.0222C31.444 23.0092 31.555 22.9075 31.6975 22.8362C32.089 22.6405 32.554 22.7595 32.792 22.8453C32.868 22.8728 32.894 22.9644 32.842 23.0246H32.8415Z" fill="white"/>
<path d="M31.9865 2.39325C30.734 2.39325 30.733 4.82699 30.733 5.49976C30.733 4.83904 30.731 2.46602 29.533 2.39518C29.5155 2.39422 29.496 2.39325 29.4775 2.39325H29.533C30.2015 2.39229 30.733 2.34169 30.733 0C30.733 2.40241 31.2955 2.39325 31.9865 2.39325Z" fill="#0088FF"/>
</g>
</g>
<defs>
<linearGradient id="paint0_linear_4750_23159" x1="12.818" y1="12.0646" x2="12.818" y2="11.1292" gradientUnits="userSpaceOnUse">
<stop stop-color="white" stop-opacity="0"/>
<stop offset="0.19" stop-color="#CDD5E6" stop-opacity="0.22"/>
<stop offset="0.57" stop-color="#6F87B9" stop-opacity="0.64"/>
<stop offset="0.85" stop-color="#35569C" stop-opacity="0.9"/>
<stop offset="1" stop-color="#1F4492"/>
</linearGradient>
<linearGradient id="paint1_linear_4750_23159" x1="12.804" y1="20.3576" x2="12.804" y2="18.3759" gradientUnits="userSpaceOnUse">
<stop stop-color="white" stop-opacity="0"/>
<stop offset="0.19" stop-color="#CDD5E6" stop-opacity="0.22"/>
<stop offset="0.57" stop-color="#6F87B9" stop-opacity="0.64"/>
<stop offset="0.85" stop-color="#35569C" stop-opacity="0.9"/>
<stop offset="1" stop-color="#1F4492"/>
</linearGradient>
<linearGradient id="paint2_linear_4750_23159" x1="12.804" y1="25.8145" x2="12.804" y2="21.9595" gradientUnits="userSpaceOnUse">
<stop stop-color="white" stop-opacity="0"/>
<stop offset="0.19" stop-color="#CDD5E6" stop-opacity="0.22"/>
<stop offset="0.57" stop-color="#6F87B9" stop-opacity="0.64"/>
<stop offset="0.85" stop-color="#35569C" stop-opacity="0.9"/>
<stop offset="1" stop-color="#1F4492"/>
</linearGradient>
<linearGradient id="paint3_linear_4750_23159" x1="19.9745" y1="26.1056" x2="19.9745" y2="24.3629" gradientUnits="userSpaceOnUse">
<stop stop-color="white" stop-opacity="0"/>
<stop offset="0.19" stop-color="#CDD5E6" stop-opacity="0.22"/>
<stop offset="0.57" stop-color="#6F87B9" stop-opacity="0.64"/>
<stop offset="0.79" stop-color="#35569C" stop-opacity="0.9"/>
<stop offset="0.93" stop-color="#1F4492"/>
</linearGradient>
<linearGradient id="paint4_linear_4750_23159" x1="23.5605" y1="25.5537" x2="23.5605" y2="23.6395" gradientUnits="userSpaceOnUse">
<stop stop-color="white" stop-opacity="0"/>
<stop offset="0.19" stop-color="#CDD5E6" stop-opacity="0.22"/>
<stop offset="0.57" stop-color="#6F87B9" stop-opacity="0.64"/>
<stop offset="0.85" stop-color="#35569C" stop-opacity="0.9"/>
<stop offset="1" stop-color="#1F4492"/>
</linearGradient>
<linearGradient id="paint5_linear_4750_23159" x1="7.82265" y1="14.9556" x2="7.82265" y2="14.9475" gradientUnits="userSpaceOnUse">
<stop stop-color="white" stop-opacity="0"/>
<stop offset="0.19" stop-color="#CDD5E6" stop-opacity="0.22"/>
<stop offset="0.57" stop-color="#6F87B9" stop-opacity="0.64"/>
<stop offset="0.85" stop-color="#35569C" stop-opacity="0.9"/>
<stop offset="1" stop-color="#1F4492"/>
</linearGradient>
<linearGradient id="paint6_linear_4750_23159" x1="27.147" y1="24.6969" x2="27.147" y2="22.1432" gradientUnits="userSpaceOnUse">
<stop stop-color="white" stop-opacity="0"/>
<stop offset="0.19" stop-color="#CDD5E6" stop-opacity="0.22"/>
<stop offset="0.57" stop-color="#6F87B9" stop-opacity="0.64"/>
<stop offset="0.85" stop-color="#35569C" stop-opacity="0.9"/>
<stop offset="1" stop-color="#1F4492"/>
</linearGradient>
<linearGradient id="paint7_linear_4750_23159" x1="38.175" y1="20.2738" x2="38.175" y2="19.7913" gradientUnits="userSpaceOnUse">
<stop stop-color="white" stop-opacity="0"/>
<stop offset="0.19" stop-color="#CDD5E6" stop-opacity="0.22"/>
<stop offset="0.57" stop-color="#6F87B9" stop-opacity="0.64"/>
<stop offset="0.85" stop-color="#35569C" stop-opacity="0.9"/>
<stop offset="1" stop-color="#1F4492"/>
</linearGradient>
<linearGradient id="paint8_linear_4750_23159" x1="40.9633" y1="26.2897" x2="40.9633" y2="26.2863" gradientUnits="userSpaceOnUse">
<stop stop-color="white" stop-opacity="0"/>
<stop offset="0.19" stop-color="#CDD5E6" stop-opacity="0.22"/>
<stop offset="0.57" stop-color="#6F87B9" stop-opacity="0.64"/>
<stop offset="0.85" stop-color="#35569C" stop-opacity="0.9"/>
<stop offset="1" stop-color="#1F4492"/>
</linearGradient>
<linearGradient id="paint9_linear_4750_23159" x1="41.195" y1="25.5002" x2="41.195" y2="23.6949" gradientUnits="userSpaceOnUse">
<stop stop-color="white" stop-opacity="0"/>
<stop offset="0.19" stop-color="#CDD5E6" stop-opacity="0.22"/>
<stop offset="0.57" stop-color="#6F87B9" stop-opacity="0.64"/>
<stop offset="0.85" stop-color="#35569C" stop-opacity="0.9"/>
<stop offset="1" stop-color="#1F4492"/>
</linearGradient>
<linearGradient id="paint10_linear_4750_23159" x1="16.16" y1="10.0945" x2="16.16" y2="17.2506" gradientUnits="userSpaceOnUse">
<stop stop-color="white" stop-opacity="0"/>
<stop offset="0.19" stop-color="#CDD5E6" stop-opacity="0.22"/>
<stop offset="0.57" stop-color="#6F87B9" stop-opacity="0.64"/>
<stop offset="0.79" stop-color="#35569C" stop-opacity="0.9"/>
<stop offset="0.93" stop-color="#1F4492"/>
</linearGradient>
<linearGradient id="paint11_linear_4750_23159" x1="16.3825" y1="23.8901" x2="16.3825" y2="25.5027" gradientUnits="userSpaceOnUse">
<stop stop-color="white" stop-opacity="0"/>
<stop offset="0.19" stop-color="#CDD5E6" stop-opacity="0.22"/>
<stop offset="0.57" stop-color="#6F87B9" stop-opacity="0.64"/>
<stop offset="0.79" stop-color="#35569C" stop-opacity="0.9"/>
<stop offset="0.93" stop-color="#1F4492"/>
</linearGradient>
<linearGradient id="paint12_linear_4750_23159" x1="12.8043" y1="5.87372" x2="12.8043" y2="11.852" gradientUnits="userSpaceOnUse">
<stop offset="0.00480769" stop-color="#225FED"/>
<stop offset="1" stop-color="#0D45C5"/>
</linearGradient>
<linearGradient id="paint13_linear_4750_23159" x1="13.025" y1="13.1566" x2="12.8706" y2="22.4691" gradientUnits="userSpaceOnUse">
<stop stop-color="#225FED"/>
<stop offset="1" stop-color="#162E67"/>
</linearGradient>
<linearGradient id="paint14_linear_4750_23159" x1="19.9748" y1="2.75085" x2="19.9748" y2="23.7981" gradientUnits="userSpaceOnUse">
<stop stop-color="#225FED"/>
<stop offset="1" stop-color="#162E67"/>
</linearGradient>
<linearGradient id="paint15_linear_4750_23159" x1="23.5605" y1="2.41736" x2="23.5605" y2="23.52" gradientUnits="userSpaceOnUse">
<stop stop-color="#225FED"/>
<stop offset="1" stop-color="#162E67"/>
</linearGradient>
<linearGradient id="paint16_linear_4750_23159" x1="9.41149" y1="9.42218" x2="9.41149" y2="13.655" gradientUnits="userSpaceOnUse">
<stop offset="0.00480769" stop-color="#225FED"/>
<stop offset="1" stop-color="#0D45C5"/>
</linearGradient>
<linearGradient id="paint17_linear_4750_23159" x1="27.1472" y1="2.44098" x2="27.1472" y2="22.386" gradientUnits="userSpaceOnUse">
<stop stop-color="#225FED"/>
<stop offset="1" stop-color="#162E67"/>
</linearGradient>
<linearGradient id="paint18_linear_4750_23159" x1="37.9048" y1="6.68866" x2="37.9048" y2="19.505" gradientUnits="userSpaceOnUse">
<stop stop-color="#225FED"/>
<stop offset="1" stop-color="#162E67"/>
</linearGradient>
<linearGradient id="paint19_linear_4750_23159" x1="41.3522" y1="11.1301" x2="41.3522" y2="23.1374" gradientUnits="userSpaceOnUse">
<stop stop-color="#225FED"/>
<stop offset="1" stop-color="#162E67"/>
</linearGradient>
<linearGradient id="paint20_linear_4750_23159" x1="30.7322" y1="2.9812" x2="30.7322" y2="20.8096" gradientUnits="userSpaceOnUse">
<stop stop-color="#225FED"/>
<stop offset="1" stop-color="#162E67"/>
</linearGradient>
<linearGradient id="paint21_linear_4750_23159" x1="34.318" y1="4.31372" x2="34.318" y2="19.4593" gradientUnits="userSpaceOnUse">
<stop stop-color="#225FED"/>
<stop offset="1" stop-color="#162E67"/>
</linearGradient>
<linearGradient id="paint22_linear_4750_23159" x1="16.3767" y1="3.95178" x2="16.3767" y2="9.866" gradientUnits="userSpaceOnUse">
<stop offset="0.00480769" stop-color="#225FED"/>
<stop offset="1" stop-color="#0D45C5"/>
</linearGradient>
<linearGradient id="paint23_linear_4750_23159" x1="16.3765" y1="10.506" x2="16.3765" y2="23.8366" gradientUnits="userSpaceOnUse">
<stop stop-color="#225FED"/>
<stop offset="1" stop-color="#162E67"/>
</linearGradient>
<linearGradient id="paint24_linear_4750_23159" x1="32.8554" y1="9.29979" x2="7.63773" y2="37.6317" gradientUnits="userSpaceOnUse">
<stop offset="0.355926" stop-color="#225FED"/>
<stop offset="1" stop-color="#133687"/>
</linearGradient>
<clipPath id="clip0_4750_23159">
<rect width="48" height="40" fill="white"/>
</clipPath>
</defs>
</svg>
