<svg width="100" height="20" viewBox="0 0 100 20" fill="none" xmlns="http://www.w3.org/2000/svg">
<path d="M11.8412 15.292L12.0288 15.2308C12.2165 15.1696 12.3084 15.0423 12.3084 14.8402C12.3084 14.7578 12.2354 14.462 12.0918 13.9603C11.9709 13.5372 11.8249 13.0392 11.6574 12.4651L11.5554 12.1168C11.3552 11.4354 11.1248 10.6691 10.8515 9.77294C10.5783 8.87931 10.3315 8.09178 10.0973 7.36415C9.85173 6.59908 9.63263 5.91512 9.44376 5.31105C9.28762 4.81681 9.168 4.4249 9.09245 4.16655L6.60935 14.9338L6.75793 15.2907H4.20181L4.38942 15.2296C4.57704 15.1684 4.66896 15.0411 4.66896 14.8389C4.66896 14.8177 4.63622 14.6804 4.41964 14.0089C4.25343 13.4922 4.04567 12.8557 3.80013 12.1019C3.55459 11.348 3.28638 10.5343 2.99551 9.66061L2.88723 9.33736C2.63539 8.58227 2.39237 7.85464 2.1569 7.15572C1.91892 6.44556 1.68219 5.74913 1.45302 5.0864C1.23141 4.44239 1.12438 4.12287 1.08408 3.98558C1.04001 3.84081 0.974536 3.70226 0.887653 3.57371C0.803288 3.4514 0.677372 3.37028 0.503605 3.32784L0.25177 3.26669H2.99929L2.83308 3.32659C2.66687 3.3865 2.58628 3.51506 2.58628 3.71849C2.58628 3.7759 2.62657 3.98185 2.81923 4.63085C2.9804 5.17626 3.18313 5.82277 3.42111 6.5529C3.64777 7.25058 3.91723 8.05933 4.2421 9.02659C4.54304 9.92147 4.82761 10.7727 5.09708 11.5802C5.39424 12.4725 5.62845 13.1553 5.8337 13.7294C6.03139 14.286 6.16108 14.6592 6.23537 14.8838C6.67483 13.0167 7.1445 11.1521 7.63306 9.33236C8.13169 7.47647 8.53085 5.55193 8.82172 3.61366L8.79276 3.51007L8.28028 3.26294H10.9724L10.8062 3.32286C10.64 3.38402 10.5594 3.51131 10.5594 3.71474C10.5594 3.81958 10.6324 4.13785 10.776 4.6608C10.912 5.15754 11.0933 5.78658 11.3275 6.5841C11.5655 7.39161 11.8337 8.27025 12.0641 9.02534C12.3323 9.89775 12.5892 10.734 12.8347 11.5315C13.0803 12.329 13.2981 13.0404 13.4882 13.6657C13.6544 14.2124 13.7829 14.623 13.8723 14.8888C13.9629 14.5319 14.0939 14.0614 14.2651 13.4872C14.4679 12.8033 14.6706 12.1019 14.867 11.4017C15.071 10.6778 15.2964 9.89401 15.5369 9.07402C15.7736 8.26776 15.9814 7.50768 16.1564 6.81249C16.3403 6.07737 16.4888 5.44834 16.6085 4.89044C16.7294 4.32631 16.7911 3.89947 16.7911 3.6199C16.7911 3.5238 16.752 3.45265 16.6714 3.40397C16.5871 3.3528 16.4914 3.32784 16.3869 3.32784V3.26544H17.918L17.6662 3.32659C17.4962 3.36778 17.3728 3.45016 17.2998 3.56998C17.2242 3.69479 17.1625 3.84455 17.1197 4.01429L14.2387 14.9425C14.2198 15.0174 14.2337 15.076 14.2803 15.1222C14.3331 15.1734 14.3911 15.2083 14.4515 15.2283L14.6404 15.2895H11.8312L11.8412 15.292Z" fill="white"/>
<path d="M10.8025 3.29702C10.6237 3.36192 10.5343 3.50171 10.5343 3.71763C10.5343 3.82621 10.6073 4.14322 10.7521 4.67116C10.8969 5.1991 11.082 5.84062 11.3049 6.59446C11.5278 7.34955 11.7746 8.16205 12.0415 9.0357C12.3097 9.90811 12.5666 10.7443 12.8121 11.5419C13.0577 12.3394 13.2755 13.0508 13.4656 13.6761C13.6558 14.3014 13.7955 14.7432 13.8849 15.0015C13.9743 14.6359 14.1141 14.1341 14.3042 13.4976C14.4931 12.8623 14.6946 12.1671 14.9074 11.4121C15.1189 10.6582 15.3431 9.8819 15.5773 9.08438C15.8115 8.28686 16.018 7.53301 16.1968 6.82161C16.3756 6.1102 16.5267 5.46994 16.6488 4.89832C16.7722 4.32795 16.8327 3.90109 16.8327 3.62152C16.8327 3.51419 16.7873 3.43307 16.6979 3.3794C16.6085 3.32573 16.5078 3.29827 16.397 3.29827H17.67C17.4912 3.34196 17.3628 3.42808 17.2847 3.55663C17.2054 3.68643 17.1449 3.83745 17.1009 4.00969L14.2199 14.9379C14.1985 15.024 14.2148 15.0939 14.2702 15.1476C14.3256 15.2012 14.3874 15.2399 14.4541 15.2611H12.0428C12.243 15.1962 12.3437 15.0565 12.3437 14.8405C12.3437 14.7544 12.2707 14.4586 12.1259 13.9519C11.9811 13.4452 11.801 12.8311 11.5907 12.1085C11.3792 11.3871 11.1437 10.6046 10.8868 9.76459C10.63 8.92463 10.3781 8.12086 10.1326 7.35579C9.88705 6.59071 9.66796 5.90677 9.47908 5.3027C9.28894 4.69988 9.16051 4.27926 9.09377 4.04212L6.58171 14.9379L6.71645 15.2611H4.40586C4.60607 15.1962 4.7068 15.0565 4.7068 14.8405C4.7068 14.7981 4.62243 14.5173 4.45622 14.0006C4.29001 13.4839 4.08225 12.8473 3.83671 12.0935C3.59117 11.3397 3.32296 10.5259 3.0321 9.65226C2.74123 8.77985 2.46295 7.94489 2.19474 7.14612C1.92654 6.3486 1.69107 5.6584 1.49086 5.07679C1.29066 4.49518 1.16599 4.12826 1.12192 3.97724C1.07659 3.82622 1.00986 3.68643 0.921714 3.55663C0.832313 3.42683 0.697581 3.34196 0.520037 3.29827H2.83063C2.65182 3.36317 2.56242 3.50296 2.56242 3.71888C2.56242 3.80499 2.64049 4.11202 2.79663 4.63996C2.95277 5.1679 3.15298 5.80942 3.39978 6.56326C3.64532 7.31835 3.91981 8.14208 4.22076 9.03695C4.5217 9.93183 4.80628 10.783 5.07574 11.5905C5.3452 12.398 5.58948 13.1157 5.81236 13.741C6.03523 14.3663 6.1813 14.7869 6.24803 15.0015C6.69378 13.1045 7.16849 11.2174 7.67216 9.34274C8.17583 7.46812 8.57121 5.55981 8.86208 3.62029L8.82808 3.49048L8.42641 3.29702H10.805M11.1563 3.23462H8.14939L8.39619 3.3532L8.77268 3.53416L8.79534 3.62402C8.50447 5.5573 8.10532 7.47561 7.6092 9.32777C7.12946 11.1138 6.6686 12.9435 6.2367 14.7694C6.15989 14.5423 6.04153 14.204 5.87028 13.721C5.66503 13.1469 5.43083 12.4629 5.13366 11.5718C4.81761 10.6233 4.54562 9.81202 4.27868 9.01824C3.95381 8.05223 3.68435 7.24346 3.4577 6.54454C3.21971 5.81316 3.01699 5.16665 2.85581 4.62249C2.65434 3.94228 2.62412 3.76505 2.62412 3.71888C2.62412 3.52792 2.69589 3.41309 2.85077 3.35693L3.1832 3.23587H0L0.50241 3.35943C0.668621 3.40061 0.788242 3.47675 0.867571 3.59282C0.951935 3.71763 1.01741 3.85366 1.06022 3.99595C1.10052 4.13448 1.20755 4.454 1.42916 5.09801C1.65581 5.75575 1.89254 6.45218 2.13304 7.16733C2.36725 7.86251 2.60775 8.5839 2.85833 9.334L2.97165 9.67349C3.24112 10.4835 3.51184 11.3047 3.77627 12.1147C4.02181 12.8686 4.22831 13.5051 4.39578 14.0218C4.60732 14.677 4.64132 14.8181 4.64384 14.8443C4.64384 15.0327 4.56199 15.1476 4.38571 15.205L4.00922 15.3273H6.80962L6.77437 15.2412L6.64719 14.9366L9.10133 4.29549C9.17688 4.5501 9.28517 4.89956 9.4199 5.32516C9.62137 5.96917 9.85306 6.69306 10.0734 7.37826C10.3064 8.1034 10.5532 8.89093 10.8277 9.7858C11.0996 10.6794 11.3301 11.4458 11.5315 12.1285L11.6272 12.4567C11.7972 13.0396 11.9445 13.5438 12.0667 13.9719C12.2442 14.5934 12.282 14.7894 12.282 14.843C12.282 15.0327 12.2002 15.1476 12.0239 15.2037L11.6474 15.326H14.852L14.473 15.2037C14.4163 15.185 14.3634 15.1526 14.3143 15.1051C14.2891 15.0814 14.2589 15.0402 14.2816 14.9554L17.1626 4.02715C17.2054 3.85991 17.2646 3.71388 17.3389 3.59032C17.4069 3.47674 17.524 3.39937 17.6851 3.36068L18.1875 3.23712H16.397V3.36193C16.4952 3.36193 16.5859 3.38563 16.6652 3.43431C16.7357 3.47674 16.7697 3.5379 16.7697 3.62277C16.7697 3.89985 16.708 4.32544 16.5871 4.88708C16.4675 5.44497 16.3189 6.07401 16.1351 6.80788C15.9613 7.50181 15.7523 8.26314 15.5168 9.06815C15.2763 9.88814 15.0509 10.6719 14.8469 11.3971C14.6505 12.096 14.4478 12.7974 14.2451 13.4814C14.0902 14.0018 13.9668 14.4374 13.8774 14.7794C13.7905 14.5148 13.6734 14.1404 13.5273 13.6599C13.3372 13.0346 13.1194 12.3232 12.8738 11.5256C12.6283 10.7281 12.3714 9.89189 12.1032 9.01948C11.8728 8.26688 11.6046 7.38949 11.3666 6.57949C11.1311 5.78196 10.9511 5.15417 10.8151 4.65744C10.6728 4.13699 10.5997 3.82247 10.5997 3.72012C10.5997 3.52917 10.6715 3.41434 10.8264 3.35818L11.1588 3.23712L11.1563 3.23462Z" fill="white"/>
<path d="M25.8435 15.2881L26.1029 15.227C26.2704 15.187 26.3812 15.1059 26.4328 14.9873C26.487 14.8613 26.5147 14.724 26.5147 14.5792V8.209H20.6154V14.5792C20.6154 14.729 20.6419 14.8625 20.6973 14.9873C20.7489 15.1072 20.8597 15.1883 21.0272 15.2282L21.2866 15.2894H18.4434L18.7027 15.2282C18.8702 15.1883 18.981 15.1072 19.0327 14.9886C19.0868 14.8625 19.1145 14.7252 19.1145 14.5805V3.97677C19.1145 3.83199 19.0818 3.6947 19.0175 3.56989C18.9546 3.44883 18.8513 3.36894 18.7015 3.32776L18.4824 3.2666H21.279L21.0284 3.32776C20.861 3.36894 20.7489 3.45008 20.6985 3.56864C20.6444 3.6947 20.6167 3.83199 20.6167 3.97677V7.8246H26.5159V3.97677C26.5159 3.83199 26.4832 3.6947 26.419 3.56989C26.356 3.44883 26.2528 3.36894 26.1029 3.32776L25.8838 3.2666H28.6805L28.4299 3.32776C28.2624 3.36894 28.1503 3.45008 28.1 3.56864C28.0458 3.6947 28.0181 3.83199 28.0181 3.97677V14.5805C28.0181 14.7302 28.0446 14.8638 28.1 14.9886C28.1516 15.1084 28.2624 15.1895 28.4299 15.2295L28.6893 15.2906H25.8461L25.8435 15.2881Z" fill="white"/>
<path d="M28.4196 3.29531C28.2408 3.339 28.1237 3.42512 28.0683 3.55368C28.0129 3.68348 27.9839 3.82326 27.9839 3.97428V14.578C27.9839 14.729 28.0116 14.8688 28.0683 14.9986C28.1237 15.1284 28.242 15.2145 28.4196 15.2569H26.109C26.2878 15.2145 26.4049 15.1271 26.4603 14.9986C26.5157 14.8688 26.5447 14.729 26.5447 14.578V8.17656H20.5825V14.578C20.5825 14.729 20.6102 14.8688 20.6668 14.9986C20.7222 15.1284 20.8406 15.2145 21.0181 15.2569H18.7076C18.8864 15.2145 19.0035 15.1271 19.0589 14.9986C19.1143 14.8688 19.1432 14.729 19.1432 14.578V3.97428C19.1432 3.82326 19.1092 3.68348 19.0425 3.55368C18.9758 3.42388 18.8637 3.339 18.7076 3.29531H21.0181C20.8393 3.339 20.7222 3.42512 20.6668 3.55368C20.6114 3.68348 20.5825 3.82326 20.5825 3.97428V7.85331H26.5447V3.97428C26.5447 3.82326 26.5107 3.68348 26.4439 3.55368C26.3772 3.42388 26.2651 3.339 26.109 3.29531H28.4196ZM28.9371 3.23291H25.6532L26.0914 3.35522C26.2324 3.39391 26.3281 3.4688 26.3873 3.58238C26.4502 3.70469 26.4817 3.83325 26.4817 3.97428V7.79091H20.6454V3.97428C20.6454 3.83325 20.6719 3.70094 20.7248 3.57863C20.7726 3.4688 20.8733 3.39516 21.0333 3.35647L21.5357 3.23291H18.2517L18.6899 3.35522C18.831 3.39391 18.9267 3.4688 18.9858 3.58238C19.0488 3.70469 19.0803 3.83325 19.0803 3.97428V14.578C19.0803 14.719 19.0538 14.8513 19.0009 14.9736C18.9531 15.0835 18.8498 15.1583 18.6924 15.1958L18.1749 15.3194H21.5508L21.0333 15.1958C20.8733 15.1583 20.7726 15.0847 20.7248 14.9736C20.6719 14.8526 20.6454 14.7228 20.6454 14.578V8.23897H26.4817V14.578C26.4817 14.719 26.4553 14.8513 26.4024 14.9736C26.3545 15.0835 26.2513 15.1583 26.0939 15.1958L25.5764 15.3194H28.9522L28.4347 15.1958C28.2748 15.1583 28.174 15.0847 28.1262 14.9736C28.0733 14.8526 28.0469 14.7228 28.0469 14.578V3.97428C28.0469 3.83325 28.0733 3.70094 28.1262 3.57863C28.174 3.4688 28.2748 3.39516 28.4347 3.35647L28.9371 3.23291Z" fill="white"/>
<path d="M28.9924 15.2907L29.2518 15.2295C29.4206 15.1896 29.5565 15.1059 29.6535 14.9824C29.7517 14.8576 29.8222 14.7091 29.865 14.5406L32.7423 3.62483L32.5572 3.26538H35.0528L34.898 3.32529C34.7947 3.36523 34.7355 3.4164 34.7167 3.48255C34.6952 3.55743 34.6839 3.63356 34.6839 3.71594C34.6839 3.86571 34.7456 4.20145 34.8665 4.71067C34.9912 5.23362 35.1485 5.85267 35.3362 6.55284C35.5263 7.26425 35.7315 8.02931 35.9557 8.84805C36.1647 9.61562 36.3775 10.3869 36.6092 11.2082C36.8207 11.9633 37.0109 12.6422 37.1783 13.2451C37.337 13.8154 37.4591 14.2747 37.5309 14.5718C37.5725 14.7141 37.6279 14.8538 37.6959 14.9849C37.7588 15.1059 37.8759 15.1871 38.0434 15.227L38.3028 15.2882H35.7592L35.753 15.2258C35.8549 15.2058 35.9267 15.1621 35.9658 15.0947C36.0073 15.0236 36.0287 14.9362 36.0287 14.8351C36.0287 14.7103 35.9695 14.4108 35.8461 13.9215C35.724 13.441 35.583 12.9081 35.4268 12.3377L34.9748 10.689C34.835 10.181 34.7305 9.81407 34.6638 9.5969H34.3515C34.1513 9.5969 33.8881 9.61313 33.567 9.64558C33.2472 9.67803 32.9211 9.7317 32.6 9.80534C32.2713 9.88272 31.983 9.98257 31.7198 10.1099C31.4604 10.2359 31.2967 10.3932 31.2325 10.5779C31.1255 10.865 31.0109 11.1969 30.8812 11.5963C30.7565 11.9795 30.6382 12.3701 30.5299 12.7596C30.4191 13.1514 30.3246 13.5421 30.2453 13.9215C30.1672 14.2922 30.1282 14.6329 30.1282 14.9337C30.1282 15.0311 30.1672 15.101 30.2478 15.1484C30.3322 15.1996 30.4279 15.2258 30.5324 15.2258V15.2882H28.9937L28.9924 15.2907ZM31.3622 10.0437C31.5272 9.88771 31.7274 9.75541 31.9578 9.65182C32.2247 9.53326 32.5143 9.4409 32.8191 9.37475C33.12 9.30985 33.4172 9.26741 33.7269 9.24495C34.0216 9.22373 34.2898 9.21374 34.5429 9.2125L33.0747 3.57865L31.3609 10.0437H31.3622Z" fill="white"/>
<path d="M34.8854 3.29656C34.7733 3.34025 34.7066 3.39891 34.6851 3.4738C34.6637 3.54993 34.6511 3.6298 34.6511 3.71592C34.6511 3.86694 34.7116 4.20143 34.835 4.71813C34.9584 5.23484 35.1145 5.85014 35.3047 6.56155C35.4948 7.27296 35.7 8.03803 35.9242 8.85678C36.147 9.67552 36.3649 10.4631 36.5777 11.2169C36.7892 11.972 36.9794 12.6509 37.1468 13.2538C37.3156 13.8578 37.4314 14.2997 37.4981 14.5792C37.5422 14.7302 37.5989 14.87 37.6669 14.9998C37.7349 15.1296 37.857 15.2158 38.0358 15.2582H35.758C35.8688 15.237 35.9481 15.1883 35.9922 15.1122C36.0362 15.0373 36.0589 14.9449 36.0589 14.8376C36.0589 14.7078 35.9972 14.4008 35.8751 13.9165C35.7517 13.431 35.6132 12.9031 35.4558 12.3327C35.2996 11.7623 35.1485 11.2119 35.0037 10.684C34.8589 10.156 34.7531 9.7841 34.6851 9.56818H34.3502C34.15 9.56818 33.8856 9.5844 33.5632 9.61685C33.2384 9.6493 32.9147 9.70298 32.5924 9.77786C32.2675 9.85399 31.9729 9.95508 31.7047 10.0849C31.4365 10.2147 31.269 10.3757 31.201 10.5704C31.0889 10.8724 30.9718 11.2119 30.8497 11.5888C30.7263 11.9658 30.6092 12.3539 30.4984 12.7533C30.3863 13.1527 30.2919 13.5408 30.2138 13.9177C30.1345 14.2947 30.0967 14.6341 30.0967 14.9362C30.0967 15.0448 30.1408 15.1246 30.2314 15.1783C30.3208 15.232 30.4216 15.2594 30.5324 15.2594H29.2594C29.4382 15.217 29.5779 15.1296 29.6787 15.0011C29.7794 14.8725 29.8524 14.7215 29.8965 14.548L32.7775 3.61983H32.7762L32.61 3.29656H34.8879M31.3017 10.1498C31.4805 9.95633 31.7034 9.80032 31.9716 9.68051C32.2398 9.56194 32.5244 9.47084 32.8266 9.40594C33.1288 9.34104 33.4297 9.2986 33.7307 9.27613C34.0316 9.25491 34.3162 9.24368 34.5857 9.24368L33.0784 3.45632L31.303 10.1498M35.219 3.23416H32.5055L32.5521 3.32527L32.7082 3.62856L29.8335 14.5318C29.792 14.6965 29.7227 14.8413 29.627 14.9624C29.5339 15.081 29.4054 15.1596 29.243 15.1983L28.7255 15.3218H30.5299V15.197C30.4317 15.197 30.341 15.1733 30.2617 15.1246C30.1899 15.0822 30.1571 15.0223 30.1571 14.9362C30.1571 14.6379 30.1962 14.2997 30.273 13.9302C30.3511 13.5508 30.4468 13.1602 30.5563 12.7695C30.6646 12.3814 30.783 11.9907 30.9076 11.6076C31.0373 11.2094 31.1519 10.8774 31.2589 10.5916C31.3206 10.4144 31.4793 10.2621 31.7311 10.1411C31.993 10.0138 32.2789 9.91515 32.605 9.83902C32.9248 9.76538 33.2484 9.71171 33.5683 9.67926C33.8881 9.64681 34.1513 9.63058 34.349 9.63058H34.6373C34.704 9.85024 34.8073 10.2097 34.9408 10.7002L35.1586 11.4952L35.3928 12.3489C35.5489 12.9168 35.69 13.4485 35.8109 13.9315C35.9317 14.412 35.9922 14.7165 35.9922 14.8376C35.9922 14.9324 35.972 15.0148 35.933 15.081C35.899 15.1409 35.8348 15.1796 35.7416 15.197L35.7529 15.3206H38.5621L38.0446 15.197C37.8835 15.1583 37.7764 15.0847 37.7172 14.9711C37.6505 14.8413 37.5951 14.704 37.5535 14.5618C37.483 14.2672 37.3609 13.8079 37.2022 13.2375C37.036 12.6347 36.8459 11.9558 36.6331 11.2007C36.4001 10.3732 36.1861 9.60063 35.9796 8.84055C35.7882 8.13913 35.5968 7.43146 35.3601 6.54533C35.1724 5.84515 35.0151 5.22485 34.8917 4.70315C34.7418 4.07038 34.7103 3.81701 34.7103 3.71467C34.7103 3.63604 34.7204 3.56241 34.7418 3.49002C34.7582 3.43511 34.8111 3.39018 34.9042 3.35399L35.214 3.23291L35.219 3.23416ZM31.4188 9.9501L33.0759 3.70469L34.5026 9.18127C34.2595 9.18377 34.0052 9.19376 33.7244 9.21373C33.4134 9.23744 33.115 9.27988 32.8115 9.34478C32.5055 9.41093 32.2134 9.50453 31.9439 9.6231C31.745 9.71171 31.5687 9.82155 31.4176 9.9501H31.4188Z" fill="white"/>
<path d="M38.639 15.2882L38.8984 15.227C39.0659 15.1871 39.1767 15.1059 39.2283 14.9874C39.2825 14.8613 39.3102 14.724 39.3102 14.5793V3.97555C39.3102 3.83077 39.2774 3.69348 39.2132 3.56867C39.1503 3.44761 39.047 3.36772 38.8972 3.32654L38.6781 3.26538H41.4747L41.2241 3.32654C41.0567 3.36772 40.9446 3.44885 40.8942 3.56742C40.8401 3.69348 40.8124 3.83077 40.8124 3.97555V14.5793C40.8124 14.9062 40.9446 15.0648 41.2166 15.0648H42.0867C42.5085 15.0648 42.9643 15.0485 43.4415 15.0161C43.915 14.9836 44.3746 14.9025 44.8077 14.7752C45.2384 14.6466 45.63 14.4532 45.9712 14.1986C46.3099 13.9465 46.5605 13.5808 46.7141 13.114L46.7758 13.1277L46.4711 15.2894H38.6403L38.639 15.2882Z" fill="white"/>
<path d="M41.2167 3.29531C41.0379 3.339 40.9208 3.42512 40.8654 3.55368C40.81 3.68348 40.781 3.82326 40.781 3.97428V14.578C40.781 14.9225 40.9258 15.0947 41.2167 15.0947H42.0868C42.5111 15.0947 42.9632 15.0785 43.4429 15.046C43.9227 15.0136 44.381 14.9324 44.8167 14.8039C45.2524 14.6741 45.6427 14.4806 45.989 14.2223C46.3353 13.9639 46.5858 13.597 46.7432 13.1227L46.4423 15.2569H38.9061C39.0849 15.2145 39.202 15.1271 39.2574 14.9986C39.3128 14.8688 39.3418 14.729 39.3418 14.578V3.97428C39.3418 3.82326 39.3078 3.68348 39.241 3.55368C39.1743 3.42388 39.0622 3.339 38.9061 3.29531H41.2167ZM41.7342 3.23291H38.4503L38.8885 3.35522C39.0295 3.39391 39.1252 3.4688 39.1844 3.58238C39.2473 3.70469 39.2788 3.83325 39.2788 3.97428V14.578C39.2788 14.719 39.2524 14.8513 39.1995 14.9736C39.1516 15.0835 39.0484 15.1583 38.891 15.1958L38.3735 15.3194H46.4977L46.5052 15.2657L46.8062 13.1315L46.684 13.104C46.5317 13.5645 46.2861 13.924 45.9525 14.1736C45.6137 14.4257 45.2259 14.6179 44.7991 14.7452C44.3684 14.8725 43.9101 14.9524 43.4391 14.9849C42.9632 15.0173 42.5086 15.0335 42.0868 15.0335H41.2167C41.0568 15.0335 40.844 14.9861 40.844 14.5792V3.97553C40.844 3.83449 40.8704 3.70219 40.9233 3.57988C40.9712 3.47005 41.0719 3.39641 41.2318 3.35772L41.7342 3.23416V3.23291Z" fill="white"/>
<path d="M46.7811 15.2907L47.0405 15.2295C47.2092 15.1896 47.3452 15.1059 47.4422 14.9824C47.5404 14.8576 47.6109 14.7091 47.6537 14.5406L50.531 3.62483L50.3459 3.26538H52.8415L52.6867 3.32529C52.5834 3.36523 52.5242 3.4164 52.5053 3.48255C52.4839 3.55743 52.4726 3.63356 52.4726 3.71594C52.4726 3.86571 52.5343 4.20145 52.6552 4.71067C52.7798 5.23486 52.9372 5.85391 53.1249 6.55284C53.315 7.26425 53.5202 8.02931 53.7444 8.84805C53.9534 9.61562 54.1662 10.3869 54.3979 11.2082C54.6094 11.9633 54.7996 12.6422 54.967 13.2451C55.1257 13.8142 55.2478 14.2735 55.3183 14.5718C55.3599 14.7141 55.4153 14.8538 55.4833 14.9849C55.5463 15.1059 55.6634 15.1871 55.8308 15.227L56.0902 15.2882H53.5467L53.5404 15.2258C53.6424 15.2058 53.7142 15.1621 53.7532 15.0947C53.7947 15.0236 53.8161 14.9362 53.8161 14.8351C53.8161 14.7103 53.757 14.4108 53.6336 13.9215C53.5127 13.441 53.3717 12.9081 53.2143 12.3377L52.7622 10.689C52.6224 10.1798 52.5179 9.81282 52.4512 9.5969H52.1389C51.9387 9.5969 51.6755 9.61313 51.3545 9.64558C51.0346 9.67803 50.7085 9.7317 50.3874 9.80534C50.0588 9.88272 49.7704 9.98257 49.5072 10.1099C49.2479 10.2359 49.0842 10.3932 49.0199 10.5779C48.9129 10.8662 48.7983 11.1994 48.6686 11.5963C48.5427 11.9807 48.4256 12.3726 48.3173 12.7596C48.2065 13.1514 48.1121 13.5421 48.0327 13.9215C47.9547 14.2922 47.9156 14.6329 47.9156 14.9337C47.9156 15.0311 47.9547 15.101 48.0353 15.1484C48.1196 15.1996 48.2153 15.2258 48.3198 15.2258V15.2882H46.7811V15.2907ZM49.1496 10.0437C49.3146 9.88646 49.5148 9.75541 49.7465 9.65182C50.0134 9.53326 50.303 9.4409 50.6078 9.37475C50.9087 9.30985 51.2059 9.26741 51.5156 9.24495C51.8103 9.22373 52.0785 9.21374 52.3328 9.2125L50.8646 3.57865L49.1509 10.0437H49.1496Z" fill="white"/>
<path d="M52.6739 3.29656C52.5618 3.34025 52.4951 3.39891 52.4737 3.4738C52.4523 3.54993 52.4397 3.6298 52.4397 3.71592C52.4397 3.86694 52.5001 4.20143 52.6235 4.71813C52.7469 5.23484 52.9031 5.85014 53.0932 6.56155C53.2833 7.27296 53.4886 8.03803 53.7127 8.85678C53.9356 9.67552 54.1534 10.4631 54.3662 11.2169C54.5778 11.972 54.7679 12.6509 54.9354 13.2538C55.1041 13.8578 55.22 14.2997 55.2867 14.5792C55.3308 14.7302 55.3874 14.87 55.4554 14.9998C55.5234 15.1296 55.6456 15.2158 55.8244 15.2582H53.5465C53.6573 15.237 53.7367 15.1883 53.7807 15.1122C53.8248 15.0373 53.8475 14.9449 53.8475 14.8376C53.8475 14.7078 53.7858 14.4008 53.6636 13.9165C53.5402 13.431 53.4017 12.9031 53.2443 12.3327C53.0882 11.7623 52.9371 11.2119 52.7923 10.684C52.6475 10.156 52.5417 9.7841 52.4737 9.56818H52.1388C51.9385 9.56818 51.6741 9.5844 51.3518 9.61685C51.0269 9.6493 50.7033 9.70298 50.381 9.77786C50.0561 9.85399 49.7614 9.95508 49.4932 10.0849C49.225 10.2147 49.0575 10.3757 48.9896 10.5704C48.8775 10.8724 48.7604 11.2119 48.6382 11.5888C48.5148 11.9658 48.3977 12.3539 48.2869 12.7533C48.1749 13.1527 48.0804 13.5408 48.0024 13.9177C47.923 14.2947 47.8853 14.6341 47.8853 14.9362C47.8853 15.0448 47.9293 15.1246 48.02 15.1783C48.1094 15.232 48.2101 15.2594 48.3209 15.2594H47.0479C47.2267 15.217 47.3665 15.1296 47.4672 15.0011C47.5679 14.8725 47.641 14.7215 47.685 14.548L50.566 3.61983H50.5648L50.3986 3.29656H52.6764M49.089 10.1498C49.2678 9.95633 49.4907 9.80032 49.7589 9.68051C50.0271 9.56194 50.3117 9.47084 50.6139 9.40594C50.9161 9.34104 51.217 9.2986 51.518 9.27613C51.8189 9.25491 52.1035 9.24368 52.373 9.24368L50.8657 3.45632L49.0903 10.1498M53.0063 3.23416H50.2928L50.3394 3.32527L50.4955 3.62856L47.6208 14.5318C47.5793 14.6965 47.51 14.8413 47.4143 14.9624C47.3211 15.081 47.1927 15.1596 47.0303 15.1983L46.5128 15.3218H48.3172V15.197C48.2189 15.197 48.1283 15.1733 48.049 15.1246C47.9772 15.0822 47.9444 15.0223 47.9444 14.9362C47.9444 14.6379 47.9835 14.2997 48.0603 13.9302C48.1384 13.5508 48.234 13.1602 48.3436 12.7695C48.4519 12.3814 48.5703 11.9907 48.6949 11.6076C48.8246 11.2094 48.9392 10.8774 49.0462 10.5916C49.1079 10.4144 49.2666 10.2621 49.5184 10.1411C49.7803 10.0138 50.0662 9.91515 50.3923 9.83902C50.7121 9.76538 51.0357 9.71171 51.3556 9.67926C51.6754 9.64681 51.9385 9.63058 52.1362 9.63058H52.4246C52.4913 9.85024 52.5946 10.2097 52.728 10.7002L52.9471 11.499L53.1801 12.3489C53.3362 12.9168 53.4773 13.4485 53.5981 13.9315C53.719 14.412 53.7795 14.7165 53.7795 14.8376C53.7795 14.9324 53.7593 15.0148 53.7203 15.081C53.6863 15.1409 53.6221 15.1796 53.5289 15.197L53.5402 15.3206H56.3494L55.8319 15.197C55.6707 15.1583 55.5637 15.0847 55.5045 14.9711C55.4378 14.8413 55.3824 14.704 55.3408 14.5618C55.2703 14.2672 55.1482 13.8079 54.9895 13.2375C54.8233 12.6347 54.6332 11.9558 54.4204 11.2007C54.1874 10.3732 53.9734 9.60063 53.7669 8.84055C53.5755 8.13913 53.3841 7.43146 53.1474 6.54533C52.9597 5.84515 52.8023 5.22485 52.6789 4.70315C52.5291 4.07038 52.4964 3.81701 52.4964 3.71467C52.4964 3.63604 52.5064 3.56241 52.5278 3.49002C52.5442 3.43511 52.5971 3.39018 52.6903 3.35399L53.0013 3.23291L53.0063 3.23416ZM49.2074 9.9501L50.8645 3.70469L52.2911 9.18127C52.0481 9.18377 51.7937 9.19376 51.5129 9.21373C51.2019 9.23744 50.9035 9.27988 50.6 9.34478C50.2941 9.41093 50.0019 9.50453 49.7325 9.6231C49.5335 9.71171 49.3572 9.82155 49.2061 9.9501H49.2074Z" fill="white"/>
<path d="M65.5039 15.9335C64.7623 15.9335 64.1868 15.7737 63.7927 15.4567C63.3998 15.1422 63.0976 14.7366 62.8962 14.2486C62.6947 13.7618 62.5637 13.2364 62.5083 12.6885C62.4555 12.1643 62.3938 11.6426 62.3245 11.1384C62.2578 10.6591 62.152 10.2597 62.0084 9.95142C61.8662 9.64814 61.6395 9.50087 61.3172 9.50087C61.093 9.50087 60.8248 9.52207 60.5176 9.56576C60.2053 9.60944 59.9094 9.68433 59.6374 9.79042C59.3604 9.89775 59.1224 10.0425 58.9272 10.221C58.7333 10.3995 58.6238 10.6254 58.6024 10.8962C58.5583 11.5015 58.5306 12.1218 58.518 12.7371C58.5067 13.3537 58.4777 13.974 58.4336 14.5818C58.4739 14.7154 58.5356 14.8539 58.6124 14.9837C58.6867 15.1072 58.8064 15.1871 58.9776 15.2271L59.2383 15.2882H56.3925L56.6519 15.2271C56.8194 15.1871 56.9302 15.106 56.9818 14.9862C57.036 14.8601 57.0637 14.7228 57.0637 14.5781V3.97311C57.0637 3.82833 57.0297 3.69104 56.9654 3.56623C56.9025 3.44517 56.7992 3.36528 56.6506 3.32409L56.4316 3.26294H62.186C62.6531 3.26294 63.1014 3.3291 63.5182 3.45765C63.9325 3.58745 64.3077 3.77965 64.6338 4.02801C64.9599 4.27888 65.2219 4.59216 65.4133 4.95909C65.6046 5.32853 65.7016 5.75661 65.7016 6.23338C65.7016 6.75383 65.5933 7.22561 65.3805 7.63747C65.1677 8.04934 64.8831 8.39506 64.5343 8.66589C64.1856 8.93673 63.7713 9.14515 63.3004 9.28494C62.9188 9.39851 62.5197 9.45968 62.1117 9.46717C62.4957 9.57949 62.8093 9.77669 63.0473 10.0588C63.3406 10.407 63.5723 10.8176 63.7398 11.2806C63.9073 11.7412 64.0533 12.2379 64.1767 12.7559C64.3001 13.2726 64.4462 13.7493 64.6112 14.1749C64.7748 14.598 65.0091 14.96 65.3075 15.247C65.6021 15.5316 66.0063 15.6751 66.5087 15.6751H66.6661L66.5213 15.735C66.2078 15.8648 65.8653 15.931 65.5039 15.931V15.9335ZM58.6867 3.4901C58.6061 3.63238 58.5659 3.79588 58.5659 3.9756V10.3508C58.6918 9.98262 58.9021 9.72177 59.1904 9.57325C59.5266 9.40102 59.9081 9.29118 60.3237 9.24625C60.7392 9.20382 61.1799 9.17636 61.6319 9.16513C62.0802 9.15514 62.5046 9.06902 62.8936 8.90926C63.2764 8.75076 63.5925 8.47245 63.833 8.0818C64.0747 7.6899 64.1969 7.07085 64.1969 6.23838C64.1969 5.94009 64.1629 5.62681 64.0962 5.3073C64.0294 4.98654 63.9123 4.68452 63.7486 4.41243C63.5849 4.13786 63.3747 3.9132 63.1216 3.74346C62.871 3.57622 62.5562 3.4901 62.1847 3.4901H58.6855H58.6867Z" fill="white"/>
<path d="M62.1856 3.29534C62.6553 3.29534 63.0947 3.36025 63.509 3.4888C63.922 3.6186 64.2897 3.80707 64.6145 4.05419C64.9381 4.30256 65.195 4.60958 65.3852 4.97527C65.5753 5.34221 65.6697 5.76281 65.6697 6.23583C65.6697 6.75254 65.564 7.21683 65.3512 7.6262C65.1396 8.03557 64.8601 8.37504 64.5138 8.64462C64.1675 8.91421 63.7596 9.1189 63.2899 9.25868C62.8844 9.37975 62.4626 9.4409 62.0244 9.4409C61.9552 9.4409 61.8859 9.43966 61.8154 9.43592C62.3291 9.52203 62.7308 9.73794 63.0217 10.0824C63.3113 10.4269 63.5417 10.8313 63.7079 11.2943C63.8767 11.7586 64.0215 12.2478 64.1436 12.7658C64.267 13.2825 64.4118 13.7568 64.5793 14.1886C64.7455 14.6204 64.981 14.9811 65.2832 15.272C65.5841 15.5628 65.9921 15.7088 66.5071 15.7088C66.1935 15.8386 65.8586 15.9022 65.5023 15.9022C64.7656 15.9022 64.2015 15.7462 63.8112 15.4329C63.4208 15.1209 63.1249 14.7215 62.9235 14.2373C62.7233 13.753 62.5936 13.2351 62.5382 12.6859C62.4828 12.1368 62.4211 11.6188 62.3543 11.1346C62.2876 10.6491 62.1806 10.2509 62.0357 9.93888C61.8897 9.62686 61.6504 9.46962 61.3155 9.46962C61.0914 9.46962 60.8244 9.49082 60.5109 9.53451C60.1973 9.57819 59.9014 9.65308 59.6232 9.76042C59.3436 9.869 59.1031 10.0138 58.9029 10.1972C58.7027 10.3807 58.5894 10.6128 58.568 10.8924C58.5226 11.5177 58.4949 12.1318 58.4836 12.7358C58.4723 13.3399 58.4446 13.954 58.3992 14.5793C58.4433 14.7303 58.505 14.8701 58.5831 14.9999C58.6611 15.1297 58.7883 15.2158 58.9684 15.2582H56.6578C56.8366 15.2158 56.9537 15.1284 57.0091 14.9999C57.0645 14.8701 57.0935 14.7303 57.0935 14.5793V3.97556H57.0922C57.0922 3.82329 57.0582 3.6835 56.9915 3.5537C56.9248 3.4239 56.8127 3.33903 56.6565 3.29534H62.1831M58.534 10.5704H58.5352C58.646 10.0961 58.8702 9.77289 59.2051 9.60066C59.5401 9.42842 59.914 9.32109 60.327 9.27741C60.7401 9.23497 61.1757 9.20751 61.6328 9.19628C62.0911 9.18629 62.5142 9.09894 62.9058 8.93793C63.2962 8.77568 63.6148 8.4961 63.8603 8.09796C64.1058 7.69982 64.2292 7.07954 64.2292 6.23833C64.2292 5.93629 64.1952 5.62427 64.1285 5.30102C64.0618 4.97777 63.9447 4.67573 63.7772 4.39616C63.611 4.11659 63.3969 3.88943 63.1413 3.7172C62.8844 3.54496 62.5659 3.45885 62.1868 3.45885H58.67C58.5806 3.60987 58.5352 3.7821 58.5352 3.97556V10.5704M62.1856 3.23294H56.2032L56.6414 3.35525C56.7825 3.39394 56.8782 3.46883 56.9373 3.58241C57.0003 3.70472 57.0318 3.83327 57.0318 3.97431V3.99926H57.033V14.5793C57.033 14.7203 57.0066 14.8526 56.9537 14.9749C56.9059 15.0847 56.8026 15.1596 56.6452 15.1971L56.1277 15.3206H59.5073L58.986 15.1971C58.8223 15.1584 58.709 15.0835 58.6397 14.9674C58.5655 14.8426 58.5063 14.7103 58.466 14.5718C58.51 13.9677 58.5378 13.3511 58.5491 12.7358C58.5604 12.1205 58.5894 11.5015 58.6334 10.8962C58.6536 10.6353 58.7594 10.4144 58.9482 10.2422C59.1396 10.0662 59.3764 9.92391 59.6483 9.81782C59.9191 9.71298 60.2125 9.63934 60.521 9.59566C60.8269 9.55323 61.0939 9.53077 61.3168 9.53077C61.6265 9.53077 61.8431 9.67305 61.9803 9.96385C62.1214 10.2684 62.2271 10.6653 62.2926 11.142C62.3606 11.645 62.4223 12.1667 62.4765 12.6909C62.5319 13.2413 62.6628 13.7693 62.8668 14.2598C63.0708 14.7528 63.3755 15.1634 63.7721 15.4804C64.1713 15.8011 64.7543 15.9634 65.5035 15.9634C65.8687 15.9634 66.2149 15.8972 66.5323 15.7649L66.8219 15.6451H66.5083C66.0135 15.6451 65.6168 15.5041 65.3285 15.2258C65.0338 14.9412 64.8022 14.5843 64.6397 14.1649C64.4748 13.7406 64.3287 13.2638 64.2066 12.7496C64.0832 12.2316 63.9371 11.7349 63.7684 11.2718C63.6009 10.8063 63.3654 10.3919 63.0708 10.0412C62.8643 9.79661 62.5999 9.61314 62.2838 9.49457C62.6339 9.4746 62.9776 9.41594 63.3075 9.31734C63.7822 9.17631 64.2003 8.96538 64.5516 8.69205C64.9041 8.41872 65.1912 8.06802 65.4066 7.65365C65.6219 7.23679 65.7314 6.76003 65.7314 6.23458C65.7314 5.75282 65.6332 5.3185 65.4406 4.94532C65.2479 4.57339 64.9822 4.25637 64.6523 4.00301C64.3237 3.75215 63.9447 3.5587 63.5266 3.42765C63.1073 3.29785 62.6553 3.23169 62.1843 3.23169L62.1856 3.23294ZM58.7052 3.52125H62.1856C62.5495 3.52125 62.8592 3.60487 63.1048 3.76837C63.3528 3.93561 63.5606 4.15653 63.7218 4.42736C63.8842 4.69695 64.0001 4.99524 64.0655 5.3135C64.131 5.63051 64.165 5.94254 64.165 6.23833C64.165 7.06456 64.0441 7.67862 63.8061 8.06552C63.5694 8.44993 63.2571 8.7245 62.8806 8.88051C62.4966 9.03902 62.076 9.12389 61.6315 9.13388C61.1795 9.14511 60.7375 9.17257 60.3207 9.215C59.9002 9.25993 59.5149 9.36977 59.1762 9.5445C58.9218 9.67555 58.7279 9.88897 58.5969 10.1835V3.97431C58.5969 3.80706 58.6335 3.65355 58.7052 3.52V3.52125Z" fill="white"/>
<path d="M73.2742 15.2894C72.3588 15.2894 71.5265 15.1359 70.7999 14.8339C70.0721 14.5306 69.4488 14.1038 68.9464 13.5658C68.4453 13.0304 68.0549 12.3852 67.7842 11.6488C67.516 10.9149 67.38 10.1174 67.38 9.27743C67.38 8.43747 67.516 7.63994 67.7842 6.90607C68.0524 6.17345 68.4427 5.52819 68.9464 4.98777C69.4513 4.44735 70.0746 4.0205 70.7999 3.71971C71.5252 3.41768 72.3588 3.26416 73.2742 3.26416C74.1896 3.26416 75.0232 3.41768 75.7485 3.71971C76.4738 4.02175 77.0971 4.4486 77.602 4.98777C78.1031 5.52569 78.4947 6.17095 78.7642 6.90482C79.0324 7.63869 79.1684 8.43622 79.1684 9.27618C79.1684 10.1161 79.0324 10.9124 78.7642 11.6463C78.496 12.3814 78.1044 13.0267 77.602 13.5646C77.0971 14.105 76.4738 14.5319 75.7485 14.8326C75.0219 15.1347 74.1896 15.2882 73.2742 15.2882V15.2894ZM73.2755 3.49007C72.457 3.49007 71.7645 3.6673 71.2155 4.01801C70.6627 4.36997 70.2094 4.82927 69.8681 5.38217C69.5256 5.93632 69.2738 6.56285 69.1177 7.24804C68.9628 7.93075 68.8847 8.61345 68.8847 9.27868C68.8847 9.9439 68.9628 10.6254 69.1177 11.3081C69.2725 11.9933 69.5256 12.621 69.8681 13.1727C70.2106 13.7281 70.6639 14.1861 71.2142 14.5368C71.7632 14.8876 72.4557 15.0648 73.2742 15.0648C74.0927 15.0648 74.784 14.8876 75.3342 14.5368C75.8857 14.1849 76.339 13.7256 76.6815 13.1727C77.024 12.6198 77.2759 11.992 77.432 11.3081C77.5869 10.6266 77.6649 9.9439 77.6649 9.27868C77.6649 8.61345 77.5869 7.93699 77.432 7.24804C77.2771 6.5641 77.024 5.9363 76.6815 5.3834C76.339 4.8305 75.8857 4.37122 75.3342 4.01926C74.784 3.66854 74.0914 3.49132 73.2742 3.49132L73.2755 3.49007Z" fill="white"/>
<path d="M73.274 3.29653C74.1894 3.29653 75.0104 3.44755 75.7357 3.74959C76.461 4.05163 77.0755 4.47223 77.5779 5.01015C78.0815 5.54932 78.4656 6.1846 78.7338 6.91722C79.002 7.64985 79.1355 8.43614 79.1355 9.27735C79.1355 10.1186 79.0007 10.9049 78.7338 11.6375C78.4656 12.3701 78.0803 13.0066 77.5779 13.5445C77.0742 14.0837 76.461 14.5043 75.7357 14.8051C75.0104 15.1071 74.1894 15.2582 73.274 15.2582C72.3586 15.2582 71.5376 15.1071 70.8123 14.8051C70.087 14.5031 69.4726 14.0837 68.9701 13.5445C68.4677 13.0066 68.0824 12.3701 67.8142 11.6375C67.546 10.9049 67.4125 10.1186 67.4125 9.27735C67.4125 8.43614 67.5473 7.64985 67.8142 6.91722C68.0824 6.1846 68.4677 5.54932 68.9701 5.01015C69.4738 4.47223 70.0858 4.05163 70.8123 3.74959C71.5376 3.44755 72.3586 3.29653 73.274 3.29653ZM73.2753 15.0959C74.1013 15.0959 74.7938 14.9187 75.3517 14.563C75.9095 14.2073 76.3615 13.7492 76.7078 13.1888C77.0541 12.6284 77.3046 12.0032 77.462 11.3142C77.6182 10.6253 77.6962 9.94632 77.6962 9.27735C77.6962 8.60838 77.6169 7.93066 77.462 7.24047C77.3059 6.55153 77.0541 5.92625 76.7078 5.36587C76.3615 4.80548 75.9082 4.34743 75.3517 3.99173C74.7926 3.63602 74.1013 3.45879 73.2753 3.45879C72.4492 3.45879 71.7554 3.63602 71.1989 3.99173C70.6398 4.34743 70.1878 4.80548 69.8428 5.36587C69.4965 5.92625 69.2459 6.55153 69.0885 7.24047C68.9324 7.93066 68.8543 8.60963 68.8543 9.27735C68.8543 9.94507 68.9324 10.624 69.0885 11.3142C69.2446 12.0044 69.4965 12.6297 69.8428 13.1888C70.189 13.7492 70.6411 14.2073 71.1989 14.563C71.7567 14.9187 72.4492 15.0959 73.2753 15.0959ZM73.274 3.23413C72.3536 3.23413 71.5175 3.38765 70.7871 3.69218C70.0581 3.99547 69.431 4.4248 68.9223 4.96772C68.4161 5.51063 68.022 6.15965 67.7538 6.89602C67.4843 7.63363 67.3483 8.4349 67.3483 9.27735C67.3483 10.1198 67.4843 10.9211 67.7538 11.6587C68.0258 12.4 68.4186 13.0478 68.9223 13.587C69.4272 14.1287 70.0556 14.558 70.7871 14.8625C71.5175 15.1658 72.3536 15.3206 73.274 15.3206C74.1945 15.3206 75.0306 15.1671 75.7609 14.8625C76.4912 14.5605 77.1183 14.1311 77.6257 13.587C78.1319 13.0466 78.5248 12.3976 78.7942 11.6587C79.0637 10.9211 79.1997 10.1198 79.1997 9.27735C79.1997 8.4349 79.0637 7.63363 78.7942 6.89602C78.5235 6.15715 78.1294 5.50814 77.6257 4.96772C77.1183 4.4248 76.4912 3.99547 75.7609 3.69218C75.0306 3.3889 74.1945 3.23413 73.274 3.23413ZM73.2753 15.0335C72.4631 15.0335 71.7768 14.8575 71.2329 14.5106C70.6864 14.1623 70.2369 13.7068 69.8956 13.1564C69.5557 12.6072 69.3038 11.9832 69.1489 11.3005C68.9941 10.6203 68.916 9.93883 68.916 9.27735C68.916 8.61587 68.9941 7.93442 69.1489 7.25421C69.3038 6.57401 69.5544 5.94872 69.8956 5.39832C70.2344 4.84916 70.6839 4.3936 71.2329 4.04414C71.7768 3.69717 72.4644 3.5212 73.2753 3.5212C74.0862 3.5212 74.7724 3.69717 75.3177 4.04414C75.8654 4.3936 76.3149 4.84916 76.6549 5.39832C76.9949 5.94872 77.2467 6.57276 77.4016 7.25421C77.5565 7.94066 77.6345 8.62086 77.6345 9.27735C77.6345 9.93384 77.5565 10.6215 77.4016 11.3005C77.2467 11.9807 76.9961 12.606 76.6549 13.1564C76.3149 13.7055 75.8654 14.1611 75.3177 14.5106C74.7724 14.8575 74.0849 15.0335 73.2753 15.0335Z" fill="white"/>
<path d="M89.0515 15.9335C88.3099 15.9335 87.7344 15.7737 87.3403 15.4567C86.9474 15.1422 86.6452 14.7366 86.4438 14.2486C86.2423 13.7618 86.1113 13.2364 86.0559 12.6885C86.0031 12.1643 85.9414 11.6426 85.8721 11.1384C85.8054 10.6591 85.6996 10.2597 85.556 9.95142C85.4138 9.64814 85.1871 9.50087 84.8648 9.50087C84.6406 9.50087 84.3724 9.52207 84.0652 9.56576C83.7529 9.60944 83.457 9.68433 83.185 9.79042C82.908 9.89775 82.67 10.0425 82.4748 10.221C82.2809 10.3995 82.1714 10.6254 82.15 10.8962C82.1059 11.5028 82.0782 12.1218 82.0656 12.7371C82.0543 13.3549 82.0253 13.9752 81.9812 14.5818C82.0228 14.7154 82.0832 14.8539 82.1601 14.9837C82.2343 15.1072 82.354 15.1871 82.5252 15.2271L82.7859 15.2882H79.9401L80.1995 15.2271C80.367 15.1871 80.4778 15.106 80.5294 14.9862C80.5836 14.8601 80.6113 14.7228 80.6113 14.5781V3.97311C80.6113 3.82833 80.5773 3.69229 80.513 3.56623C80.4501 3.44517 80.3468 3.36528 80.197 3.32409L79.9779 3.26294H85.7323C86.1995 3.26294 86.6478 3.3291 87.0645 3.45765C87.4788 3.58745 87.854 3.77965 88.1802 4.02801C88.5063 4.27888 88.7682 4.59216 88.9596 4.95909C89.151 5.32853 89.2479 5.75661 89.2479 6.23338C89.2479 6.75383 89.1397 7.22561 88.9269 7.63747C88.7141 8.04934 88.4282 8.39506 88.0807 8.66589C87.7319 8.93673 87.3176 9.14515 86.8467 9.28494C86.4652 9.39851 86.066 9.45968 85.658 9.46717C86.0421 9.57949 86.3556 9.77669 86.5936 10.0588C86.887 10.407 87.1187 10.8176 87.2862 11.2806C87.4536 11.7424 87.6009 12.2392 87.7231 12.7559C87.8452 13.2713 87.9913 13.7493 88.1575 14.1749C88.3212 14.598 88.5554 14.96 88.8538 15.247C89.1485 15.5316 89.5527 15.6751 90.0551 15.6751H90.2125L90.0677 15.735C89.7541 15.8648 89.4116 15.931 89.0503 15.931L89.0515 15.9335ZM82.2356 3.4901C82.155 3.63238 82.1147 3.79588 82.1147 3.9756V10.3508C82.2406 9.98262 82.4509 9.72177 82.7393 9.57325C83.0755 9.40102 83.457 9.28994 83.8725 9.24625C84.2881 9.20382 84.7288 9.17636 85.1808 9.16513C85.6291 9.15514 86.0534 9.06902 86.4425 8.90926C86.8253 8.75076 87.1414 8.47245 87.3819 8.0818C87.6236 7.6899 87.7458 7.07085 87.7458 6.23838C87.7458 5.94009 87.7118 5.62681 87.645 5.3073C87.5783 4.98654 87.4612 4.68452 87.2975 4.41243C87.1338 4.13786 86.9235 3.9132 86.6704 3.74346C86.4198 3.57622 86.1051 3.4901 85.7336 3.4901H82.2343H82.2356Z" fill="white"/>
<path d="M85.7348 3.29534C86.2045 3.29534 86.6439 3.36025 87.0582 3.4888C87.4712 3.6186 87.8389 3.80707 88.1637 4.05419C88.4873 4.30256 88.7442 4.60958 88.9343 4.97527C89.1245 5.34221 89.2189 5.76281 89.2189 6.23583C89.2189 6.75254 89.1131 7.21683 88.9003 7.6262C88.6888 8.03557 88.4093 8.37504 88.063 8.64462C87.7167 8.91421 87.3087 9.1189 86.8391 9.25868C86.4336 9.37975 86.0118 9.4409 85.5736 9.4409C85.5044 9.4409 85.4351 9.43966 85.3646 9.43592C85.8783 9.52203 86.28 9.73794 86.5709 10.0824C86.8605 10.4269 87.0909 10.8313 87.2571 11.2943C87.4259 11.7586 87.5707 12.2478 87.6928 12.7658C87.8162 13.2825 87.961 13.7568 88.1285 14.1886C88.2947 14.6204 88.5302 14.9811 88.8324 15.272C89.1333 15.5628 89.5413 15.7088 90.0563 15.7088C89.7427 15.8386 89.4078 15.9022 89.0515 15.9022C88.3148 15.9022 87.7507 15.7462 87.3604 15.4329C86.97 15.1209 86.6741 14.7215 86.4727 14.2373C86.2725 13.753 86.1428 13.2351 86.0874 12.6859C86.0319 12.1368 85.9703 11.6188 85.9035 11.1346C85.8368 10.6491 85.7297 10.2509 85.5849 9.93888C85.4389 9.62686 85.1996 9.46962 84.8647 9.46962C84.6406 9.46962 84.3736 9.49082 84.0601 9.53451C83.7465 9.57819 83.4506 9.65308 83.1724 9.76042C82.8928 9.869 82.6523 10.0138 82.4521 10.1972C82.2519 10.3807 82.1386 10.6128 82.1172 10.8924C82.0718 11.5177 82.0441 12.1318 82.0328 12.7358C82.0215 13.3399 81.9938 13.954 81.9484 14.5793C81.9925 14.7303 82.0542 14.8701 82.1323 14.9999C82.2103 15.1297 82.3375 15.2158 82.5176 15.2582H80.207C80.3858 15.2158 80.5029 15.1284 80.5583 14.9999C80.6137 14.8701 80.6427 14.7303 80.6427 14.5793V3.97556H80.6414C80.6414 3.82329 80.6074 3.6835 80.5407 3.5537C80.474 3.4239 80.3619 3.33903 80.2057 3.29534H85.7323M82.0832 10.5704H82.0844C82.1952 10.0961 82.4194 9.77289 82.7543 9.60066C83.0893 9.42842 83.4632 9.32109 83.8762 9.27741C84.2893 9.23497 84.7249 9.20751 85.182 9.19628C85.6404 9.18629 86.0634 9.09894 86.455 8.93793C86.8454 8.77568 87.1639 8.4961 87.4095 8.09796C87.655 7.69982 87.7784 7.07954 87.7784 6.23833C87.7784 5.93629 87.7444 5.62427 87.6777 5.30102C87.611 4.97777 87.4938 4.67573 87.3264 4.39616C87.1602 4.11659 86.9461 3.88943 86.6905 3.7172C86.4336 3.54496 86.1151 3.45885 85.7361 3.45885H82.2192C82.1298 3.60987 82.0844 3.7821 82.0844 3.97556V10.5704M85.7348 3.23294H79.7524L80.1906 3.35525C80.3317 3.39394 80.4274 3.46883 80.4865 3.58241C80.5495 3.70472 80.581 3.83327 80.581 3.97431V3.99926H80.5822V14.5793C80.5822 14.7203 80.5558 14.8526 80.5029 14.9749C80.4551 15.0847 80.3518 15.1596 80.1944 15.1971L79.6769 15.3206H83.0565L82.5352 15.1971C82.3715 15.1584 82.2582 15.0835 82.1889 14.9674C82.1147 14.8426 82.0555 14.7103 82.0152 14.5718C82.0593 13.9677 82.087 13.3511 82.0983 12.7358C82.1096 12.1205 82.1386 11.5015 82.1826 10.8962C82.2028 10.6353 82.3086 10.4144 82.4974 10.2422C82.6888 10.0662 82.9256 9.92391 83.1975 9.81782C83.4683 9.71298 83.7617 9.63934 84.0701 9.59566C84.3761 9.55323 84.6431 9.53077 84.866 9.53077C85.1757 9.53077 85.3923 9.67305 85.5295 9.96385C85.6706 10.2684 85.7763 10.6653 85.8418 11.142C85.9098 11.645 85.9715 12.1667 86.0257 12.6909C86.0811 13.2413 86.212 13.7693 86.416 14.2598C86.62 14.7528 86.9247 15.1634 87.3214 15.4804C87.7205 15.8011 88.3035 15.9634 89.0527 15.9634C89.4179 15.9634 89.7641 15.8972 90.0815 15.7649L90.3711 15.6451H90.0575C89.5627 15.6451 89.166 15.5041 88.8777 15.2258C88.583 14.9412 88.3514 14.5843 88.1889 14.1649C88.024 13.7406 87.8779 13.2638 87.7558 12.7496C87.6336 12.2316 87.4863 11.7349 87.3176 11.2718C87.1501 10.8063 86.9146 10.3919 86.62 10.0412C86.4135 9.79661 86.149 9.61314 85.833 9.49457C86.183 9.4746 86.5268 9.41594 86.8567 9.31734C87.3302 9.17631 87.7495 8.96538 88.1008 8.69205C88.4533 8.41872 88.7404 8.06802 88.9558 7.65365C89.1711 7.23679 89.2806 6.76003 89.2806 6.23458C89.2806 5.75282 89.1824 5.3185 88.9898 4.94532C88.7971 4.57339 88.5314 4.25637 88.2015 4.00301C87.8729 3.75215 87.4938 3.5587 87.0758 3.42765C86.6565 3.29785 86.2045 3.23169 85.7335 3.23169L85.7348 3.23294ZM82.2544 3.52125H85.7348C86.0987 3.52125 86.4084 3.60487 86.654 3.76837C86.902 3.93561 87.1098 4.15653 87.271 4.42736C87.4334 4.69695 87.5493 4.99524 87.6147 5.3135C87.6802 5.63051 87.7142 5.94254 87.7142 6.23833C87.7142 7.06456 87.5933 7.67862 87.3554 8.06552C87.1186 8.44993 86.8063 8.7245 86.4298 8.88051C86.0458 9.03902 85.6252 9.12389 85.1808 9.13388C84.7287 9.14511 84.2867 9.17257 83.8699 9.215C83.4494 9.25993 83.0641 9.36977 82.7254 9.5445C82.471 9.67555 82.2771 9.88897 82.1461 10.1835V3.97431C82.1461 3.80706 82.1827 3.65355 82.2544 3.52V3.52125Z" fill="white"/>
<path d="M90.4277 15.2907L90.6871 15.2295C90.8559 15.1896 90.9918 15.1059 91.0888 14.9824C91.187 14.8576 91.2575 14.7091 91.3004 14.5406L94.1776 3.62483L93.9925 3.26538H96.4882L96.3333 3.32529C96.23 3.36523 96.1708 3.4164 96.152 3.48255C96.1306 3.55743 96.1192 3.63356 96.1192 3.71594C96.1192 3.86571 96.1809 4.20145 96.3018 4.71067C96.4252 5.22987 96.5838 5.85017 96.7715 6.55284C96.9616 7.26425 97.1669 8.02931 97.391 8.84805C97.6 9.61562 97.8128 10.3869 98.0445 11.2082C98.256 11.9633 98.4462 12.6422 98.6136 13.2451C98.7736 13.8179 98.8944 14.2772 98.965 14.5718C99.0065 14.7141 99.0619 14.8538 99.1312 14.9849C99.1941 15.1059 99.3112 15.1871 99.4787 15.227L99.7381 15.2882H97.1946L97.1883 15.2258C97.2903 15.2058 97.362 15.1621 97.4011 15.0947C97.4426 15.0236 97.464 14.9362 97.464 14.8351C97.464 14.7103 97.4048 14.4108 97.2814 13.9215C97.1606 13.441 97.0195 12.9081 96.8621 12.3377L96.4101 10.689C96.2703 10.1798 96.1658 9.81282 96.0991 9.5969H95.7881C95.5878 9.5969 95.3247 9.61313 95.0036 9.64558C94.6838 9.67803 94.3576 9.7317 94.0365 9.80534C93.7079 9.88272 93.4195 9.98257 93.1564 10.1099C92.897 10.2359 92.7333 10.3932 92.6691 10.5779C92.562 10.8662 92.4475 11.1982 92.3178 11.5963C92.1918 11.9807 92.0747 12.3726 91.9665 12.7596C91.8557 13.1514 91.7612 13.5421 91.6819 13.9215C91.6038 14.2934 91.5648 14.6342 91.5648 14.9337C91.5648 15.0311 91.6038 15.101 91.6844 15.1484C91.7688 15.1996 91.8645 15.2258 91.969 15.2258V15.2882H90.4303L90.4277 15.2907ZM92.7963 10.0437C92.9612 9.88646 93.1614 9.75541 93.3931 9.65182C93.66 9.53326 93.9497 9.4409 94.2544 9.37475C94.5553 9.30985 94.8525 9.26741 95.1623 9.24495C95.4569 9.22373 95.7251 9.21374 95.9795 9.2125L94.5113 3.57865L92.7963 10.0437Z" fill="white"/>
<path d="M96.3207 3.29656C96.2087 3.34025 96.1419 3.39891 96.1205 3.4738C96.0991 3.54993 96.0865 3.6298 96.0865 3.71592C96.0865 3.86694 96.147 4.20143 96.2704 4.71813C96.3938 5.23484 96.5499 5.85014 96.74 6.56155C96.9302 7.27296 97.1354 8.03803 97.3596 8.85678C97.5824 9.67552 97.8003 10.4631 98.0131 11.2169C98.2246 11.972 98.4148 12.6509 98.5822 13.2538C98.751 13.8578 98.8668 14.2997 98.9335 14.5792C98.9776 14.7302 99.0343 14.87 99.1023 14.9998C99.1703 15.1296 99.2924 15.2158 99.4712 15.2582H97.1934C97.3042 15.237 97.3835 15.1883 97.4276 15.1122C97.4716 15.0373 97.4943 14.9449 97.4943 14.8376C97.4943 14.7078 97.4326 14.4008 97.3105 13.9165C97.1871 13.431 97.0486 12.9031 96.8912 12.3327C96.735 11.7623 96.5839 11.2119 96.4391 10.684C96.2943 10.156 96.1885 9.7841 96.1205 9.56818H95.7856C95.5854 9.56818 95.321 9.5844 94.9986 9.61685C94.6737 9.6493 94.3501 9.70298 94.0278 9.77786C93.7029 9.85399 93.4083 9.95508 93.1401 10.0849C92.8719 10.2147 92.7044 10.3757 92.6364 10.5704C92.5243 10.8724 92.4072 11.2119 92.2851 11.5888C92.1629 11.9658 92.0446 12.3539 91.9338 12.7533C91.8217 13.1527 91.7273 13.5408 91.6492 13.9177C91.5699 14.2947 91.5321 14.6341 91.5321 14.9362C91.5321 15.0448 91.5762 15.1246 91.6668 15.1783C91.7562 15.232 91.857 15.2594 91.9678 15.2594H90.6947C90.8735 15.217 91.0133 15.1296 91.1141 15.0011C91.2148 14.8725 91.2878 14.7215 91.3319 14.548L94.2129 3.61983H94.2116L94.0454 3.29656H96.3233M92.7359 10.1498C92.9147 9.95633 93.1375 9.80032 93.4057 9.68051C93.674 9.56194 93.9585 9.47084 94.2607 9.40594C94.5629 9.34104 94.8639 9.2986 95.1648 9.27613C95.4658 9.25491 95.7503 9.24368 96.0198 9.24368L94.5126 3.45632L92.7371 10.1498M96.6544 3.23416H93.9409L93.9875 3.32527L94.1449 3.62856L91.2702 14.5318C91.2286 14.6965 91.1594 14.8413 91.0637 14.9624C90.9705 15.081 90.8421 15.1596 90.6796 15.1983L90.1621 15.3218H91.9665V15.197C91.8683 15.197 91.7776 15.1733 91.6983 15.1246C91.6265 15.0822 91.5938 15.0223 91.5938 14.9362C91.5938 14.6379 91.6328 14.2997 91.7096 13.9302C91.7877 13.5508 91.8834 13.1602 91.993 12.7695C92.1012 12.3826 92.2184 11.9907 92.3443 11.6076C92.474 11.2094 92.5885 10.8774 92.6956 10.5916C92.7573 10.4144 92.9159 10.2621 93.1678 10.1411C93.4297 10.0138 93.7155 9.91515 94.0416 9.83902C94.3615 9.76538 94.6851 9.71171 95.0049 9.67926C95.3247 9.64681 95.5879 9.63058 95.7856 9.63058H96.074C96.1407 9.85024 96.2427 10.2097 96.3774 10.7002L96.589 11.469L96.8307 12.3489C96.9869 12.9168 97.1279 13.4497 97.2488 13.9315C97.3696 14.412 97.4301 14.7165 97.4301 14.8376C97.4301 14.9324 97.4099 15.0148 97.3709 15.081C97.3369 15.1409 97.2727 15.1796 97.1795 15.197L97.1908 15.3206H100L99.4825 15.197C99.3214 15.1583 99.2143 15.0847 99.1552 14.9711C99.0884 14.8413 99.033 14.704 98.9915 14.5618C98.9209 14.2672 98.7988 13.8079 98.6402 13.2375C98.4739 12.6347 98.2838 11.9558 98.071 11.2007C97.8381 10.372 97.624 9.60063 97.4175 8.84055C97.2261 8.14038 97.0347 7.43271 96.798 6.54533C96.6104 5.8439 96.453 5.22485 96.3296 4.70315C96.1797 4.07038 96.147 3.81701 96.147 3.71467C96.147 3.63604 96.1571 3.56241 96.1785 3.49002C96.1948 3.43511 96.2477 3.39018 96.3409 3.35399L96.6519 3.23291L96.6544 3.23416ZM92.8542 9.9501L94.5113 3.70469L95.938 9.18127C95.6949 9.18377 95.4406 9.19376 95.1598 9.21373C94.8488 9.23744 94.5503 9.27988 94.2469 9.34478C93.9409 9.41093 93.6488 9.50453 93.3793 9.6231C93.1804 9.71171 93.0041 9.82155 92.853 9.9501H92.8542Z" fill="white"/>
<path d="M77.4054 8.74321C73.0171 8.74321 73.0209 17.2976 73.0209 19.639C73.0209 17.2976 73.0171 8.74321 68.6289 8.74321C71.0553 8.74321 73.0209 8.79313 73.0209 0.361084C73.0209 8.77566 74.9865 8.74321 77.4054 8.74321Z" fill="#225FED"/>
</svg>
