<svg width="28" height="28" viewBox="0 0 28 28" fill="none" xmlns="http://www.w3.org/2000/svg">
<g clip-path="url(#clip0_4218_3011)">
<path d="M14 28C21.732 28 28 21.732 28 14C28 6.26801 21.732 0 14 0C6.26801 0 0 6.26801 0 14C0 21.732 6.26801 28 14 28Z" fill="#0D1E30"/>
<g filter="url(#filter0_d_4218_3011)">
<path d="M13.7595 5.30238C14.1786 5.08625 14.6905 5.58588 14.4682 5.998C14.3378 6.334 13.847 6.42325 13.5967 6.16688C13.3316 5.92188 13.4182 5.43538 13.7595 5.3015V5.30238ZM9.24885 5.78013C9.50347 5.67688 9.82635 5.90613 9.8001 6.18C9.82635 6.47575 9.45885 6.6945 9.19897 6.55363C8.8551 6.42238 8.89447 5.87288 9.24885 5.78013V5.78013ZM18.4871 6.5615C18.089 6.51425 18.026 5.89825 18.4083 5.774C18.7058 5.63225 18.9788 5.89913 19.0226 6.1765C18.9596 6.41275 18.7583 6.62975 18.4871 6.5615V6.5615ZM10.2752 7.66838C10.7013 7.40325 11.3086 7.79788 11.243 8.28525C11.2211 8.77613 10.5578 9.06138 10.1833 8.72888C9.8211 8.46813 9.87622 7.86963 10.2752 7.66838ZM16.7765 7.95013C16.9663 7.46888 17.7363 7.45313 17.9525 7.92213C18.1668 8.287 17.9035 8.73938 17.5228 8.86363C17.018 8.95638 16.5393 8.41913 16.7765 7.95013ZM13.2161 8.8365C13.2117 8.42175 13.595 8.11375 13.9948 8.08488C14.2608 8.13738 14.5496 8.2485 14.6633 8.51188C14.876 8.87588 14.687 9.3755 14.3046 9.54263C14.1296 9.63888 13.9213 9.603 13.7306 9.59163C13.4392 9.45163 13.1933 9.17425 13.2161 8.8365ZM6.50835 9.44025C6.89772 9.204 7.42272 9.63275 7.27485 10.0493C7.19435 10.4089 6.7026 10.555 6.42172 10.3258C6.1216 10.1105 6.16885 9.59338 6.50922 9.43938L6.50835 9.44025ZM20.9126 9.4385C21.2425 9.1865 21.7876 9.47613 21.7473 9.88563C21.7701 10.2593 21.2985 10.5419 20.9712 10.3494C20.6107 10.1893 20.5731 9.64325 20.9126 9.43938V9.4385ZM15.1026 10.1831C15.6468 9.99063 16.2943 10.2208 16.6041 10.6994C17.0136 11.283 16.7966 12.172 16.1605 12.5071C15.5025 12.9035 14.5408 12.5684 14.2967 11.8439C14.0211 11.1964 14.4236 10.3861 15.1017 10.1831H15.1026ZM11.9062 10.247C12.51 9.96701 13.3228 10.2015 13.6142 10.8088C13.9572 11.4003 13.6921 12.2236 13.0787 12.529C12.4645 12.8729 11.5973 12.6121 11.3007 11.9778C10.9673 11.3635 11.2631 10.5296 11.9062 10.247V10.247ZM8.70635 11.3224C8.75272 10.94 9.11935 10.6906 9.48947 10.6644C9.6825 10.6848 9.8629 10.77 10.0012 10.9062C10.1395 11.0425 10.2274 11.2216 10.2507 11.4143C10.2245 11.808 9.9156 12.1913 9.4921 12.1895C9.02572 12.2289 8.6171 11.7721 8.70635 11.3224V11.3224ZM18.1581 10.7484C18.6367 10.4745 19.3008 10.8726 19.2798 11.4134C19.3122 11.9865 18.5772 12.3899 18.1012 12.0539C17.606 11.7739 17.6445 10.9864 18.1581 10.7484ZM10.6068 12.767C11.1651 12.6156 11.8056 12.8746 12.0795 13.3804C12.3796 13.8896 12.2571 14.5966 11.7907 14.9711C11.1913 15.5189 10.088 15.2984 9.76947 14.5511C9.40285 13.866 9.84822 12.9473 10.606 12.7661L10.6068 12.767ZM16.668 12.7644C17.2113 12.6113 17.8501 12.8169 18.1423 13.3043C18.5291 13.8616 18.3445 14.6938 17.7696 15.0525C17.1658 15.4699 16.2331 15.2511 15.9006 14.5984C15.4981 13.9238 15.9032 12.97 16.668 12.7644V12.7644ZM7.00797 13.3996C7.49097 13.2203 8.02647 13.7444 7.83047 14.216C7.71147 14.6448 7.09635 14.804 6.77872 14.4873C6.40685 14.1898 6.54422 13.5291 7.00797 13.3996V13.3996ZM20.1058 14.0839C20.0968 13.8913 20.1641 13.7029 20.2933 13.5596C20.4224 13.4164 20.6028 13.33 20.7953 13.3191C21.1261 13.3716 21.4481 13.6341 21.4218 13.9885C21.4525 14.4566 20.8793 14.7743 20.4733 14.5546C20.2835 14.4593 20.1863 14.2676 20.1058 14.0839ZM4.63235 13.6324C4.92285 13.5073 5.28247 13.7549 5.21597 14.0725C5.20022 14.4321 4.66035 14.5713 4.4626 14.2703C4.2876 14.0611 4.3926 13.74 4.63235 13.6315V13.6324ZM22.9627 13.6245C23.1675 13.4819 23.4965 13.5843 23.577 13.8196C23.7143 14.0769 23.4623 14.4286 23.1683 14.3858C22.7553 14.4225 22.6223 13.8039 22.9627 13.6245ZM12.1853 15.3509C12.9501 15.1558 13.7726 15.7831 13.7778 16.5584C13.8268 17.3415 13.0166 18.0354 12.2343 17.8551C11.6288 17.7589 11.1537 17.1849 11.1738 16.5838C11.1721 16.008 11.6131 15.4725 12.1853 15.3509V15.3509ZM15.2146 15.35C15.9907 15.1365 16.8377 15.7753 16.8255 16.568C16.8666 17.3363 16.0817 18.0074 15.3152 17.8543C14.5933 17.7633 14.0613 16.9836 14.2626 16.2941C14.3641 15.8356 14.7543 15.4629 15.2146 15.3491V15.35ZM9.3731 15.8269C9.91035 15.7368 10.4143 16.3256 10.1965 16.8279C10.0372 17.3634 9.24622 17.5078 8.89622 17.0711C8.48672 16.6511 8.79297 15.8846 9.3731 15.8269V15.8269ZM18.2578 15.8505C18.7373 15.6528 19.3253 16.0605 19.2886 16.5724C19.3078 17.135 18.5816 17.5235 18.1135 17.1945C17.5823 16.8996 17.6795 16.0308 18.2578 15.8505V15.8505ZM20.7411 18.3005C20.5538 17.9566 20.8942 17.5008 21.2836 17.5646C21.4761 17.5611 21.6117 17.7108 21.7351 17.8368C21.7605 18.0406 21.8033 18.2839 21.631 18.4405C21.3973 18.7319 20.868 18.6488 20.7411 18.3005V18.3005ZM6.5066 17.66C6.86972 17.4229 7.3921 17.7773 7.30985 18.1938C7.2661 18.5639 6.7936 18.7748 6.48297 18.5648C6.14872 18.3749 6.16097 17.8333 6.5066 17.66V17.66ZM13.6755 18.4326C14.1506 18.227 14.7561 18.6339 14.7106 19.1484C14.7456 19.7171 13.9975 20.1109 13.5328 19.7696C13.0166 19.4765 13.1032 18.6138 13.6755 18.4326V18.4326ZM10.3557 19.1948C10.76 18.9856 11.3025 19.347 11.2657 19.7933C11.278 20.159 10.9157 20.4705 10.5482 20.4163C10.2446 20.4101 10.0468 20.1415 9.94885 19.8869C9.9541 19.6095 10.0705 19.3006 10.3557 19.1956V19.1948ZM17.081 19.2018C17.4975 18.948 18.089 19.312 18.0496 19.788C18.0601 20.2868 17.3916 20.6053 17.004 20.278C16.6295 20.0216 16.675 19.4056 17.081 19.2018ZM18.2508 22.0455C18.0653 21.7708 18.2832 21.4391 18.5833 21.3761C18.8257 21.4243 19.0821 21.6036 19.0305 21.8784C18.9955 22.252 18.4407 22.3658 18.2508 22.0464V22.0455ZM8.96622 21.8066C9.03972 21.5879 9.21822 21.3718 9.47985 21.4286C9.86047 21.4549 9.97335 22.0201 9.63997 22.1943C9.34072 22.3929 8.99247 22.1208 8.96622 21.8066ZM13.4462 22.0578C13.5188 21.734 13.9432 21.5774 14.2232 21.7489C14.4087 21.8276 14.463 22.0306 14.5102 22.2039C14.4853 22.2939 14.4619 22.3843 14.4402 22.4751C14.3256 22.6081 14.1777 22.742 13.987 22.7376C13.6326 22.7788 13.3123 22.3841 13.4453 22.0578H13.4462Z" fill="black"/>
</g>
<path d="M13.7595 5.30238C14.1786 5.08625 14.6905 5.58588 14.4682 5.998C14.3378 6.334 13.847 6.42325 13.5967 6.16688C13.3316 5.92188 13.4182 5.43538 13.7595 5.3015V5.30238ZM9.24885 5.78013C9.50347 5.67688 9.82635 5.90613 9.8001 6.18C9.82635 6.47575 9.45885 6.6945 9.19897 6.55363C8.8551 6.42238 8.89447 5.87288 9.24885 5.78013V5.78013ZM18.4871 6.5615C18.089 6.51425 18.026 5.89825 18.4083 5.774C18.7058 5.63225 18.9788 5.89913 19.0226 6.1765C18.9596 6.41275 18.7583 6.62975 18.4871 6.5615V6.5615ZM10.2752 7.66838C10.7013 7.40325 11.3086 7.79788 11.243 8.28525C11.2211 8.77613 10.5578 9.06138 10.1833 8.72888C9.8211 8.46813 9.87622 7.86963 10.2752 7.66838ZM16.7765 7.95013C16.9663 7.46888 17.7363 7.45313 17.9525 7.92213C18.1668 8.287 17.9035 8.73938 17.5228 8.86363C17.018 8.95638 16.5393 8.41913 16.7765 7.95013ZM13.2161 8.8365C13.2117 8.42175 13.595 8.11375 13.9948 8.08488C14.2608 8.13738 14.5496 8.2485 14.6633 8.51188C14.876 8.87588 14.687 9.3755 14.3046 9.54263C14.1296 9.63888 13.9213 9.603 13.7306 9.59163C13.4392 9.45163 13.1933 9.17425 13.2161 8.8365ZM6.50835 9.44025C6.89772 9.204 7.42272 9.63275 7.27485 10.0493C7.19435 10.4089 6.7026 10.555 6.42172 10.3258C6.1216 10.1105 6.16885 9.59338 6.50922 9.43938L6.50835 9.44025ZM20.9126 9.4385C21.2425 9.1865 21.7876 9.47613 21.7473 9.88563C21.7701 10.2593 21.2985 10.5419 20.9712 10.3494C20.6107 10.1893 20.5731 9.64325 20.9126 9.43938V9.4385ZM15.1026 10.1831C15.6468 9.99063 16.2943 10.2208 16.6041 10.6994C17.0136 11.283 16.7966 12.172 16.1605 12.5071C15.5025 12.9035 14.5408 12.5684 14.2967 11.8439C14.0211 11.1964 14.4236 10.3861 15.1017 10.1831H15.1026ZM11.9062 10.247C12.51 9.96701 13.3228 10.2015 13.6142 10.8088C13.9572 11.4003 13.6921 12.2236 13.0787 12.529C12.4645 12.8729 11.5973 12.6121 11.3007 11.9778C10.9673 11.3635 11.2631 10.5296 11.9062 10.247V10.247ZM8.70635 11.3224C8.75272 10.94 9.11935 10.6906 9.48947 10.6644C9.6825 10.6848 9.8629 10.77 10.0012 10.9062C10.1395 11.0425 10.2274 11.2216 10.2507 11.4143C10.2245 11.808 9.9156 12.1913 9.4921 12.1895C9.02572 12.2289 8.6171 11.7721 8.70635 11.3224V11.3224ZM18.1581 10.7484C18.6367 10.4745 19.3008 10.8726 19.2798 11.4134C19.3122 11.9865 18.5772 12.3899 18.1012 12.0539C17.606 11.7739 17.6445 10.9864 18.1581 10.7484ZM10.6068 12.767C11.1651 12.6156 11.8056 12.8746 12.0795 13.3804C12.3796 13.8896 12.2571 14.5966 11.7907 14.9711C11.1913 15.5189 10.088 15.2984 9.76947 14.5511C9.40285 13.866 9.84822 12.9473 10.606 12.7661L10.6068 12.767ZM16.668 12.7644C17.2113 12.6113 17.8501 12.8169 18.1423 13.3043C18.5291 13.8616 18.3445 14.6938 17.7696 15.0525C17.1658 15.4699 16.2331 15.2511 15.9006 14.5984C15.4981 13.9238 15.9032 12.97 16.668 12.7644V12.7644ZM7.00797 13.3996C7.49097 13.2203 8.02647 13.7444 7.83047 14.216C7.71147 14.6448 7.09635 14.804 6.77872 14.4873C6.40685 14.1898 6.54422 13.5291 7.00797 13.3996V13.3996ZM20.1058 14.0839C20.0968 13.8913 20.1641 13.7029 20.2933 13.5596C20.4224 13.4164 20.6028 13.33 20.7953 13.3191C21.1261 13.3716 21.4481 13.6341 21.4218 13.9885C21.4525 14.4566 20.8793 14.7743 20.4733 14.5546C20.2835 14.4593 20.1863 14.2676 20.1058 14.0839ZM4.63235 13.6324C4.92285 13.5073 5.28247 13.7549 5.21597 14.0725C5.20022 14.4321 4.66035 14.5713 4.4626 14.2703C4.2876 14.0611 4.3926 13.74 4.63235 13.6315V13.6324ZM22.9627 13.6245C23.1675 13.4819 23.4965 13.5843 23.577 13.8196C23.7143 14.0769 23.4623 14.4286 23.1683 14.3858C22.7553 14.4225 22.6223 13.8039 22.9627 13.6245ZM12.1853 15.3509C12.9501 15.1558 13.7726 15.7831 13.7778 16.5584C13.8268 17.3415 13.0166 18.0354 12.2343 17.8551C11.6288 17.7589 11.1537 17.1849 11.1738 16.5838C11.1721 16.008 11.6131 15.4725 12.1853 15.3509V15.3509ZM15.2146 15.35C15.9907 15.1365 16.8377 15.7753 16.8255 16.568C16.8666 17.3363 16.0817 18.0074 15.3152 17.8543C14.5933 17.7633 14.0613 16.9836 14.2626 16.2941C14.3641 15.8356 14.7543 15.4629 15.2146 15.3491V15.35ZM9.3731 15.8269C9.91035 15.7368 10.4143 16.3256 10.1965 16.8279C10.0372 17.3634 9.24622 17.5078 8.89622 17.0711C8.48672 16.6511 8.79297 15.8846 9.3731 15.8269V15.8269ZM18.2578 15.8505C18.7373 15.6528 19.3253 16.0605 19.2886 16.5724C19.3078 17.135 18.5816 17.5235 18.1135 17.1945C17.5823 16.8996 17.6795 16.0308 18.2578 15.8505V15.8505ZM20.7411 18.3005C20.5538 17.9566 20.8942 17.5008 21.2836 17.5646C21.4761 17.5611 21.6117 17.7108 21.7351 17.8368C21.7605 18.0406 21.8033 18.2839 21.631 18.4405C21.3973 18.7319 20.868 18.6488 20.7411 18.3005V18.3005ZM6.5066 17.66C6.86972 17.4229 7.3921 17.7773 7.30985 18.1938C7.2661 18.5639 6.7936 18.7748 6.48297 18.5648C6.14872 18.3749 6.16097 17.8333 6.5066 17.66V17.66ZM13.6755 18.4326C14.1506 18.227 14.7561 18.6339 14.7106 19.1484C14.7456 19.7171 13.9975 20.1109 13.5328 19.7696C13.0166 19.4765 13.1032 18.6138 13.6755 18.4326V18.4326ZM10.3557 19.1948C10.76 18.9856 11.3025 19.347 11.2657 19.7933C11.278 20.159 10.9157 20.4705 10.5482 20.4163C10.2446 20.4101 10.0468 20.1415 9.94885 19.8869C9.9541 19.6095 10.0705 19.3006 10.3557 19.1956V19.1948ZM17.081 19.2018C17.4975 18.948 18.089 19.312 18.0496 19.788C18.0601 20.2868 17.3916 20.6053 17.004 20.278C16.6295 20.0216 16.675 19.4056 17.081 19.2018ZM18.2508 22.0455C18.0653 21.7708 18.2832 21.4391 18.5833 21.3761C18.8257 21.4243 19.0821 21.6036 19.0305 21.8784C18.9955 22.252 18.4407 22.3658 18.2508 22.0464V22.0455ZM8.96622 21.8066C9.03972 21.5879 9.21822 21.3718 9.47985 21.4286C9.86047 21.4549 9.97335 22.0201 9.63997 22.1943C9.34072 22.3929 8.99247 22.1208 8.96622 21.8066ZM13.4462 22.0578C13.5188 21.734 13.9432 21.5774 14.2232 21.7489C14.4087 21.8276 14.463 22.0306 14.5102 22.2039C14.4853 22.2939 14.4619 22.3843 14.4402 22.4751C14.3256 22.6081 14.1777 22.742 13.987 22.7376C13.6326 22.7788 13.3123 22.3841 13.4453 22.0578H13.4462Z" fill="white"/>
</g>
<defs>
<filter id="filter0_d_4218_3011" x="3.37549" y="4.75024" width="21.2402" height="19.4902" filterUnits="userSpaceOnUse" color-interpolation-filters="sRGB">
<feFlood flood-opacity="0" result="BackgroundImageFix"/>
<feColorMatrix in="SourceAlpha" type="matrix" values="0 0 0 0 0 0 0 0 0 0 0 0 0 0 0 0 0 0 127 0" result="hardAlpha"/>
<feOffset dy="0.5"/>
<feGaussianBlur stdDeviation="0.5"/>
<feColorMatrix type="matrix" values="0 0 0 0 0 0 0 0 0 0 0 0 0 0 0 0 0 0 0.204257 0"/>
<feBlend mode="normal" in2="BackgroundImageFix" result="effect1_dropShadow_4218_3011"/>
<feBlend mode="normal" in="SourceGraphic" in2="effect1_dropShadow_4218_3011" result="shape"/>
</filter>
<clipPath id="clip0_4218_3011">
<rect width="28" height="28" fill="white"/>
</clipPath>
</defs>
</svg>
