<svg width="28" height="28" viewBox="0 0 28 28" fill="none" xmlns="http://www.w3.org/2000/svg">
<rect width="28" height="28" rx="14" fill="#F3BA2F"/>
<path d="M15.9452 20.9396V23.2931L13.8934 24.5L11.9021 23.2931V20.9396L13.8934 22.1465L15.9452 20.9396ZM4.9624 12.7931L6.95378 14V18.0431L10.3934 20.0948V22.4483L4.9624 19.25V12.7931ZM22.8245 12.7931V19.25L17.3331 22.4483V20.0948L20.7727 18.0431V14L22.8245 12.7931ZM17.3331 9.59483L19.3848 10.8017V13.1552L15.9452 15.2069V19.3103L13.9538 20.5172L11.9624 19.3103V15.2069L8.40206 13.1552V10.8017L10.4538 9.59483L13.8934 11.6465L17.3331 9.59483ZM8.40206 14.8448L10.3934 16.0517V18.4052L8.40206 17.1983V14.8448ZM19.3848 14.8448V17.1983L17.3934 18.4052V16.0517L19.3848 14.8448ZM6.95378 7.5431L9.0055 8.75L6.95378 9.95689V12.3103L4.9624 11.1034V8.75L6.95378 7.5431ZM20.8331 7.5431L22.8848 8.75V11.1034L20.8331 12.3103V9.95689L18.8417 8.75L20.8331 7.5431ZM13.8934 7.5431L15.9452 8.75L13.8934 9.95689L11.9021 8.75L13.8934 7.5431ZM13.8934 3.5L19.3848 6.69827L17.3934 7.90517L13.9538 5.85345L10.4538 7.90517L8.4624 6.69827L13.8934 3.5Z" fill="white"/>
</svg>
