<svg width="28" height="28" viewBox="0 0 28 28" fill="none" xmlns="http://www.w3.org/2000/svg">
<rect width="28" height="28" rx="14" fill="#BA9F33"/>
<path d="M14.0003 24.0333C19.7992 24.0333 24.5001 19.3324 24.5001 13.5335C24.5001 7.73462 19.7992 3.03369 14.0003 3.03369C8.20142 3.03369 3.50049 7.73462 3.50049 13.5335C3.50049 19.3324 8.20142 24.0333 14.0003 24.0333Z" fill="#BA9F33"/>
<path fill-rule="evenodd" clip-rule="evenodd" d="M7.76436 12.3503C7.7016 12.2929 7.63529 12.2355 7.5743 12.1782C7.51331 12.1208 7.45067 12.0634 7.38791 12.0061L7.2014 11.8288C7.1709 11.7983 7.13864 11.7715 7.10814 11.7409C7.07765 11.714 7.04183 11.6835 7.01134 11.6566C6.76384 11.4217 6.51492 11.1869 6.27085 10.9519C6.52367 11.1832 6.77117 11.4129 7.02399 11.6476L7.11181 11.7355C7.1423 11.7659 7.17457 11.7929 7.20506 11.8234L7.39145 11.9954C7.45422 12.0528 7.5152 12.1102 7.57797 12.1727C7.64073 12.2353 7.70172 12.2928 7.76448 12.35L7.76436 12.3503ZM4.47961 12.3148C4.47961 12.3148 5.37966 12.4079 5.81899 12.4707C6.22594 12.5281 7.49901 12.7235 7.49901 12.7235L4.47961 12.3148ZM4.47961 12.3148C4.73243 12.3363 4.98525 12.3631 5.23807 12.3901C5.36713 12.4026 5.49088 12.4169 5.61463 12.4295L5.80457 12.4511C5.86733 12.4599 5.92832 12.4689 5.99108 12.4779L6.74422 12.598L7.12067 12.6608C7.24442 12.6823 7.36817 12.7057 7.49724 12.7272C7.37349 12.7147 7.24442 12.6967 7.12067 12.6787L6.74422 12.6249L5.99108 12.5138C5.92832 12.5049 5.86733 12.4922 5.80457 12.4834L5.61452 12.4615C5.49077 12.449 5.3617 12.431 5.23795 12.4166C4.98513 12.3862 4.73231 12.3538 4.47949 12.3145L4.47961 12.3148ZM7.40942 12.958C7.40942 12.958 6.44838 13.202 6.12382 13.2952C5.80469 13.3831 4.83821 13.6771 4.83821 13.6771L7.4093 12.9581L7.40942 12.958Z" fill="#CFB66C"/>
<path fill-rule="evenodd" clip-rule="evenodd" d="M7.40958 12.958C7.19624 13.0208 6.98408 13.0818 6.76767 13.1392L6.12575 13.3113C5.91241 13.3741 5.70025 13.4351 5.4875 13.4978L5.16837 13.5856C5.06259 13.6161 4.95503 13.643 4.8457 13.6736C4.95137 13.6381 5.05904 13.6018 5.16483 13.5713L5.48395 13.4692C5.6973 13.4028 5.90946 13.34 6.12221 13.2737C6.33909 13.2199 6.55255 13.1625 6.76944 13.1105C6.97557 13.0585 7.19258 13.0066 7.40958 12.9581V12.958ZM4.973 14.2688C5.07866 14.2294 6.29796 13.6611 6.58127 13.5283C6.72311 13.4619 7.13537 13.3156 7.13537 13.3156L4.973 14.2688Z" fill="#CFB66C"/>
<path fill-rule="evenodd" clip-rule="evenodd" d="M4.97277 14.2688C5.06591 14.2333 5.15385 14.1899 5.24344 14.1487L5.50879 14.0249L6.04137 13.7686C6.21866 13.6843 6.39099 13.5913 6.57384 13.5121C6.6671 13.4727 6.76035 13.4405 6.85349 13.41L6.99532 13.3652C7.04366 13.3526 7.08858 13.3382 7.13716 13.3257C6.95986 13.41 6.77323 13.4817 6.59571 13.5641C6.41841 13.652 6.2371 13.7238 6.05414 13.8026L5.51269 14.041C5.3309 14.1146 5.15361 14.1935 4.97266 14.2688H4.97277ZM5.09097 14.7652C5.09097 14.7652 6.19538 14.1179 6.57549 13.9099C6.77453 13.7988 7.41822 13.4796 7.41822 13.4796L5.09097 14.7652Z" fill="#CFB66C"/>
<path fill-rule="evenodd" clip-rule="evenodd" d="M5.09082 14.7652C5.27721 14.6505 5.46727 14.5339 5.65732 14.4156L5.94099 14.2434C6.03779 14.1861 6.13105 14.1323 6.22974 14.075C6.32654 14.0175 6.41979 13.9602 6.51837 13.9064C6.56529 13.8774 6.61446 13.8523 6.6654 13.8311L6.81598 13.7558C7.01502 13.659 7.21406 13.5603 7.42385 13.4761C7.2338 13.5963 7.0383 13.6985 6.84293 13.8042C6.74613 13.858 6.64744 13.9064 6.55063 13.9602C6.45383 14.014 6.36058 14.0714 6.26189 14.1234C6.16509 14.1808 6.07183 14.2345 5.97326 14.2865L5.68096 14.4461L5.09106 14.7652H5.09082ZM7.40908 13.6212C7.40908 13.6212 6.72237 14.1484 6.50005 14.3169C6.27772 14.4855 5.62328 14.9588 5.62328 14.9588L7.40908 13.6212V13.6212Z" fill="#CFB66C"/>
<path fill-rule="evenodd" clip-rule="evenodd" d="M11.3504 17.8726L10.999 17.2074L11.2034 16.3754L12.6611 15.8125L12.0407 14.5395L12.3473 13.2539L12.9229 12.1027L14.7016 11.823L16.0086 10.5769L18.8309 10.7902L19.3849 13.8079L18.318 17.6072L17.7103 19.5742L15.2466 19.6675L14.1027 18.875L12.7633 18.3155L11.3504 17.8726Z" fill="#E2CC85"/>
<path fill-rule="evenodd" clip-rule="evenodd" d="M15.6716 17.851C15.6716 17.851 15.3309 18.007 14.7497 17.9711C14.5815 17.7452 13.4036 17.6394 13.4036 17.6394C13.4036 17.6394 13.2566 17.5946 12.9966 17.7022C12.7349 17.8086 12.4874 17.7955 12.2561 17.8528C12.0248 17.9101 11.7951 17.6089 11.6178 17.5462C11.4405 17.4799 11.2054 17.3203 11.2054 17.3203L10.709 17.2719L9.71219 16.8505L8.12851 15.2727L7.69816 15.9464L7.56543 16.7802L8.04423 17.7682L9.33337 18.9425L11.8471 19.5808L13.3371 19.1418L15.2036 18.3529L15.6716 17.8509V17.851Z" fill="#F1D789"/>
<path fill-rule="evenodd" clip-rule="evenodd" d="M6.74052 12.2749L7.05965 11.3086L7.43989 10.6845L8.6644 10.5823L8.29681 11.6545L7.27311 13.4763L7.69803 15.1025L6.945 15.479L6.71357 15.124L6.52718 14.31L6.51465 13.3955L6.74052 12.2749Z" fill="#F4ECB4"/>
<path fill-rule="evenodd" clip-rule="evenodd" d="M8.11404 17.7848L7.87919 17.4567C7.87919 17.4567 7.81643 17.3007 7.85236 17.1644C7.88782 17.0263 7.88274 17.0173 7.86489 16.9653C7.84704 16.9133 7.69634 16.734 7.70533 16.5798C7.71419 16.4238 7.6928 16.3718 7.80745 16.2481C7.92753 16.1281 7.89172 15.92 7.89172 15.92L8.04774 16.0168L8.0832 15.9631C8.0832 15.9631 8.14052 16.0078 8.14052 16.0778C8.15305 15.981 8.10104 15.5327 8.21936 15.4306C8.33767 15.3285 8.54746 15.9093 8.54746 15.9093L8.4184 15.0665L8.08662 14.2024L7.49671 13.4135L7.46125 12.5438V12.4685C7.46125 12.4685 7.19047 12.8846 7.11518 13.2131C7.0614 13.439 7.19047 13.7133 7.16364 14.0379C7.14201 14.3607 7.11518 14.3355 7.19402 14.4634C7.27285 14.5913 7.4648 14.8543 7.38951 15.0443C7.3232 15.2075 7.09722 15.0928 7.09722 15.0928C7.09722 15.0928 7.05242 15.2254 6.99143 15.2739C6.96992 15.195 6.94663 15.1448 6.90361 15.0966C6.89995 15.1271 6.89108 15.1683 6.89108 15.1683C6.89108 15.1683 6.85161 15.0446 6.81213 14.8885C6.75847 14.6806 6.70103 14.4063 6.64902 14.2593C6.62751 14.3435 6.57373 14.5999 6.57373 14.5999L6.60422 14.9944L6.75126 15.5359L6.89309 15.8905L7.03114 16.3244L7.15111 16.6158L7.24791 16.8382L7.33219 17.3385L7.73913 17.7687L7.95614 17.8656L8.11381 17.7849L8.11404 17.7848Z" fill="#F3E19D"/>
<path fill-rule="evenodd" clip-rule="evenodd" d="M6.9537 11.4859C6.9537 11.4859 6.66141 11.9823 6.57725 12.4828C6.4931 12.9832 6.41769 13.512 6.47088 14.1933C6.52465 14.8801 6.62689 15.3014 6.70939 15.6026C6.85123 16.103 7.21858 16.7987 7.21858 16.7987L7.23111 16.7717C7.16936 16.6547 7.12008 16.5315 7.08407 16.4041C7.03561 16.2141 7.01765 15.9882 6.97285 15.886C6.93338 15.7838 6.86707 15.6959 6.8348 15.5704C6.80431 15.4503 6.79934 15.2602 6.70573 15.1186C6.66625 15.0612 6.61779 14.9106 6.60349 14.76C6.58553 14.534 6.61247 14.2812 6.59096 14.0733C6.55149 13.7273 6.52465 13.4924 6.56047 13.3112C6.59628 13.13 6.78291 12.6156 6.89768 12.2068C6.97297 11.945 6.92806 11.7244 7.06611 11.4967C7.20416 11.2708 7.28855 11.0718 7.31893 10.9337C7.35439 10.8082 6.95323 11.4859 6.95323 11.4859H6.9537Z" fill="#F2E8B0"/>
<path fill-rule="evenodd" clip-rule="evenodd" d="M8.34013 11.2869C8.34013 11.2869 8.18955 11.3318 8.11781 11.4106C8.04606 11.4859 8.01557 11.5487 7.91876 11.676C7.82196 11.8032 7.81652 11.9073 7.73757 12.0668C7.65873 12.2228 7.48475 12.4577 7.46323 12.542C7.44172 12.6262 7.40591 13.0206 7.36111 13.2071C7.32164 13.3937 7.40591 13.6232 7.40591 13.6232L7.50803 13.6016C7.50803 13.6016 7.50803 13.7343 7.61027 13.824C7.71239 13.9118 7.73036 13.5263 7.73036 13.5263L8.11225 12.2371L8.68775 11.8463L8.75051 11.5307L8.3399 11.2869H8.34013Z" fill="#F5EEC0"/>
<path fill-rule="evenodd" clip-rule="evenodd" d="M8.61945 11.8715C8.61945 11.8715 8.34867 11.8894 8.21606 11.9863C8.16228 12.0256 8.14077 12.0579 8.08344 12.1064C7.97766 12.1942 7.86999 12.2749 7.8181 12.39C7.76066 12.5047 7.6979 12.6787 7.65488 13.0068C7.63691 13.1448 7.63691 13.2721 7.62438 13.3833C7.60642 13.5339 7.57959 13.654 7.59389 13.7379C7.61185 13.91 7.78938 13.9997 7.80664 14.1951L8.17422 14.0087L8.52028 12.6442L9.25544 12.1832L8.8394 11.717L8.61897 11.8707L8.61945 11.8715Z" fill="#E6DB9D"/>
<path fill-rule="evenodd" clip-rule="evenodd" d="M6.68029 21.06C6.68183 21.0465 6.68337 21.0331 6.6849 21.0192C6.73856 20.5583 6.74767 20.2089 6.78702 19.9901C6.84435 19.68 6.88383 19.5646 6.87484 19.4485C6.86232 19.2621 6.84801 19.1259 6.86598 18.9824C6.89281 18.7923 7.07932 18.5665 7.074 18.4104C7.07034 18.2867 7.00758 18.2061 6.9538 18.1308C6.90002 18.0555 6.857 17.9927 6.857 17.9927C6.857 17.9927 7.22458 17.7399 7.22104 16.7214C7.22855 16.7236 7.23577 16.7266 7.24255 16.7304L7.42363 17.2449L7.54738 17.3955L8.02252 18.2813L8.63395 18.8748L9.53756 19.4826L10.1042 20.0992L10.1615 21.7434L9.42101 22.7045L9.29975 22.9241C8.3363 22.4404 7.45282 21.8117 6.68018 21.0599L6.68029 21.06Z" fill="#E5CB7A"/>
<path fill-rule="evenodd" clip-rule="evenodd" d="M8.94238 22.633C8.94238 22.633 8.95491 22.4286 9.12346 22.2959C9.15041 22.3407 9.16825 22.3838 9.16293 22.416C9.19343 22.3623 9.40677 22.018 9.88912 21.9283C10.3715 21.8405 10.488 21.4891 10.488 21.4891L11.5117 20.5585L12.6825 19.481L14.1062 18.9806L14.7715 18.8174C14.7715 18.8174 14.784 18.8659 14.759 18.9734C14.8826 18.9646 15.1569 18.9018 15.442 18.8013C15.5568 18.7566 15.6645 18.7386 15.7218 18.7978C15.8061 18.8766 15.8186 19.0631 15.8239 19.1743C15.962 19.1438 16.1215 19.0111 16.2494 19.0237C16.4539 19.0452 16.635 19.2855 16.843 19.2855C17.1173 19.2855 17.2409 19.1169 17.4329 18.9842C17.5476 18.9054 17.7125 18.8069 17.8058 18.7404C18.0281 18.5771 20.3805 17.8582 20.3805 17.8582L21.2053 17.9119L21.338 18.7977L21.2671 21.1131C21.2584 21.1215 21.2496 21.1303 21.2408 21.1386L17.4907 23.0973L12.2925 23.8941C11.1281 23.7039 10.0044 23.3174 8.96933 22.7511L8.94274 22.6329L8.94238 22.633Z" fill="#D8C173"/>
<path fill-rule="evenodd" clip-rule="evenodd" d="M6.99561 21.3545C7.06948 21.2001 7.1359 21.0709 7.1476 21.0247C7.15682 21.1178 7.17372 21.3222 7.20776 21.5394C7.1363 21.4786 7.06558 21.417 6.99561 21.3544V21.3545Z" fill="#F1D789"/>
<path fill-rule="evenodd" clip-rule="evenodd" d="M10.7928 23.5337L11.4651 23.3467L11.5224 23.3647C11.5224 23.3647 11.5529 23.3826 11.5529 23.4435C11.6372 23.3952 11.709 23.404 11.761 23.3719C11.7878 23.4292 11.8146 23.6193 11.9331 23.6425C12.0567 23.6695 12.1894 23.5888 12.3239 23.4866C12.4565 23.3809 12.6076 23.2481 12.7219 23.1943C12.7638 23.2715 12.801 23.3511 12.8331 23.4327C12.9837 23.3127 13.2455 22.825 13.6184 22.8338C13.7262 22.5791 13.9062 22.3616 14.1363 22.2081C14.4824 21.9733 14.6993 21.9553 14.9701 21.9768C15.0776 21.8371 15.2102 21.7186 15.361 21.6272C15.4058 21.6452 15.5295 21.7204 15.6837 21.6487C15.8398 21.5771 16.0154 21.2991 16.2467 21.2633C16.3714 21.2461 16.4981 21.2727 16.6053 21.3386C16.6053 21.3386 17.279 20.6697 17.7439 20.4474C17.7259 20.3936 17.6901 20.191 18.2351 19.7427C18.2656 19.7696 18.2441 19.8449 18.2656 19.8491C18.2745 19.8491 18.4074 19.7917 18.5758 19.6625C18.7838 19.5066 19.0329 19.3434 19.1835 19.2986C19.4672 19.2144 19.7681 19.3864 19.7681 19.3864C19.7937 19.3685 19.8222 19.3551 19.8524 19.347C19.924 19.3344 19.976 19.3255 20.0155 19.3115C20.0119 19.4048 20.064 19.5643 20.0155 19.7024C20.0716 19.7339 20.1311 19.7592 20.1928 19.7777C20.1624 19.844 20.096 20.0125 19.9849 20.0933C20.078 20.138 20.0905 20.1901 20.2233 20.2351C20.1695 20.3104 20.0814 20.4396 20.0422 20.5188C20.0027 20.603 19.861 20.9527 19.7982 21.0853C19.7319 21.218 19.6423 21.4618 19.5992 21.5108C19.5561 21.5597 19.4002 21.7671 19.2801 21.8693C19.3865 21.8298 19.8216 21.6972 20.0063 21.6469C19.9513 21.7275 19.6727 22.1409 19.4049 22.5384C18.1225 23.307 16.6911 23.7935 15.2059 23.9654C13.7208 24.1373 12.216 23.9908 10.792 23.5355L10.7928 23.5337Z" fill="#E0CD81"/>
<path fill-rule="evenodd" clip-rule="evenodd" d="M8.66386 11.8229C8.66386 11.8229 8.50796 11.8229 8.47747 11.8444C8.44697 11.8659 8.63349 11.9108 8.69081 11.9323C8.74814 11.9538 8.87189 12.0524 8.90416 12.1314C8.93466 12.2067 10.0248 12.6459 10.0248 12.6459L10.7958 12.6064L11.0616 12.2392L10.556 11.7963L10.9106 10.751L10.4409 10.8263L9.31123 11.5L8.74459 11.717L8.66386 11.8229Z" fill="#DFC57C"/>
<path fill-rule="evenodd" clip-rule="evenodd" d="M10.3569 12.1691C10.368 12.1871 10.3837 12.2019 10.4024 12.212C10.421 12.222 10.442 12.227 10.4632 12.2264C10.6228 12.2264 10.7697 12.2659 10.8307 12.3465C10.9329 12.4757 11.2163 12.8881 11.2163 12.8881L11.894 13.1319L11.9377 12.3338L11.1972 11.8193L10.3545 12.1295V12.169H10.3564L10.3569 12.1691Z" fill="#E5CC7C"/>
<path fill-rule="evenodd" clip-rule="evenodd" d="M10.2239 12.4648C10.2239 12.4648 10.3476 12.4738 10.5036 12.4163C10.6596 12.3589 10.916 12.2353 11.0272 12.2837C11.1831 12.35 11.1508 12.5581 11.3195 12.7447C11.4216 12.8595 11.6081 12.8559 11.7139 12.9797C11.8197 13.1034 12.1836 13.046 12.1836 13.046L12.3216 13.7906L11.7677 14.5007L11.5865 15.3828H10.8374L10.153 15.1113L9.81592 14.2958L9.98446 13.471L10.2239 12.4648Z" fill="#D2C281"/>
<path fill-rule="evenodd" clip-rule="evenodd" d="M11.6734 12.5008C11.692 12.5065 11.7113 12.5095 11.7308 12.5098C11.7092 12.5277 11.6643 12.5671 11.6823 12.6693C11.7003 12.7716 11.7576 12.9006 11.7092 12.9795C11.7478 13.0217 11.7766 13.0719 11.7935 13.1265C11.824 13.2144 11.833 13.295 12.0319 13.3077C12.0032 13.3254 11.9767 13.3464 11.9531 13.3704C11.9531 13.3704 12.0911 13.4905 12.1611 13.6016C12.2327 13.5986 12.4228 13.5395 12.4228 13.5395L12.4623 13.5664L12.5465 13.5309C12.5465 13.5309 12.4677 13.5005 12.525 13.3086C12.5788 13.1401 12.6273 13.1491 12.6314 13.1365C12.6355 13.124 12.6709 12.9465 12.6709 12.8747C12.6977 12.7816 12.7192 12.4983 12.7192 12.4983L12.6619 11.8726L12.3392 11.6771L12.0768 11.4238L11.8293 11.89L11.6663 12.0525L11.6538 12.4559L11.6734 12.5008Z" fill="#E2C270"/>
<path fill-rule="evenodd" clip-rule="evenodd" d="M12.4497 11.9773C12.4497 11.9773 12.507 12.1405 12.5287 12.266C12.5363 12.2416 12.5405 12.2162 12.5412 12.1907C12.5412 12.1907 12.586 12.4382 12.5948 12.5404C12.6128 12.5368 12.6303 12.5314 12.6343 12.5493C12.6383 12.5671 12.6792 12.7663 12.6698 12.8774C12.7444 12.7542 12.8478 12.6509 12.9709 12.5762C13.0427 12.5313 13.127 12.483 13.2149 12.4793C13.353 12.4758 13.4533 12.5673 13.6183 12.5673C14.0163 12.5673 14.3768 12.275 14.6421 12.1854C14.8375 12.1189 15.006 12.0706 15.1243 11.9629C15.1818 11.9146 15.284 11.807 15.3772 11.6473C15.5009 11.4346 15.63 11.2494 15.7592 11.2261C15.7007 11.2368 15.6412 11.241 15.5819 11.2386C15.5819 11.2386 15.6213 11.1992 15.6882 11.1454C15.7551 11.0916 15.8353 11.0253 15.9499 11.0253C16.1544 11.0253 16.2565 11.0557 16.3713 11.0557C16.4861 11.0521 16.5524 11.0253 16.5524 11.0253C16.5524 11.0253 16.6726 11.1096 16.9432 11.1096C17.214 11.1131 17.3951 11.1364 17.5368 11.149C17.6785 11.1617 18.1535 11.1096 18.2898 11.1136C18.3787 11.117 18.4659 11.1384 18.5463 11.1763L18.107 9.89984L16.5288 8.52051L15.5893 9.18571L14.144 10.6309L12.7455 11.149L12.4533 11.4771V11.9773H12.4497Z" fill="#CCB360"/>
<path fill-rule="evenodd" clip-rule="evenodd" d="M15.5875 11.2456C15.5875 11.2456 15.6269 11.2063 15.6931 11.1525C15.7593 11.0987 15.8403 11.0323 15.9549 11.0323C16.1593 11.0323 16.2615 11.0628 16.3763 11.0628C16.4911 11.0592 16.5574 11.0323 16.5574 11.0323C16.5574 11.0323 16.6777 11.1164 16.9483 11.1164C17.219 11.12 17.4001 11.1433 17.5418 11.1558C17.6836 11.1683 18.1586 11.1164 18.2949 11.1203C18.3837 11.1237 18.4709 11.145 18.5512 11.1831L18.3522 10.6075L18.121 10.1683L17.4611 9.44563L16.6632 8.97592C16.6596 8.97238 16.3888 8.90063 16.3888 8.90063L15.6716 9.33453L15.0208 11.0182L15.0083 11.3728L15.4296 11.5718C15.5353 11.3945 15.652 11.2527 15.7613 11.2347C15.6626 11.2455 15.5873 11.2455 15.5873 11.2455L15.5875 11.2456Z" fill="#D5B457"/>
<path fill-rule="evenodd" clip-rule="evenodd" d="M15.5783 11.3657C15.5156 11.3693 15.4637 11.3567 15.4492 11.3119C15.3955 11.1614 15.3524 11.1399 15.3074 11.1399C15.2624 11.1399 15.2016 11.2367 15.1656 11.2455C15.1295 11.2544 15.0868 11.1344 15.0868 11.1344L15.0473 11.1165C15.0473 11.1165 14.816 11.267 14.6529 11.4446C14.4898 11.6221 14.2225 11.9234 14.1025 11.977C13.9824 12.0307 13.5699 12.0488 13.4288 12.0793C13.2876 12.1098 13.1312 12.212 13.1096 12.2353C13.0881 12.2586 13.1725 12.2836 13.1851 12.3069C13.1976 12.3284 13.0469 12.3194 13.0344 12.3424C13.0255 12.3603 13.0698 12.4625 13.0918 12.5145C13.1303 12.4953 13.1725 12.4849 13.2154 12.484C13.3535 12.4804 13.4539 12.5719 13.6188 12.5719C14.0169 12.5719 14.3773 12.2796 14.6426 12.1899C14.8381 12.1236 15.0066 12.0751 15.1249 11.9676C15.1823 11.9192 15.2845 11.8116 15.3777 11.652C15.4458 11.5427 15.5122 11.4404 15.5787 11.3651L15.5783 11.3657Z" fill="#D2B257"/>
<path fill-rule="evenodd" clip-rule="evenodd" d="M9.86937 20.2395C9.86937 20.2395 9.83391 20.1068 9.50533 19.7643C9.41207 19.6675 9.35474 19.587 9.29198 19.5295C9.13596 19.3823 9.04448 19.343 8.93338 19.2587C8.68954 19.0776 8.42419 19.0776 8.21983 18.8553C8.01547 18.633 7.77731 18.2082 7.61183 17.774C7.44872 17.3401 7.40381 17.2021 7.40381 17.1895C7.40381 17.177 7.44872 17.0927 7.50605 17.1053C7.56337 17.1178 7.56337 17.2289 7.57779 17.2559C7.60635 17.2998 7.63875 17.3412 7.67459 17.3795C7.75887 17.4764 7.87895 17.5922 7.93994 17.765C7.92742 17.618 7.87718 17.4549 7.87718 17.4549C7.87718 17.4549 8.19276 17.6539 8.46166 17.8618C8.73244 18.0699 8.84355 18.1416 8.92262 18.2742C9.00169 18.4069 9.18797 18.7566 9.27721 18.8588C9.36645 18.9611 10.5892 19.3465 10.5892 19.3465L11.1708 19.7802L11.4596 20.4131L11.2336 20.7677L10.7997 20.861L10.095 20.5454L9.86937 20.2394V20.2395Z" fill="#D2B159"/>
<path fill-rule="evenodd" clip-rule="evenodd" d="M8.3042 18.059C8.3042 18.059 8.45123 18.2939 8.80983 18.5162C9.13262 18.7117 9.64357 18.8892 10.0991 18.995C10.3608 19.0578 10.6226 19.1061 10.8574 19.1098C11.4904 19.1187 11.926 18.9377 12.4658 18.8785C12.7581 18.848 13.1167 18.8247 13.4896 18.7366C13.9683 18.6219 14.2516 18.4927 14.6371 18.3111C14.9168 18.1821 15.1733 18.0853 15.3812 17.9615C15.6735 17.7894 15.8868 17.5976 16.1343 17.5403C16.1038 17.6246 16.0715 17.7751 15.8277 17.9312C15.9568 17.9275 16.1343 17.9186 16.1343 17.9186C16.1343 17.9186 15.9622 18.0207 15.6592 18.2503C15.4727 18.3921 15.2253 18.6322 14.9725 18.7917C14.8092 18.894 14.6317 18.969 14.5152 19.0302C14.2315 19.1863 14.1171 19.2651 13.9307 19.4557C13.997 19.4522 14.0024 19.4557 14.0024 19.4557C14.0024 19.4557 13.7675 19.4862 13.599 19.5758C13.5636 19.5758 13.5021 19.5633 13.3946 19.5938C13.3103 19.6206 13.1991 19.6817 13.0844 19.7139C12.9212 19.7623 12.8675 19.7408 12.8675 19.7408L12.8944 19.7946C12.8944 19.7946 12.6816 19.7909 12.6107 19.7982C12.6232 19.8017 12.6197 19.8071 12.6197 19.8071C12.6072 19.8092 12.5952 19.8135 12.5842 19.8197C12.5501 19.8418 12.5126 19.8581 12.4731 19.868C12.4516 19.8716 12.4337 19.8716 12.4067 19.877C12.4157 19.8985 12.4857 20.0188 12.5179 20.0897C12.4911 20.1077 12.0876 20.4125 12.0876 20.4125C12.1001 20.4322 12.1103 20.4533 12.1181 20.4753C12.1306 20.5147 12.136 20.5721 12.1486 20.5989C12.1789 20.6527 12.1969 20.6617 12.1969 20.6617C12.1969 20.6617 12.1486 20.6707 12.0642 20.6922C11.9926 20.7101 11.9046 20.7405 11.7805 20.7585C11.7424 20.7634 11.7041 20.7664 11.6658 20.7675C11.6837 20.8069 11.7626 20.9575 11.6173 21.1314C11.472 21.3053 11.4272 21.3306 11.3824 21.4417C11.3599 21.4246 11.3359 21.4096 11.3107 21.3967C11.2624 21.3752 11.1959 21.3431 11.1726 21.2999C11.1591 21.3574 11.1411 21.4138 11.1189 21.4685C11.0741 21.5886 11.0078 21.707 10.9952 21.7966C10.9468 21.7428 10.8572 21.637 10.7334 21.6585C10.6097 21.6801 10.5111 21.8486 10.4896 21.8971C10.4896 21.8666 10.4681 21.8433 10.4628 21.8791C10.4591 21.9186 10.391 22.3308 10.0109 22.6644C10.0074 22.5801 10.0074 22.3936 9.99839 22.3327C9.96293 22.3682 9.91955 22.4205 9.6613 22.5318C9.40848 22.6429 9.44855 22.7541 9.44855 22.7541C9.44855 22.7541 9.42704 22.5768 9.56332 22.39C9.70137 22.2037 9.78564 22.1157 9.78564 22.1014C9.78341 22.0869 9.77719 22.0732 9.76768 22.0619C9.74971 22.044 9.7139 22.0225 9.7139 22.0082C9.73541 21.9993 9.94875 21.8971 9.93622 21.6854C9.92369 21.4954 9.84308 21.3967 9.78564 21.3269C9.77678 21.3179 9.87003 21.2516 9.85739 21.2301C9.8484 21.2176 9.73375 21.1332 9.71933 21.0883C9.72272 21.0614 9.72874 21.035 9.7373 21.0094C9.74983 20.9699 9.75881 20.943 9.75527 20.9162C9.74628 20.8714 9.69782 20.7476 9.68352 20.7351C9.69605 20.7386 9.78564 20.7351 9.78564 20.7351C9.78564 20.7351 9.71402 20.6203 9.70137 20.5665C9.68872 20.5128 9.66189 20.371 9.64759 20.3442C9.67808 20.3478 9.75337 20.3531 9.75337 20.3442C9.75704 20.3173 9.68707 20.2725 9.71792 20.2378C9.73943 20.2414 9.78068 20.2594 9.82004 20.3096C9.79852 20.2521 9.76271 20.141 9.6873 20.0962C9.72276 20.0837 9.84332 20.0513 9.9491 20.1141C10.0549 20.1769 10.0909 20.2647 10.0909 20.2647C10.0909 20.2647 10.1537 20.3131 10.2506 20.3849C10.3617 20.4727 10.5033 20.5976 10.7293 20.686C10.7778 20.713 10.9014 20.713 10.9911 20.695C11.0302 20.6857 11.0676 20.6706 11.1022 20.6502C11.1147 20.6429 11.1279 20.6368 11.1417 20.6323C11.1224 20.5936 11.1002 20.5564 11.0754 20.521C11.1059 20.521 11.1417 20.5247 11.1417 20.5247C11.1417 20.5247 11.1632 20.4762 11.0664 20.3829C11.0879 20.3614 11.1148 20.3474 11.1148 20.3111C11.0844 20.3076 11.0306 20.2628 11.018 20.2448C11.0359 20.2323 11.0628 20.191 11.0933 20.1785C11.0664 20.157 11.0001 20.0673 10.9696 20.0584C10.9987 20.0476 11.0269 20.0344 11.0539 20.0189C11.0539 20.0189 10.9033 19.9795 10.8548 19.9472C10.8064 19.9117 10.7347 19.8504 10.6917 19.8324C10.6468 19.8145 10.568 19.8056 10.5357 19.7697C10.5661 19.7787 10.6145 19.7697 10.6505 19.7697C10.6773 19.7697 10.6899 19.7732 10.6988 19.7732C10.6953 19.7607 10.6953 19.7337 10.7652 19.7249C10.7989 19.7198 10.8315 19.7095 10.862 19.6944C10.862 19.6944 10.7956 19.6908 10.7202 19.6191C10.6448 19.5473 10.5821 19.49 10.5391 19.481C10.4943 19.4721 10.4101 19.5115 10.3581 19.5079C10.2863 19.499 10.2558 19.4631 10.2558 19.4631C10.2558 19.4631 10.0174 19.4846 9.4885 19.1619C9.03121 18.8821 8.83217 18.6348 8.83217 18.6348C8.78938 18.6192 8.74801 18.6 8.70854 18.5773C8.53645 18.4877 8.29794 18.3012 8.30514 18.0573L8.3042 18.059Z" fill="#C2A44D"/>
<path fill-rule="evenodd" clip-rule="evenodd" d="M14.9003 7.29734C14.9418 7.31082 14.9787 7.33568 15.0067 7.36909C15.091 7.46589 15.1448 7.64874 14.9529 7.84423C15.0282 7.87106 15.0593 7.87969 15.125 7.87106C15.0587 7.95001 14.9081 8.11856 14.8992 8.26559C14.8902 8.38568 14.9655 8.42161 14.9655 8.42161C14.9655 8.42161 14.8507 8.55423 14.8454 8.7762C14.8996 8.71508 14.9589 8.65869 15.0227 8.60765C15.1554 8.50187 15.3383 8.38178 15.462 8.30649C15.4603 8.33805 15.4646 8.36964 15.4745 8.39963C15.4745 8.39963 15.7057 8.20957 15.9 8.29396C15.9879 8.33344 15.9484 8.45707 15.9484 8.45707C15.9484 8.45707 16.0686 8.41227 16.1529 8.49655C16.2371 8.58082 16.3563 8.79818 16.4174 8.88245C16.4442 8.92193 16.5142 8.99722 16.5858 9.11376C16.6837 9.27692 16.7654 9.44924 16.8298 9.62826C16.8333 9.53501 16.8566 9.38986 17.1221 9.48123C17.3874 9.57448 17.6886 9.76998 17.9414 10.1549C18.1942 10.5399 18.2569 10.9745 18.3842 11.14C18.5132 11.2995 18.646 11.5649 18.655 11.6761C18.664 11.7873 18.6155 12.1458 18.8808 13.1158C18.9561 12.8147 19.0709 12.1458 19.0709 12.1458L19.1337 11.5559L19.2054 9.73062L17.2994 8.14716L15.8094 7.06592L14.8394 7.15917L14.9002 7.29723L14.9003 7.29734Z" fill="#CAA13E"/>
<path fill-rule="evenodd" clip-rule="evenodd" d="M18.4414 10.0138C18.4414 10.0138 18.4145 9.83649 17.9663 9.53509C17.518 9.23748 17.1684 9.23748 16.8457 8.98466C16.5982 8.78562 16.3401 8.32832 16.172 8.17774C16.0088 8.02894 15.9819 7.59859 15.9819 7.59859L16.5324 7.13763L17.351 5.95438L18.043 5.19238L18.3747 5.65334L18.8356 6.19479L19.092 7.28136L19.1852 8.87178L18.4406 10.0139L18.4414 10.0138Z" fill="#B59544"/>
<path fill-rule="evenodd" clip-rule="evenodd" d="M18.9959 11.9202C19.0095 11.679 18.9797 11.4373 18.908 11.2066C18.7898 10.839 18.5315 10.1864 18.4115 9.94195C18.3631 9.67117 18.399 9.64965 18.451 9.61916C18.503 9.58867 18.6985 9.47733 18.8056 9.08669C18.9127 8.69606 19.2449 8.68329 19.2449 8.68329L19.4493 8.53271L19.7596 9.30902L20.0302 10.0101L20.1145 10.5463L20.1773 11.0035L20.0302 11.9699L19.3041 12.6262L18.9958 11.9202H18.9959Z" fill="#C89D3A"/>
<path fill-rule="evenodd" clip-rule="evenodd" d="M8.86328 22.6924V22.6725C8.87837 22.6631 8.89169 22.6511 8.90264 22.637C8.91517 22.6191 8.92427 22.5976 8.93313 22.5922C8.9511 22.5833 9.03537 22.5568 9.08017 22.5653C9.12496 22.5738 9.2434 22.6226 9.30616 22.6191C9.43523 22.6155 9.58581 22.5168 9.82432 22.5617C10.1829 22.6281 10.2672 22.8719 10.4752 23.0099C10.6171 23.1069 10.7639 23.0637 10.7854 23.0637H10.8337C10.8427 23.0637 10.909 22.9884 10.9449 22.9921C11.0167 22.9956 11.0238 23.0549 11.0686 23.0584C11.1743 23.0709 11.3788 23.0046 11.4811 23.0316C11.5114 23.0411 11.5389 23.0578 11.5614 23.0802C11.5839 23.1027 11.6006 23.1302 11.6101 23.1605C11.6316 23.2268 11.6137 23.3111 11.5617 23.3596C11.4506 23.4617 11.3448 23.5586 11.3233 23.6432C11.3506 23.6641 11.3769 23.6864 11.402 23.7099C10.5148 23.4839 9.66128 23.1421 8.86328 22.6934V22.6924Z" fill="#CEB052"/>
<path fill-rule="evenodd" clip-rule="evenodd" d="M18.4106 19.11C18.4106 19.11 18.6903 18.7371 18.7872 18.5523C18.884 18.3619 18.4806 15.9507 18.4806 15.9507L19.2911 13.2954L19.2694 12.4311C19.2694 12.4311 19.3089 11.6332 19.4022 11.2871C19.5134 11.4862 19.8595 11.7265 19.9348 11.8537C19.9702 11.6098 20.0906 11.0953 20.0728 10.5466C20.1391 10.6488 20.2987 11.6762 20.2987 11.6762L20.4582 12.3682L20.6663 13.1034L20.8976 13.8798L21.0356 14.416L21.1144 14.545L21.1809 14.7709L21.2436 15.0149L21.4247 15.5868L21.5311 16.0565L21.6153 16.9082C21.6337 16.9734 21.6469 17.04 21.6548 17.1073C21.6584 17.2005 21.6423 17.2543 21.6423 17.2705C21.6423 17.2867 21.6728 17.4749 21.6603 17.6166C21.6423 17.7584 21.6423 17.8694 21.5311 17.9712C21.4199 18.0729 21.35 18.6811 21.35 18.6811L21.151 18.5485C21.151 18.5485 21.1904 18.3673 21.0972 18.2025C21.0039 18.0376 20.8229 18.0034 20.7206 18.0304C20.6185 18.0519 20.4141 18.084 20.3477 18.1415C20.285 18.1988 20.1308 18.3763 19.9891 18.4571C19.8118 18.5634 19.523 18.5718 19.3688 18.6076C19.2128 18.6431 19.0407 18.7495 18.8595 18.873C18.7175 18.965 18.5675 19.0441 18.4114 19.1094L18.4106 19.11Z" fill="#CCA847"/>
<path fill-rule="evenodd" clip-rule="evenodd" d="M18.4106 23.0276C18.4106 23.0276 18.4225 23.0353 18.4453 23.0478C19.7191 22.451 20.8605 21.605 21.802 20.5598C21.7917 20.197 21.7784 19.825 21.7637 19.6872C21.7333 19.3949 21.7548 19.0973 21.7459 18.9252C21.7369 18.7531 21.6401 18.052 21.5953 17.8709C21.5468 17.6898 21.4534 17.6001 21.4393 17.6001C21.4267 17.6038 21.3513 17.9409 21.3513 18.0256C21.3513 18.1103 21.3334 18.3143 21.3334 18.3664C21.3208 18.3627 21.3155 18.3309 21.3155 18.3179C21.2975 18.3627 21.276 18.4416 21.2671 18.4506C21.2581 18.4596 21.2796 18.3753 21.2671 18.3574C21.2545 18.3394 21.2316 18.3484 21.2366 18.3036C21.2387 18.277 21.2429 18.2507 21.2491 18.2248C21.2491 18.2248 21.1953 18.3036 21.156 18.5044C21.1165 18.7034 21.1165 18.7089 21.1022 18.7267C21.0896 18.7484 21.0179 18.82 21.0142 18.8469C21.0107 18.8953 21.0807 18.9437 21.086 18.9706C21.0895 19.0155 21.0232 19.2234 21.0017 19.3251C20.9802 19.4269 20.9892 19.6263 20.9662 19.7285C20.9483 19.8218 20.9308 19.8756 20.8694 19.9149C20.9142 19.9239 20.9573 19.9365 20.9573 19.9365C20.9573 19.9365 21.02 20.2018 20.8605 20.4278C20.8031 20.5066 20.7888 20.5426 20.7279 20.6143C20.6076 20.7469 20.5144 20.898 20.5054 20.9962C20.4992 20.9672 20.495 20.9378 20.4929 20.9082C20.4929 20.9082 20.3065 21.1253 20.2275 21.249C20.1254 21.4086 19.9837 21.3996 19.9439 21.4391C19.904 21.4785 19.8954 21.5502 19.9084 21.6076C19.8729 21.6165 19.8063 21.6291 19.7614 21.7672C19.7399 21.8388 19.6861 21.909 19.6018 21.9572C19.5175 22.0055 19.4153 22.02 19.3633 22.0325C19.4081 22.045 19.4261 22.045 19.4476 22.0593C19.4207 22.1041 19.297 22.1741 19.1589 22.2638C19.0209 22.3481 18.9545 22.4717 18.9204 22.5525C18.885 22.6277 18.8326 22.6762 18.7483 22.6852C18.7838 22.7067 18.8363 22.7568 18.8631 22.773C18.8236 22.782 18.7567 22.782 18.6372 22.8842C18.5117 22.9882 18.4687 23.0187 18.4112 23.0277L18.4106 23.0276Z" fill="#C39D3C"/>
<path fill-rule="evenodd" clip-rule="evenodd" d="M15.9161 23.8584C15.9848 23.8103 16.0591 23.7709 16.1375 23.7411C16.4171 23.63 16.713 23.6085 16.8295 23.5726C16.9407 23.5372 17.0286 23.4883 17.1666 23.4614C17.163 23.4929 17.1599 23.5224 17.1566 23.5503C16.7496 23.6783 16.3351 23.7812 15.9155 23.8584H15.9161Z" fill="#D2BA6B"/>
<path fill-rule="evenodd" clip-rule="evenodd" d="M21.074 16.5027C21.074 16.5027 21.0166 16.8128 20.9144 17.0083C20.8122 17.2038 20.7016 17.4745 20.7016 17.4745C20.7023 17.4135 20.7095 17.3528 20.7232 17.2933C20.5941 17.3686 20.2803 17.5498 20.1913 17.6304C20.107 17.7057 19.9653 17.8384 19.9295 17.9012C20.0138 17.6538 20.1016 17.4315 20.116 17.3292C19.9869 17.4225 19.3844 17.9191 19.0707 18.2473L18.0934 19.038C17.9807 19.0988 17.8645 19.1532 17.7456 19.2008C17.5772 19.2725 17.3781 19.3335 17.2311 19.3909C17.2706 19.2851 17.3332 19.1917 17.4212 19.1022C17.5144 19.0143 17.7941 18.7113 17.8371 18.5703C17.8766 18.4232 17.8855 18.3354 17.8335 18.2117C17.7851 18.2242 17.674 18.2296 17.5987 18.2512C17.5234 18.2727 17.4427 18.3533 17.4427 18.3533C17.4427 18.3533 17.5 18.0252 17.6237 17.715C17.5305 17.7186 17.3709 17.7454 17.3709 17.7454C17.3709 17.7454 17.5932 17.3725 17.9737 17.1126C17.8572 17.1374 17.7432 17.1728 17.6331 17.2182C17.4107 17.3115 17.1669 17.4496 16.9858 17.5248C17.088 17.383 17.8052 16.3594 18.232 15.4055C18.6575 14.4534 18.8164 14.2096 18.9097 13.6986C18.958 13.4458 18.9452 13.0722 18.958 12.7376C18.9706 12.4058 19.0118 12.1082 18.985 11.9092C19.0961 12.0472 19.5121 12.4363 19.5264 13.306C19.539 14.1756 19.1285 15.3501 18.6927 15.9829C18.7991 16.0134 19.0747 16.0493 19.3579 15.5574C19.6411 15.0655 19.6377 14.9281 19.7399 14.7236C19.7524 14.8259 19.7488 14.8617 19.7488 14.8617C19.7488 14.8617 20.1613 14.3615 20.3566 13.7321C20.3961 14.0029 20.5127 14.2414 20.3297 14.7381C20.1666 15.1862 19.9532 15.2957 19.9532 15.2957C19.9532 15.2957 20.059 15.2777 20.2149 15.1845C20.2419 15.2508 20.2365 15.3263 20.2813 15.353C20.3261 15.3797 20.3871 15.4248 20.3961 15.4678C20.4445 15.396 20.5197 15.3046 20.5431 15.2365C20.5252 15.3783 20.5127 15.9985 20.5786 16.3141C20.7168 16.3015 20.8584 16.2925 20.9552 16.0433C20.8889 16.2872 20.8889 16.4341 20.9337 16.6422C21.0072 16.5921 21.0735 16.5023 21.0735 16.5023L21.074 16.5027Z" fill="#C0993A"/>
<path fill-rule="evenodd" clip-rule="evenodd" d="M16.4152 6.61966C16.4152 6.61966 16.2771 6.67698 16.0423 6.67698C15.8379 6.67698 15.8952 6.59814 15.5761 6.59814C15.0849 6.59814 13.3689 6.88181 13.0676 6.87779C12.8721 6.87425 13.7274 6.96207 13.7274 6.96207L15.9132 6.99256L16.3524 6.9571L16.5157 6.62497L16.4152 6.61966Z" fill="#A88F33"/>
<path fill-rule="evenodd" clip-rule="evenodd" d="M10.7478 10.8923C10.7478 10.8923 10.4681 11.1057 10.3498 11.2689C10.2314 11.4321 10.1687 11.5396 10.0342 11.6723C10.0658 11.6735 10.0973 11.6693 10.1274 11.6598C10.1274 11.6598 10.1274 11.6952 10.1059 11.7046C10.1245 11.7025 10.1433 11.7046 10.161 11.7107C10.1787 11.7169 10.1947 11.7269 10.208 11.74C10.1686 11.7615 10.061 11.8692 10.1453 11.9965C10.208 12.0933 10.3408 12.1022 10.3408 12.1022C10.3408 12.1022 10.3103 12.1901 10.4376 12.1811C10.7119 12.1686 11.0185 12.0484 11.1601 12.0789C11.3019 12.1143 11.3825 12.1273 11.4829 12.3013C11.5893 12.4734 11.6819 12.5004 11.6819 12.5004C11.6819 12.5004 11.7447 12.3407 11.7304 12.1023C11.7819 11.9738 11.8104 11.8372 11.8147 11.6989L11.7214 11.0122L11.3145 10.4976L10.7873 10.7899L10.7478 10.892V10.8923Z" fill="#E3C571"/>
<path fill-rule="evenodd" clip-rule="evenodd" d="M11.248 10.7902C11.248 10.7902 11.2875 10.8835 11.4525 10.8923C11.4346 10.9318 11.4346 10.9372 11.44 10.9676C11.4435 10.9981 11.4489 11.0429 11.4489 11.0429C11.467 11.0341 11.4834 11.0221 11.4973 11.0074C11.5063 11.0469 11.4883 11.1096 11.4973 11.1545C11.5029 11.1818 11.5119 11.2083 11.5241 11.2333C11.5268 11.2272 11.5298 11.2212 11.5331 11.2155C11.5367 11.2065 11.5686 11.3123 11.6569 11.3928C11.6568 11.3804 11.6599 11.3682 11.6657 11.3573C11.6671 11.3798 11.6745 11.4015 11.6873 11.4201C11.6807 11.4169 11.6746 11.4127 11.6694 11.4075C11.6694 11.4075 11.6783 11.6912 11.7267 11.8379C11.7348 11.8284 11.742 11.8182 11.7482 11.8074C11.7482 11.7985 11.7447 11.8863 11.7357 11.9492C11.7232 12.012 11.7322 12.0998 11.7322 12.0998C11.7645 12.0743 11.8 12.0532 11.8378 12.037C11.8916 12.0154 11.9797 11.9491 12.0333 11.8021C12.0645 11.7188 12.0885 11.633 12.1051 11.5457C12.1224 11.5791 12.1344 11.615 12.1405 11.6521C12.1442 11.6969 12.2285 11.6736 12.2285 11.6736L12.2464 11.4781L12.3528 11.0352L12.4496 10.7609L12.9158 10.0348L13.758 9.38617L14.4932 9.55471L15.1135 8.71198L14.0449 8.07007L13.0336 8.17585L12.1158 9.44704L11.3808 10.6L11.248 10.7901V10.7902Z" fill="#D8B65B"/>
<path fill-rule="evenodd" clip-rule="evenodd" d="M16.5448 8.95064C16.5448 8.95064 16.4821 8.96317 16.301 9.05702C16.1199 9.15087 15.9944 9.18065 15.9244 9.3187C15.8545 9.45676 15.8491 9.56621 15.8491 9.56621C15.8491 9.56621 15.9729 9.51243 16.0446 9.49446C16.1199 9.47661 16.2042 9.48193 16.1952 9.51243C16.1866 9.53334 16.1746 9.5527 16.1598 9.56975C16.1598 9.56975 16.3016 9.56621 16.2978 9.63618C16.294 9.70615 16.271 9.78321 16.2441 9.81725C16.2172 9.85271 16.1061 9.90519 16.0936 9.94644C16.0631 10.0307 16.1061 10.0343 16.0899 10.1023C16.0774 10.1688 16.0183 10.2978 15.8245 10.5237C15.6255 10.7497 15.5409 10.9093 15.5409 10.9093C15.5409 10.9093 15.4441 10.7282 15.3938 10.5722C15.3584 10.59 15.168 10.6958 15.168 10.6958L14.7269 9.15926L14.7357 9.05702C14.7357 9.05702 14.7752 9.00868 14.7842 8.91897C14.7179 8.89746 14.7089 8.87949 14.621 8.79533C14.533 8.71118 14.4614 8.60882 14.3145 8.53885C14.293 8.49937 14.266 8.44571 14.1585 8.42408C14.0509 8.40245 13.9864 8.38472 13.9864 8.38472C13.9864 8.38472 14.0437 8.36309 14.0706 8.3183C14.0042 8.32728 13.9506 8.34879 13.8053 8.34525C13.6583 8.34158 13.6421 8.33626 13.5615 8.34879C13.4809 8.36132 13.3842 8.39725 13.3481 8.2735C13.3086 8.24301 13.2244 8.26995 13.1526 8.37562C13.0809 8.48129 13.0558 8.56568 12.9178 8.60693C12.9081 8.66778 12.8868 8.72621 12.855 8.77902C12.8155 8.84545 12.7528 8.91176 12.6685 9.01033C12.5358 9.16635 12.5573 9.42272 12.3457 9.61821C12.1324 9.81359 12.3812 9.07664 12.3812 9.07664L12.7218 8.26109L13.6918 7.31257L15.198 7.21045L15.345 7.99054L16.0802 8.24336L16.5446 8.95159L16.5448 8.95064Z" fill="#D3AE4D"/>
<path fill-rule="evenodd" clip-rule="evenodd" d="M16.7832 9.12279L16.1503 8.21022L15.7074 7.86947C15.7074 7.86947 15.3919 7.28867 15.3703 7.2707C15.3524 7.25817 15.0548 7.22591 14.8647 7.21338L14.9002 7.3012C14.9417 7.31467 14.9785 7.33953 15.0065 7.37294C15.0908 7.46974 15.1446 7.65259 14.9528 7.84808C15.0281 7.87491 15.0591 7.88354 15.1249 7.87491C15.0586 7.95386 14.908 8.1224 14.899 8.26944C14.89 8.38952 14.9653 8.42533 14.9653 8.42533C14.9653 8.42533 14.8505 8.55806 14.8452 8.77991C14.8994 8.71879 14.9587 8.66241 15.0225 8.61137C15.1552 8.505 15.3381 8.38538 15.4618 8.31009C15.4601 8.34169 15.4644 8.37332 15.4743 8.40335C15.4743 8.40335 15.7055 8.21329 15.8998 8.29757C15.9877 8.33704 15.9482 8.46079 15.9482 8.46079C15.9482 8.46079 16.0684 8.416 16.1527 8.50027C16.2369 8.58454 16.357 8.80142 16.418 8.88581C16.4448 8.92529 16.5148 9.00058 16.5864 9.117C16.6843 9.28019 16.766 9.45254 16.8304 9.63161C16.8339 9.55987 16.8483 9.45952 16.9722 9.45952L16.7839 9.12244L16.7832 9.12279Z" fill="#CAA13E"/>
<path fill-rule="evenodd" clip-rule="evenodd" d="M7.29481 11.7155C7.29481 11.7155 7.25002 11.6043 7.29481 11.3874C7.33961 11.1705 7.40958 11.0683 7.43286 10.7492C7.45615 10.43 7.66417 10.0319 7.66417 10.0319L8.23966 9.77026L8.64672 9.88137L8.7668 10.4265L8.25218 10.7101C8.25218 10.7101 8.22535 10.8302 8.08009 10.927C7.93483 11.0238 7.73402 11.0991 7.68568 11.1978C7.65678 11.2583 7.63569 11.3221 7.62292 11.3879C7.62292 11.3879 7.47589 11.3574 7.38807 11.4542C7.29481 11.5529 7.29836 11.6407 7.29481 11.716V11.7155Z" fill="#F4EFC8"/>
<path fill-rule="evenodd" clip-rule="evenodd" d="M8.45616 11.5703C8.45616 11.5703 8.4077 11.6008 8.37189 11.6767C8.33643 11.6194 8.25169 11.2786 8.24814 10.972C8.24459 10.6654 8.22627 10.5894 8.29719 10.4838C8.36811 10.3781 8.64622 10.2668 8.60674 10.0765C8.56727 9.8954 8.40227 9.82011 8.19968 9.87212C8.05785 9.90757 7.9523 10.2092 7.80526 10.3598C7.69404 10.4745 7.56143 10.4566 7.52562 10.5193C7.47716 10.6036 7.52195 10.6879 7.50765 10.7417C7.50399 10.7596 7.45919 10.8564 7.37846 10.973C7.21535 11.2078 6.93925 11.5396 6.90332 11.8372C6.91585 11.6687 6.90698 11.6651 6.95178 11.4786L6.92483 11.4338L7.10212 10.8529L7.21689 10.3742L7.47337 9.57261L7.92511 8.75329L8.36444 8.26196L8.82162 8.29246L8.8754 8.97916L9.1372 10.2684L9.68763 10.9461L8.80543 11.5398L8.45581 11.5703H8.45616Z" fill="#EBCC73"/>
<path fill-rule="evenodd" clip-rule="evenodd" d="M8.73067 11.8138C8.73067 11.8138 8.65538 11.8318 8.62843 11.8175C8.60149 11.8032 8.57477 11.787 8.58364 11.769C8.5925 11.751 8.64096 11.7207 8.64096 11.7062C8.64196 11.6932 8.63784 11.6803 8.62947 11.6703C8.62111 11.6602 8.60916 11.6538 8.59617 11.6525C8.55492 11.6471 8.54239 11.674 8.54239 11.674C8.54239 11.674 8.50291 11.6436 8.47076 11.6385C8.48978 11.6362 8.50892 11.635 8.52809 11.6349C8.47854 11.6124 8.42598 11.5973 8.37207 11.5901C8.41687 11.5632 8.5048 11.4843 8.56213 11.4843C8.61945 11.4843 8.65538 11.4754 8.6464 11.4449C8.63742 11.4144 8.59262 11.3696 8.54428 11.3517C8.56213 11.3301 8.57477 11.2979 8.53175 11.2098C8.48684 11.122 8.5048 11.0628 8.51922 11.0414C8.53175 11.0144 8.57655 10.9661 8.59806 10.9356C8.61957 10.9051 8.63754 10.8639 8.67335 10.8423C8.69131 10.8298 8.74864 10.8069 8.80608 10.785C8.86884 10.7635 8.92085 10.7366 8.95666 10.7635C8.99614 10.7903 8.97817 10.8263 8.97817 10.8263C8.97817 10.8263 9.10192 10.7813 9.21303 10.8388C9.32425 10.8925 9.59503 10.9266 9.59503 10.9266L9.69207 11.1221L9.05015 11.6726L8.78481 11.8053L8.73103 11.8142L8.73067 11.8138Z" fill="#E5C66B"/>
<path fill-rule="evenodd" clip-rule="evenodd" d="M9.62159 10.914C9.62159 10.914 9.42255 11.0468 9.37776 11.0951C9.40459 11.0988 9.44938 11.1168 9.43142 11.1436C9.4099 11.1704 9.28084 11.2637 9.20909 11.3516C9.1338 11.4394 9.06206 11.5506 9.037 11.6044C9.01017 11.6528 8.80569 11.7945 8.73584 11.8123C8.88287 11.8123 9.17872 11.6313 9.28982 11.6313C9.28627 11.685 9.32031 11.746 9.38307 11.7513C9.44584 11.7567 9.62691 11.7908 9.87075 11.6402C10.1146 11.4932 10.034 11.3838 10.1361 11.3121C10.3316 11.1829 10.4104 11.0682 10.518 10.9965C10.6255 10.9249 10.6812 10.9086 10.6812 10.9086C10.6812 10.9086 10.6848 10.8548 10.7167 10.8603C10.7254 10.8613 10.7337 10.8646 10.7407 10.87C10.7476 10.8754 10.753 10.8826 10.7561 10.8908C10.7561 10.8908 10.9427 10.758 11.1816 10.7222C11.1761 10.7197 11.1716 10.7153 11.1691 10.7097C11.1691 10.7097 11.187 10.7007 11.1906 10.6917C11.1906 10.6917 11.2032 10.6738 11.2121 10.6827C11.2211 10.6917 11.2336 10.758 11.2516 10.785C11.2911 10.767 11.3664 10.5985 11.3664 10.5985L11.5476 10.0803V9.60693L11.4057 9.63388L10.342 10.0856L9.69641 10.7545L9.62112 10.914H9.62159Z" fill="#E6BD62"/>
<path fill-rule="evenodd" clip-rule="evenodd" d="M12.6845 8.59202C12.742 8.57806 12.7972 8.55568 12.8482 8.52559C12.8267 8.58304 12.8267 8.6458 12.7334 8.78208C12.6402 8.91836 12.6366 8.9381 12.5613 9.0797C12.486 9.22673 12.4771 9.4383 12.4053 9.53144C12.4375 9.51582 12.472 9.50556 12.5074 9.50107C12.5074 9.50107 12.4358 9.56383 12.4053 9.63014C12.3748 9.69644 12.321 9.8345 12.1884 9.91889C12.0558 10.0033 11.8872 10.0569 11.7061 10.256C11.5249 10.4514 11.3385 10.6989 11.2451 10.7879C11.2936 10.7036 11.3599 10.535 11.3778 10.4239C11.3958 10.3128 11.3742 10.18 11.4047 10.0331C11.4352 9.88615 11.4352 9.78024 11.582 9.52376C11.7288 9.26727 11.9801 8.37619 11.9801 8.37619L12.5215 8.2041L12.6847 8.59143L12.6845 8.59202Z" fill="#B6933F"/>
<path fill-rule="evenodd" clip-rule="evenodd" d="M12.2934 8.26392C12.2934 8.26392 12.1303 8.49877 12.0855 8.70679C12.0407 8.91482 12.0818 8.89685 12.055 8.99909C12.039 9.06142 12.039 9.12681 12.055 9.18915C12.1115 9.09814 12.1888 9.02189 12.2806 8.9667C12.4349 8.87357 12.5604 8.80714 12.6352 8.7283C12.7105 8.64403 12.7733 8.50598 12.9364 8.4002C12.8701 8.39121 12.7768 8.36072 12.7591 8.36474C12.8255 8.28945 13.0244 8.17468 13.2252 8.03663C13.4243 7.89479 13.4118 7.83759 13.7345 7.69599C13.6288 7.71396 13.5785 7.68701 13.4906 7.69599C13.526 7.6207 13.6501 7.58477 13.7743 7.46114C13.8984 7.33751 13.6954 7.15454 13.6954 7.15454L12.7499 7.72649L12.2927 8.26439L12.2934 8.26392Z" fill="#C49937"/>
<path fill-rule="evenodd" clip-rule="evenodd" d="M9.72754 7.83718L9.74905 7.66509L10.0198 7.2312L10.3031 6.4692V5.42743L10.2816 4.82499L10.3264 4.43046L10.3605 4.30505L10.3964 4.25659L10.6276 4.37668L10.9468 4.81057L10.9773 5.64798L10.6671 6.9694L9.78132 7.93587L9.72754 7.83718V7.83718Z" fill="#DFC068"/>
<path fill-rule="evenodd" clip-rule="evenodd" d="M10.4324 4.20806C10.4324 4.20806 10.2906 4.21172 10.2604 4.80163C10.2301 5.39154 10.2154 5.70168 10.1939 5.99398C10.1724 6.28627 10.1223 6.46369 10.0971 6.63589C10.072 6.8081 10.0577 7.04284 9.97704 7.18633C9.94159 7.25263 9.86582 7.46066 9.6883 7.61667C9.48926 7.78877 9.19188 7.90897 9.14685 7.91795C9.0679 7.9358 8.66805 7.97528 8.50494 8.06499C8.44762 8.09548 8.34892 8.13129 8.2396 8.23353C8.02259 8.42891 7.73396 8.77853 7.52594 9.19989C7.20682 9.82928 6.8877 11.6061 6.8877 11.6061L6.95944 11.486C6.95944 11.486 6.96842 11.3265 7.12798 11.0467C7.284 10.767 7.2392 10.4532 7.45609 9.9171C7.54036 9.71274 7.64614 9.44739 7.77521 9.2214C7.97969 8.85382 8.22707 8.53824 8.47634 8.36615C8.88328 8.0865 9.33159 8.02551 9.33159 8.02551L9.81394 7.70638C9.81394 7.70638 9.89821 7.54328 10.0094 7.35676C10.1653 7.09508 10.364 6.80279 10.4074 6.37788C10.4738 5.74849 10.3141 5.33611 10.3231 4.9632C10.3321 4.5903 10.3356 4.31597 10.4111 4.24954C10.4865 4.18312 10.4326 4.20829 10.4326 4.20829L10.4324 4.20806Z" fill="#A88F33"/>
<path fill-rule="evenodd" clip-rule="evenodd" d="M10.4322 7.02321C10.4322 7.02321 10.645 6.49961 10.7424 6.03522C10.7603 5.94197 10.7962 5.84883 10.8051 5.77354C10.8499 5.33421 10.8625 5.15313 10.8051 4.91284C10.7603 4.73555 10.5883 4.57575 10.4985 4.45189C10.4107 4.3227 10.3695 4.27459 10.3874 4.24741C10.4054 4.22022 10.4753 4.17578 10.5433 4.1811C10.6157 4.18321 10.6869 4.20001 10.7526 4.23049C10.8182 4.26097 10.877 4.30448 10.9254 4.35839C11.0634 4.51796 11.1727 5.05952 11.1727 5.05952L11.2877 5.77413L11.58 6.67418L10.4325 7.02392L10.4322 7.02321Z" fill="#C99E3D"/>
<path fill-rule="evenodd" clip-rule="evenodd" d="M12.4316 6.47799C12.4316 6.47799 12.3921 6.49584 12.3205 6.47799C12.3236 6.50726 12.3185 6.5368 12.3058 6.56337C12.2932 6.58994 12.2734 6.6125 12.2488 6.62857C12.1735 6.59807 11.4687 6.65906 11.4687 6.65906C11.4687 6.65906 11.1406 6.60162 11.0383 6.16773C10.9667 5.87898 11.0921 5.48102 11.0509 5.21921C10.9881 4.83366 10.9003 4.75825 10.8913 4.63829C10.8823 4.51832 10.8733 4.48771 10.8733 4.41242C10.8339 4.40343 10.8106 4.39091 10.7712 4.39091C10.7622 4.35545 10.7801 4.32448 10.7407 4.26172C10.7622 4.2707 10.9093 4.28867 11.0814 4.45178C11.2232 4.58451 11.2232 4.63285 11.2446 4.6598C11.2714 4.68663 11.4884 4.87255 11.5817 5.05788C11.6749 5.24321 11.856 5.83418 11.8973 5.93098C11.9098 5.97046 11.9367 6.00994 12.0036 6.09953C12.1076 6.22871 12.26 6.44229 12.4321 6.47775L12.4316 6.47799Z" fill="#B58634"/>
<path fill-rule="evenodd" clip-rule="evenodd" d="M11.2695 4.66895C11.3781 4.84441 11.4757 5.02646 11.5617 5.21406C11.6675 5.45246 11.7303 5.64795 11.863 5.80751C11.7912 5.59961 11.6639 5.19077 11.5887 5.04551C11.5044 4.89186 11.3323 4.72639 11.2695 4.66906V4.66895Z" fill="#A88F33"/>
<path fill-rule="evenodd" clip-rule="evenodd" d="M10.0499 7.61657C10.0499 7.61657 9.86886 7.66137 9.53178 7.8389C9.42056 7.89622 9.3149 7.94456 9.21266 7.98948C8.94708 8.10956 8.66224 8.22055 8.43626 8.28177C8.45422 8.30328 8.46309 8.31215 8.46309 8.31215C8.46309 8.31215 8.46309 8.40009 8.51154 8.4502C8.48471 8.47715 8.126 8.72098 8.2319 9.53676C8.30353 9.50993 8.3878 9.474 8.40033 9.474C8.42195 9.47767 8.42727 9.53676 8.4541 9.53676C8.48093 9.53676 8.56887 9.50131 8.66212 9.38075C8.65858 9.42921 8.6048 9.91688 8.89342 10.245C8.9472 10.1822 9.08348 9.9742 9.08348 9.9742L9.08702 9.9079C9.08702 9.9079 9.09955 9.67659 9.17496 9.46502C9.25036 9.25345 9.39728 9.09743 9.39728 9.09743L10.1645 8.00189L10.0497 7.61646L10.0499 7.61657Z" fill="#E6C367"/>
<path fill-rule="evenodd" clip-rule="evenodd" d="M9.33288 9.22533C9.29776 9.25015 9.25906 9.26948 9.21812 9.28266C9.20559 9.23786 9.18762 9.08362 9.29341 8.93304C9.41716 8.75184 9.68782 8.51699 9.76311 8.33024C9.81157 8.21003 9.79006 7.90887 10.2204 7.52331C10.6508 7.13776 10.8192 7.00514 10.8192 7.00514L11.5149 6.65552L12.3701 6.99261L11.9452 8.65799L11.6153 9.43809L10.3034 9.1907L9.33276 9.22533H9.33288Z" fill="#DCBA5A"/>
<path fill-rule="evenodd" clip-rule="evenodd" d="M9.83398 8.77322L9.99721 8.56886V8.4236C9.99721 8.4236 10.1783 8.37514 10.3737 8.1761C10.569 7.97706 10.8398 7.59517 11.0783 7.61845C11.3169 7.6454 11.3402 8.13662 11.3491 8.27479C11.3581 8.41296 11.3886 8.72654 11.437 8.8952C11.4907 9.06375 10.856 9.70201 10.856 9.70201L10.425 10.0301L9.83398 8.77322Z" fill="#E9CE77"/>
<path fill-rule="evenodd" clip-rule="evenodd" d="M10.3389 10.4746C10.3389 10.4746 10.4716 10.2666 10.3743 10.2218C10.4316 10.0927 10.5374 9.95641 10.5374 9.95641C10.5374 9.95641 10.6127 9.77002 10.8565 9.54048C11.1004 9.31095 11.2511 9.15848 11.2905 9.00435C11.3149 8.9039 11.3281 8.80109 11.33 8.69775C11.3564 8.71929 11.3846 8.73847 11.4143 8.75508C11.4538 8.77304 11.6402 8.92717 11.6133 9.23743C11.5865 9.54769 11.4715 9.67676 11.4715 9.67676C11.4715 9.67676 11.3604 9.78786 11.2816 9.84531C11.1972 9.90263 11.1668 9.96894 11.0251 9.97438C11.0397 9.9628 11.056 9.95369 11.0735 9.94743C11.0735 9.94743 10.9265 9.92958 10.8476 10.0012C10.7686 10.0728 10.6008 10.2935 10.5165 10.3599C10.4322 10.4137 10.3392 10.4747 10.3392 10.4747L10.3389 10.4746Z" fill="#CDAE50"/>
<path fill-rule="evenodd" clip-rule="evenodd" d="M16.3009 6.98734C16.089 6.91014 15.8664 6.86659 15.6411 6.85827C15.2646 6.84574 14.7141 6.86725 14.1745 6.8708C13.5935 6.87435 13.0664 6.67176 12.3349 6.63594C12.2148 6.5642 11.9094 6.25039 10.9561 6.9156C11.0134 6.91205 11.6482 6.76856 11.8686 7.04478C12.0909 7.31912 12.0282 7.78528 11.9978 7.89638C11.9404 8.14389 11.7539 8.50426 11.6787 8.75708C11.6035 9.00991 11.6212 9.14276 11.5675 9.32005C11.5137 9.49734 11.3954 9.5854 11.4652 9.78976C11.5585 9.73244 11.6071 9.73244 11.7628 9.38281C11.9186 9.03319 11.8866 8.78392 12.1448 8.48807C12.3977 8.19045 12.8185 7.78339 12.9786 7.68115C13.1386 7.57891 14.4093 6.91914 15.7398 7.54853C16.0607 7.51449 16.301 6.98722 16.301 6.98722L16.3009 6.98734Z" fill="#D2A83E"/>
<path fill-rule="evenodd" clip-rule="evenodd" d="M11.492 6.74326C11.4907 6.72978 11.4877 6.71652 11.4832 6.70378C11.4707 6.67756 11.4544 6.65337 11.4347 6.63203C11.4347 6.63203 11.1191 6.57471 10.9596 6.59256C10.6798 6.62305 10.427 6.96913 10.3087 7.14666C10.1904 7.32419 10.0433 7.5984 9.88377 7.74012C9.88552 7.72632 9.88234 7.71233 9.87479 7.70064C9.87479 7.70064 9.88377 7.71317 9.86592 7.73114C9.84807 7.7491 9.84796 7.75797 9.85694 7.7666L9.88389 7.79343C9.89275 7.79343 10.1402 7.68221 10.4773 7.36792C10.8359 7.03981 11.1103 6.8715 11.2538 6.81382C11.3303 6.7813 11.4103 6.75763 11.4922 6.74326H11.492Z" fill="#C29637"/>
<path fill-rule="evenodd" clip-rule="evenodd" d="M17.6131 5.39526C17.6131 5.39526 17.5556 5.46689 17.4839 5.54584C17.3243 5.71439 17.1163 5.90433 16.9388 6.09983C16.7704 6.28634 16.5803 6.4316 16.3668 6.67544C16.1534 6.91927 15.9059 7.18994 15.8432 7.2689C15.7859 7.34785 15.7411 7.47692 15.7411 7.54323C15.7106 7.52172 15.6748 7.49843 15.6748 7.49843C15.6899 7.52658 15.7079 7.55305 15.7286 7.57739C15.7734 7.64015 15.8432 7.71922 15.8792 7.76744C15.9232 7.82883 15.9549 7.89826 15.9723 7.9718C15.9938 7.97535 16.1319 8.0023 16.3041 7.71898C16.4763 7.43567 16.702 7.12553 16.702 7.12553L17.0606 6.59294L17.2866 6.14119L17.5703 5.63555L17.6134 5.39526H17.6131Z" fill="#AC8132"/>
<path fill-rule="evenodd" clip-rule="evenodd" d="M17.9809 5.03296C17.9809 5.03296 17.7639 5.21025 17.6797 5.31663C17.5954 5.42301 17.396 5.70219 17.396 5.70219L17.4677 5.69321L17.8318 5.37053L17.9736 5.11771L17.9808 5.03343L17.9809 5.03296Z" fill="#A88F33"/>
<path fill-rule="evenodd" clip-rule="evenodd" d="M17.9145 19.282C17.9145 19.282 17.911 19.135 17.9935 19.0471C18.0777 18.9592 18.2911 18.8301 18.4991 18.346C18.7071 17.8619 18.7303 17.7526 18.7303 17.7526C18.7303 17.7526 18.3574 18.0717 18.1275 18.147C18.1813 18.0358 18.2118 17.9569 18.2387 17.8995C18.2082 17.8726 18.0792 17.8421 18.0666 17.8278C18.1383 17.7561 18.1777 17.5803 18.323 17.4638C18.5095 17.322 18.8501 17.0783 19.1149 16.861C19.3797 16.6438 19.9002 16.1385 19.9666 15.9915C20.0061 16.0488 20.015 16.0846 20.015 16.0846C20.015 16.0846 19.7533 16.4253 19.617 16.6422C19.4968 16.8287 19.5058 16.9345 19.5058 16.9345L19.7533 16.8282C19.7533 16.8282 19.8249 17.0935 19.5005 17.497C19.6423 17.4432 19.6995 17.4755 19.7801 17.4306C19.6474 17.515 19.4645 17.6298 19.2924 17.9452C19.1239 18.2608 18.8944 18.6284 18.5071 18.8578C18.1306 19.0999 17.9136 19.2809 17.9136 19.2809L17.9145 19.282Z" fill="#A67A2E"/>
<path fill-rule="evenodd" clip-rule="evenodd" d="M16.9424 7.17378C16.9424 7.17378 16.7953 7.48026 16.7738 7.71877C16.7703 7.77622 16.7559 7.82101 16.7559 7.88732C16.7523 8.10066 16.7684 8.33917 16.7204 8.45027C16.7024 8.40548 16.6935 8.37498 16.6755 8.35714C16.6487 8.43243 16.6002 8.66728 16.5607 8.75509C16.5429 8.69777 16.5034 8.49873 16.5071 8.26388C16.5107 8.02903 16.5159 7.98412 16.5159 7.93578C16.5071 8.0074 16.4586 8.10432 16.4406 8.16164C16.4138 8.1133 16.3833 8.05054 16.3474 7.99854C16.3259 8.034 16.2991 8.08636 16.2758 8.1133C16.2721 8.09179 16.2632 8.03435 16.2578 7.95374C16.2543 7.86049 16.2488 7.7404 16.2543 7.71523C16.2631 7.66689 16.3385 7.47683 16.4981 7.30285C16.6881 7.09483 16.8836 6.6951 16.9409 6.57135C16.9983 6.4476 17.2421 5.93311 17.2421 5.93311H17.4286L17.1578 6.54984C17.1578 6.54984 16.9947 6.88693 16.9105 7.01079C16.8262 7.13466 16.6487 7.4896 16.5697 7.62765C16.627 7.55236 16.6755 7.51288 16.7329 7.44114C16.7885 7.3909 16.9426 7.17402 16.9426 7.17402L16.9424 7.17378Z" fill="#8C6228"/>
<path fill-rule="evenodd" clip-rule="evenodd" d="M17.9848 5.00952C17.9544 5.10329 17.9062 5.19035 17.843 5.266C17.7318 5.39874 17.4933 5.57615 17.3769 5.71774C17.2705 5.8558 17.0578 6.23236 17.1544 6.67878C17.1899 6.58198 17.2567 6.39015 17.4342 6.17315C17.6117 5.95614 17.8018 5.70699 17.8951 5.51339C17.9883 5.31789 18.0008 5.16377 18.0008 5.16377L18.0363 5.11897L18.0147 5.01673L17.9843 5.00952H17.9848Z" fill="#CBA94C"/>
<path fill-rule="evenodd" clip-rule="evenodd" d="M21.6153 16.9026C21.6153 16.9026 21.5436 16.7072 21.5221 16.5297C21.5006 16.3521 21.5575 16.3169 21.4916 16.1137C21.4521 15.99 21.3805 16.0073 21.3625 15.99C21.3446 15.9726 21.332 15.7856 21.3356 15.6834C21.3391 15.5811 21.332 15.4485 21.3141 15.3911C21.2872 15.3696 21.2693 15.3516 21.2298 15.219C21.185 15.0863 21.1635 15.02 21.142 14.9806C21.1205 14.9412 21.0576 14.9053 21.0576 14.8658C21.0576 14.7869 21.1293 14.7457 21.1293 14.724C21.1258 14.6792 21.072 14.7151 21.0576 14.7025C21.0397 14.681 21.1025 14.5519 21.0792 14.5339C21.0702 14.5251 21.0075 14.6004 20.9913 14.5788C20.9733 14.5572 20.9518 14.3439 20.9195 14.2023C20.8892 14.0642 20.8568 13.9639 20.8532 13.9226C20.8497 13.8832 20.6057 13.1875 20.5466 13.0189C20.499 12.8765 20.4589 12.7317 20.4265 12.585C20.4086 12.5007 20.396 12.3285 20.3871 12.3465C20.3781 12.3645 20.3835 12.4523 20.3691 12.4487C20.3566 12.4451 20.3118 12.1386 20.2975 12.0901C20.2849 12.0417 20.2095 11.8774 20.1911 11.7585C20.1731 11.6383 20.1338 11.3245 20.1068 11.1111C20.0799 10.8978 20.0673 10.81 20.0673 10.7565C20.0717 10.6259 20.0645 10.4951 20.0458 10.3657C20.0104 10.1397 19.9395 9.86536 19.8773 9.70592C19.7572 9.40464 19.4379 8.63365 19.3809 8.44182C19.3809 8.39337 19.4436 8.42031 19.4436 8.42031C19.4436 8.42031 19.5995 8.81118 19.7143 9.11234C19.8255 9.41362 19.9313 9.67897 19.9582 9.70592C19.9798 9.73275 20.1483 10.0286 20.2236 10.5127C20.2989 10.9968 20.3257 11.4433 20.3706 11.7409C20.3921 11.8827 20.4101 12.0332 20.4549 12.1838C20.5032 12.347 20.5785 12.5155 20.6772 12.7737C20.7615 12.9907 20.8243 13.1717 20.8583 13.3278C20.8978 13.5268 20.8978 13.6774 20.9211 13.7761C20.9427 13.8603 20.9748 14.0288 21.0503 14.2725C21.1257 14.5162 21.2366 14.8301 21.3119 15.0255C21.4591 15.4164 21.5247 15.7427 21.5469 15.9167C21.5665 16.096 21.633 16.7164 21.615 16.9028L21.6153 16.9026Z" fill="#A88F33"/>
<path fill-rule="evenodd" clip-rule="evenodd" d="M17.9936 4.98794L17.9847 5.00946C17.9847 5.00946 18.0115 5.01844 18.0062 5.05437C18.0065 5.10353 18.0035 5.15266 17.9972 5.20141C17.9883 5.26417 17.9703 5.31251 17.9668 5.35199C17.9668 5.43626 17.9793 5.53306 17.8604 5.77335C17.825 5.83966 17.8031 5.89699 17.7851 5.93646C17.7404 6.03326 17.7314 6.04768 17.6919 6.09248C17.7547 6.05702 17.9806 5.91519 18.0953 5.93646C18.0164 5.98126 17.8962 6.0692 17.821 6.18396C17.8389 6.18751 17.9142 6.20193 18.0337 6.18396C18.2327 6.15347 18.4551 6.08172 18.6504 6.09603C18.8639 6.10855 18.7796 5.83966 18.7796 5.83966L18.5333 5.29821L18.0671 4.97021L17.9936 4.98806V4.98794Z" fill="#BE9C44"/>
<path fill-rule="evenodd" clip-rule="evenodd" d="M19.209 9.04383C19.209 9.04383 19.001 8.8358 18.9167 8.12191C18.8324 7.4047 18.8504 6.34899 18.8504 6.34899L18.6818 5.9366C18.6818 5.9366 18.6464 5.66227 18.5581 5.56015C18.4698 5.45803 18.2964 5.28582 18.2174 5.20155C18.1385 5.11728 18.0489 5.00251 17.9951 4.98455C18.0219 4.93975 18.1422 4.68693 18.6029 4.68339C19.0636 4.67984 19.2057 4.9362 19.2538 5.02946C19.3019 5.12272 19.5191 5.52588 19.5997 6.29414C19.675 7.06146 19.6787 7.11891 19.6662 7.38425C19.6572 7.53129 19.6087 7.87192 19.5243 8.23585C19.4473 8.54433 19.363 8.88864 19.2087 9.04453L19.209 9.04383Z" fill="#A17C34"/>
<path fill-rule="evenodd" clip-rule="evenodd" d="M18.5565 9.6554C18.6258 9.66041 18.6951 9.64478 18.7555 9.61049C18.8219 9.60695 19.0622 9.63744 19.2468 9.40259C19.2593 9.45625 19.2917 9.60163 19.2073 9.73069C19.2522 9.68578 19.3185 9.66793 19.3275 9.6554C19.3311 9.72171 19.3938 9.92607 19.1285 10.4227C19.2001 10.3439 19.2844 10.3474 19.3597 10.3384C19.3633 10.4317 19.4135 10.7454 19.2808 10.914C19.193 11.0288 19.0495 10.9929 19.0495 10.9929C19.0516 10.9678 19.0516 10.9426 19.0495 10.9176C19.046 10.8691 19.028 10.8208 19.0407 10.7885C18.9713 10.7569 18.9082 10.7131 18.8541 10.6593C18.6981 10.5123 18.4955 10.2614 18.4812 10.0749C18.4632 9.86685 18.6498 9.82206 18.6498 9.82206C18.6341 9.80808 18.6208 9.79173 18.6103 9.7736C18.6013 9.74322 18.5923 9.69476 18.5565 9.6554V9.6554Z" fill="#8C6228"/>
<path fill-rule="evenodd" clip-rule="evenodd" d="M17.174 7.39959C17.174 7.39959 17.165 7.38706 17.1167 7.44438C17.1257 7.38706 17.1347 7.33316 17.1382 7.28115C17.1611 7.23301 17.1907 7.18836 17.2261 7.14854C17.1992 7.2022 17.1812 7.25066 17.1812 7.25066C17.1812 7.25066 17.2477 7.12691 17.3445 7.05162C17.4108 6.99784 17.495 6.97278 17.5308 6.92255C17.5703 6.86877 17.5613 6.85979 17.5703 6.85081C17.5703 6.85081 17.6583 6.79348 17.7928 6.62482C17.8106 6.60331 17.8375 6.58002 17.8555 6.55851C17.8859 6.54598 17.9576 6.51372 18.0419 6.47058C18.1298 6.42223 18.2284 6.35593 18.2894 6.32874C18.4095 6.27496 18.5369 6.2804 18.596 6.19601C18.6408 6.18348 18.6891 6.04898 18.6803 5.93433C18.7466 5.96116 19.0872 6.17272 19.2038 6.63534C19.2881 6.96345 19.1374 7.46908 19.0747 7.71304C19.0119 7.95699 19.003 8.13795 18.9151 8.24905C18.8039 8.3962 18.4454 8.60363 18.3575 8.70635C18.2822 8.79062 18.0563 9.00396 18.0652 9.15809C18.0742 9.27285 18.2158 9.33538 18.2464 9.35713C18.277 9.37887 18.2767 9.40559 18.3342 9.39258C18.3916 9.37958 18.413 9.35311 18.4364 9.35311C18.4633 9.35665 18.4633 9.36209 18.4758 9.36209C18.4849 9.36182 18.4939 9.36059 18.5027 9.35843C18.5027 9.35843 18.4937 9.52165 18.1119 9.57118C18.0849 9.57484 18.0581 9.58371 18.0239 9.58914C18.0689 9.56763 18.0957 9.56763 18.1441 9.50132C18.0904 9.49234 17.9361 9.48336 17.8966 9.47083C17.9092 9.44932 17.9504 9.39188 17.9845 9.36505C18.015 9.33822 17.9809 9.32959 17.9541 9.34353C17.9079 9.37496 17.8636 9.40906 17.8214 9.44565C17.7766 9.48513 17.7371 9.53891 17.6653 9.58749C17.6438 9.51574 17.6474 9.37947 17.7318 9.28089C17.7101 9.28444 17.6689 9.3472 17.6295 9.33467C17.6224 9.26927 17.6267 9.20313 17.6421 9.13917C17.6636 9.05845 17.7801 8.91685 17.7801 8.91685L18.3431 7.9109L18.4631 7.14889L17.174 7.39935V7.39959Z" fill="#92723A"/>
<path fill-rule="evenodd" clip-rule="evenodd" d="M17.1433 7.44262C17.1433 7.44262 17.1128 7.46413 17.1738 7.50538C17.1648 7.51791 17.1433 7.5627 17.1164 7.5932C17.086 7.62866 17.0536 7.65064 17.0411 7.68114C17.0142 7.7439 16.9927 7.78692 16.9927 7.81387C16.9927 7.84082 16.9837 8.01291 16.9084 8.12401C16.8815 8.16349 16.851 8.2298 16.8295 8.27459C16.7847 8.35343 16.7452 8.41642 16.7362 8.45188C16.7184 8.51464 16.7058 8.68674 16.7058 8.68674C16.7058 8.68674 16.7453 8.63828 16.7596 8.62043C16.738 8.66522 16.7147 8.71357 16.6807 8.7495C16.7022 8.73153 16.7649 8.68674 16.8707 8.59348C17.0178 8.46985 17.2473 8.26183 17.5271 8.09706C17.4427 8.12756 17.3711 8.12756 17.3138 8.13654C17.3585 8.09174 17.762 7.61837 17.9736 7.57358C17.9864 7.55729 17.9928 7.53684 17.9915 7.51614L17.8103 7.49829L17.4427 7.57712L17.389 7.29346L17.1433 7.44226V7.44262Z" fill="#B18E3E"/>
<path fill-rule="evenodd" clip-rule="evenodd" d="M17.7284 9.05641C17.7284 9.05641 17.6799 9.10475 17.6351 9.22495C17.6007 9.18894 17.5711 9.14852 17.5472 9.10475C17.4809 8.99365 17.3788 8.85193 17.1403 8.93266C17.1367 8.85737 17.1313 8.81789 17.1403 8.76411C17.1797 8.75525 17.2998 8.65845 17.4199 8.51673C17.5043 8.41993 17.5831 8.30871 17.6369 8.16711C17.6724 8.14016 17.7337 8.09537 17.8142 8.04336C17.929 7.96453 18.067 7.85685 18.0885 7.73677C18.0348 7.75828 17.92 7.81206 17.7478 7.80319C17.8142 7.7727 17.9163 7.74043 17.9038 7.6077C17.9308 7.58973 17.9523 7.5772 17.9523 7.5772C17.9321 7.57046 17.9108 7.56742 17.8895 7.56822C17.8858 7.55569 17.8805 7.53784 17.85 7.54671C17.8195 7.55557 17.8146 7.55569 17.8105 7.56822C17.798 7.57188 17.7568 7.56822 17.7263 7.58985C17.6958 7.61148 17.6115 7.68299 17.5792 7.69552C17.5918 7.674 17.6096 7.64186 17.6096 7.64186C17.6096 7.64186 17.5218 7.65072 17.459 7.67731C17.3443 7.71679 17.2117 7.78853 17.0771 7.85839C17.0897 7.83688 17.0951 7.82293 17.104 7.81891C17.1128 7.81489 17.1345 7.81005 17.1345 7.80638C17.1345 7.80272 17.1256 7.77092 17.1309 7.75804C17.1711 7.67285 17.2186 7.59127 17.2728 7.51421C17.3355 7.42981 17.348 7.30973 17.348 7.30973L17.6224 7.17168L18.3934 6.99438L18.8937 7.02488L18.8309 7.37095L18.5354 7.97516L18.2826 8.5256L17.9939 8.86281L17.7285 9.05641H17.7284Z" fill="#543E26"/>
<path fill-rule="evenodd" clip-rule="evenodd" d="M18.9781 7.55871C18.9781 7.55871 18.6768 7.93162 18.5925 7.98906C18.6463 7.87429 18.9781 7.19113 19.0982 7.00107C19.0713 6.97956 19.0354 6.97956 19.1197 6.64648C19.048 6.81491 19.0229 6.90285 18.9638 6.94764C18.9047 6.99244 18.8973 6.97814 18.8574 6.97814C18.8649 6.96449 18.868 6.94883 18.8662 6.93334C18.8662 6.93334 18.6134 6.90285 18.4407 6.90285C18.268 6.90285 17.9262 6.9961 17.736 7.07139C17.5855 7.13416 17.5012 7.13416 17.4474 7.17351C17.3936 7.21831 17.3631 7.26677 17.3362 7.2793C17.3147 7.29183 17.2125 7.32409 17.1891 7.35813C17.1676 7.39359 17.1318 7.43342 17.1318 7.44241C17.1318 7.45139 17.1228 7.46404 17.1498 7.45494C17.1586 7.45139 17.2251 7.41546 17.3004 7.37066C17.4025 7.31334 17.5262 7.24703 17.6159 7.20755C17.8723 7.10532 17.953 7.12328 18.0677 7.10177C18.1878 7.08026 18.36 7.03003 18.4747 7.03003C18.5894 7.02648 18.8064 7.03003 18.8567 7.03901C18.8352 7.05697 18.8172 7.07849 18.8262 7.15378C18.8262 7.17529 18.8082 7.19857 18.7907 7.25058C18.7371 7.39761 18.6348 7.64145 18.578 7.7652C18.4991 7.93362 18.4095 8.07534 18.3652 8.16316C18.3209 8.25098 18.2234 8.48228 18.1268 8.60603C18.0302 8.72978 17.9798 8.80507 17.9495 8.83202C17.9192 8.85897 17.702 9.01842 17.7182 9.07586C17.7577 9.06333 18.0069 8.96948 18.1879 8.76572C18.3689 8.56195 18.4049 8.43761 18.5465 8.32639C18.6881 8.21516 18.7993 8.02877 18.8657 7.87465C18.9212 7.73116 18.9087 7.68636 18.9785 7.55907L18.9781 7.55871Z" fill="#806031"/>
<path fill-rule="evenodd" clip-rule="evenodd" d="M12.485 10.342C12.485 10.342 12.4455 10.5051 12.3558 10.5858C12.268 10.6647 12.1119 10.7328 12.0941 10.8656C12.0726 10.9982 12.2501 11.0646 12.2501 11.0646C12.2501 11.0646 12.1532 11.2242 12.1532 11.3442C12.1532 11.468 12.1496 11.4913 12.1622 11.6096C12.148 11.6187 12.1359 11.6308 12.1267 11.6451C12.1267 11.6451 12.1356 11.7598 12.2235 11.8314C12.3115 11.9031 12.3866 11.9462 12.4314 11.9282C12.4383 11.9429 12.4443 11.9579 12.4494 11.9732C12.4494 11.9732 12.5158 11.8046 12.5606 11.6576C12.6054 11.507 12.6449 11.5284 12.6627 11.3258C12.6806 11.1232 12.8755 10.7754 12.8755 10.7754L13.0085 10.4781L12.7916 10.3096L12.485 10.3418V10.342Z" fill="#B6903C"/>
<path fill-rule="evenodd" clip-rule="evenodd" d="M12.8888 10.6343C12.8441 10.6802 12.8028 10.7293 12.7653 10.7813C12.708 10.8603 12.6632 10.9319 12.5789 10.9625C12.4946 10.9931 12.4408 10.9929 12.4462 11.0773C12.4515 11.1617 12.5304 11.1974 12.5752 11.2404C12.6237 11.2852 12.6632 11.3605 12.6417 11.4449C12.6685 11.4323 12.717 11.4179 12.7618 11.3211C12.8065 11.2243 13.1199 10.6344 13.1199 10.6344H12.8888V10.6343Z" fill="#685026"/>
<path fill-rule="evenodd" clip-rule="evenodd" d="M14.1242 9.27341C14.1242 9.27341 14.151 9.20179 14.1242 9.14978C14.0972 9.09601 13.9341 9.07804 13.8534 9.01705C13.7691 8.95429 13.6669 8.91068 13.5826 8.93822C13.5951 8.90772 13.6454 8.8413 13.6041 8.827C13.5646 8.81447 13.4177 8.88077 13.3782 8.91127C13.3388 8.94176 13.2491 8.97757 13.2312 8.9992C13.2134 9.02083 13.1828 9.06197 13.1648 9.044C13.1468 9.03147 13.138 8.9992 13.1075 9.01705C13.077 9.0349 12.9302 9.1551 12.9031 9.22507C12.876 9.29504 12.8152 9.45106 12.6323 9.62847C12.4495 9.80588 12.3705 9.92076 12.4243 9.98707C12.4781 10.0534 12.5033 10.005 12.5122 10.0624C12.5192 10.1186 12.5161 10.1757 12.5033 10.2309C12.4817 10.3242 12.4459 10.412 12.4943 10.4299C12.618 10.4694 12.7382 10.3945 12.7651 10.4174C12.8188 10.4658 12.7346 10.6397 12.8619 10.6738C12.991 10.7092 13.1183 10.6433 13.1183 10.6433L13.588 10.3905L14.0399 10.1521L14.2711 9.69478L14.1471 9.31289L14.1235 9.27341H14.1242Z" fill="#D4B968"/>
<path fill-rule="evenodd" clip-rule="evenodd" d="M13.6812 10.3654C13.6812 10.3654 13.6022 10.2453 13.6992 10.1394C13.7961 10.0335 13.934 9.9888 13.9878 9.9225C13.9775 9.90987 13.9638 9.90054 13.9483 9.89567C13.984 9.83179 14.0385 9.78042 14.1043 9.74851C14.0775 9.72168 14.0416 9.70017 14.0022 9.70017C13.9143 9.70017 13.8604 9.75395 13.7798 9.75395C13.7009 9.75395 13.692 9.71447 13.692 9.71447C13.692 9.71447 13.8247 9.70195 13.812 9.64273C13.7995 9.57997 13.7766 9.57997 13.7766 9.57997C13.7766 9.57997 14.0329 9.4736 14.0777 9.41686C14.1225 9.36013 14.1172 9.29311 14.1262 9.26628C14.1566 9.26628 14.3341 9.17303 14.4058 9.2125C14.4776 9.25198 14.4273 9.35954 14.4273 9.35954C14.4273 9.35954 14.6445 9.19631 14.7551 9.03628C14.8519 9.04526 14.8969 8.96997 14.9678 8.96997C15.0558 8.96997 15.1938 9.09006 15.2206 9.34642C15.2386 9.49345 15.2654 9.57772 15.2386 9.83775C15.2261 9.98478 15.2296 10.2987 15.2741 10.4545C15.3044 10.5782 15.3762 10.5657 15.3762 10.5657C15.3652 10.6034 15.3434 10.6371 15.3134 10.6625C15.265 10.7073 15.2596 10.8257 15.265 10.8705C15.2721 10.9033 15.2811 10.9356 15.2919 10.9673C15.2919 10.9673 15.2346 11.0336 15.2202 11.0786C15.2076 11.1233 15.1485 11.1538 15.1054 11.1538C15.0623 11.1538 15.0839 11.1502 15.0266 11.1538C14.9692 11.1575 14.9513 11.1664 14.9154 11.1538C14.8794 11.1413 14.8526 11.1269 14.867 11.012C14.8795 10.8972 14.4241 10.6301 14.4241 10.6301L13.6795 10.3648L13.6812 10.3654Z" fill="#CCA849"/>
<path fill-rule="evenodd" clip-rule="evenodd" d="M12.8258 11.4984C12.8258 11.4984 12.9889 11.7154 13.6595 11.7154C13.9787 11.7154 14.0899 11.685 14.156 11.667C14.2277 11.649 14.4966 11.5434 14.7674 11.2241C15.0112 10.9355 14.9574 10.8172 14.9574 10.8172L14.8156 10.7957L14.3546 10.8584L12.9907 11.4393L12.8252 11.4984H12.8258Z" fill="#585136"/>
<path fill-rule="evenodd" clip-rule="evenodd" d="M13.326 11.5523C13.326 11.5523 12.7451 11.6815 12.7451 11.3139C12.7451 10.9553 13.1037 10.5787 13.1934 10.5124C13.2867 10.446 13.509 10.3706 13.509 10.3706H14.0451L14.1473 10.6414L14.1025 11.2258L13.326 11.5522V11.5523Z" fill="#252211"/>
<path fill-rule="evenodd" clip-rule="evenodd" d="M13.8621 10.4801C13.8621 10.4801 13.751 10.3779 13.4982 10.5156C13.2454 10.6533 13.0409 10.9411 13.0284 11.2024C13.0159 11.4336 13.2184 11.6058 13.534 11.6148C13.7689 11.6237 13.9106 11.5968 13.9823 11.5793C13.9644 11.5578 13.8711 11.4413 13.8711 11.4413L13.8623 10.4802L13.8621 10.4801Z" fill="#C3B378"/>
<path fill-rule="evenodd" clip-rule="evenodd" d="M13.7532 10.5374C13.7532 10.5374 13.7263 10.5158 13.6468 10.5589C13.5805 10.5943 13.4837 10.6881 13.4084 10.7544C13.3599 10.7938 13.3295 10.8117 13.302 10.8422C13.1908 10.9749 13.0976 11.1919 13.1515 11.2995C13.2054 11.407 13.3828 11.5307 13.8346 11.4465L13.7519 10.5375L13.7532 10.5374Z" fill="#E6D89C"/>
<path fill-rule="evenodd" clip-rule="evenodd" d="M13.6058 10.7598C13.6058 10.7598 13.5341 10.871 13.5341 11.0485C13.5341 11.2296 13.6363 11.5182 14.0128 11.5398C14.3015 11.5577 14.4951 11.1238 14.7049 10.9553C14.8644 10.8262 14.9612 10.8225 14.9612 10.8225C14.9612 10.8225 14.7981 10.6452 14.3625 10.4156C13.9321 10.1843 13.4498 10.1538 13.188 10.5089C13.3117 10.4999 13.7116 10.3976 13.7116 10.3976L13.9071 10.4604L13.6058 10.7599V10.7598Z" fill="#252211"/>
<path fill-rule="evenodd" clip-rule="evenodd" d="M14.169 10.9946C14.1565 10.9678 14.1475 10.9319 14.1995 10.923C14.2515 10.9141 14.2748 10.9193 14.2927 10.9585C14.3107 10.9976 14.3282 11.0302 14.3016 11.0464C14.2748 11.0607 14.2048 11.0464 14.1689 10.9944L14.169 10.9946ZM14.0847 10.7418C14.0847 10.7418 14.0668 10.7543 14.0758 10.7293C14.0793 10.6989 14.1027 10.645 14.16 10.6577C14.2173 10.6703 14.2049 10.7329 14.1955 10.7509C14.186 10.7689 14.1382 10.7992 14.1022 10.7864C14.0977 10.7852 14.0935 10.783 14.0899 10.7799C14.0864 10.7768 14.0836 10.7729 14.0819 10.7685C14.0801 10.7642 14.0794 10.7594 14.0799 10.7548C14.0803 10.7501 14.0818 10.7456 14.0843 10.7416L14.0847 10.7418Z" fill="#6F674D"/>
<path fill-rule="evenodd" clip-rule="evenodd" d="M9.23145 10.8565C9.23145 10.8565 9.37328 10.9629 9.53804 10.9587C9.70115 10.9551 9.91095 10.7866 10.0077 10.679C10.0651 10.6162 10.1141 10.5499 10.1673 10.4979C10.2122 10.4531 10.2426 10.4316 10.2641 10.4011C10.2946 10.3656 10.3269 10.299 10.3431 10.2773C10.3036 10.3078 10.2463 10.3617 10.187 10.3975C10.1297 10.433 10.006 10.4997 9.95574 10.5176C9.9074 10.5356 9.40531 10.8013 9.40531 10.8013L9.23145 10.8565Z" fill="#AC924C"/>
<path fill-rule="evenodd" clip-rule="evenodd" d="M9.44775 9.53156C9.44775 9.53156 9.52659 9.47778 9.67906 9.44362C9.82609 9.40816 10.1219 9.38086 10.1219 9.38086L10.3658 9.48723L10.4626 9.85482L10.2853 10.2368L10.0594 10.3787L9.80293 9.96628L9.44834 9.53227L9.44775 9.53156Z" fill="#9F8E57"/>
<path fill-rule="evenodd" clip-rule="evenodd" d="M9.12883 9.85981L9.04443 9.9228C9.04443 9.9228 9.06606 9.88333 9.08391 9.76324C9.10176 9.64315 9.19513 9.35085 9.33141 9.1823C9.46769 9.01375 9.46415 9.02274 9.46415 9.02274C9.45161 9.02044 9.43872 9.02085 9.42635 9.02393C9.41398 9.027 9.40241 9.03268 9.3924 9.04058C9.41037 9.00087 9.52513 8.85903 9.6399 8.78811C9.75467 8.7172 9.79947 8.69486 9.91955 8.75266C10.0396 8.81045 10.0701 8.84048 10.1581 8.83693C10.246 8.83338 10.3212 8.74013 10.3212 8.74013C10.3212 8.74013 10.3391 8.79745 10.2728 8.93019C10.2065 9.06292 9.94473 9.33359 9.94473 9.33359L9.39961 9.7065L9.12883 9.86016V9.85981Z" fill="#EAC970"/>
<path fill-rule="evenodd" clip-rule="evenodd" d="M9.53221 9.48681C9.53221 9.48681 9.92674 9.54059 10.0468 9.42948C10.0504 9.44201 10.0648 9.44201 10.0648 9.451C10.0638 9.45777 10.0607 9.46403 10.0558 9.46884C10.0689 9.46676 10.0821 9.46557 10.0953 9.4653C10.1111 9.47 10.1273 9.47301 10.1438 9.47428C10.157 9.47399 10.1702 9.47277 10.1832 9.47062C10.182 9.47953 10.179 9.4881 10.1743 9.49581C10.1697 9.50353 10.1636 9.51024 10.1563 9.51553C10.1742 9.51553 10.1917 9.51908 10.1917 9.53338C10.1917 9.54768 10.1953 9.59082 10.1738 9.5998C10.156 9.60473 10.137 9.60344 10.12 9.59614C10.1214 9.63009 10.1306 9.66325 10.1469 9.69306C10.1824 9.75937 10.258 9.83489 10.3597 9.81314C10.3597 9.81314 10.4134 9.94221 10.1875 10.2291C10.1571 10.2685 10.1247 10.3223 10.0854 10.3671C10.0698 10.401 10.0579 10.4365 10.0499 10.4729C10.0499 10.4729 10.4319 10.3259 10.5412 9.99055C10.6525 9.65346 10.674 9.32181 10.6525 9.01167C10.6488 8.92373 10.6345 8.86109 10.613 8.81617C10.5592 8.70495 10.4085 8.72292 10.3476 8.78568C10.2597 8.87361 10.1127 9.09227 9.90831 9.24285C9.70028 9.39343 9.69142 9.42015 9.53174 9.48681H9.53221Z" fill="#D7BC6B"/>
<path fill-rule="evenodd" clip-rule="evenodd" d="M9.059 9.97091C9.059 9.97091 8.98371 10.0157 8.94423 10.1837C8.90475 10.3558 8.97969 10.5656 9.02307 10.6319C9.06645 10.6982 9.1649 10.8794 9.36915 10.8883C9.4197 10.8881 9.46969 10.8777 9.51618 10.8578C9.58748 10.8252 9.65436 10.7836 9.71523 10.7341C9.80317 10.6678 9.87479 10.6105 9.86581 10.605C9.8443 10.596 9.32435 10.1657 9.32435 10.1657L9.12885 9.94751L9.05888 9.97115L9.059 9.97091Z" fill="#585136"/>
<path fill-rule="evenodd" clip-rule="evenodd" d="M9.55061 10.6844C9.55061 10.6844 9.6564 10.6756 9.71916 10.6361C9.78192 10.5966 9.35156 10.1699 9.35156 10.1699L9.38206 10.6309L9.55061 10.6844Z" fill="#453A25"/>
<path fill-rule="evenodd" clip-rule="evenodd" d="M9.09266 9.93841C9.09266 9.93841 9.03888 10.0406 9.03888 10.0676C9.0299 10.1554 9.05685 10.4315 9.07836 10.5193C9.09987 10.6126 9.21641 10.7542 9.36711 10.7542C9.46024 10.7542 9.58943 10.6969 9.58943 10.6826C9.58943 10.6646 9.4567 10.6471 9.42089 10.5803C9.39937 10.5449 9.39039 10.4567 9.38543 10.3676C9.38188 10.3102 9.38188 10.2475 9.40339 10.2257C9.45185 10.172 9.46072 10.0177 9.46072 10.0177L9.63281 9.698H9.40647L9.13569 9.86654L9.09266 9.93841Z" fill="#84754B"/>
<path fill-rule="evenodd" clip-rule="evenodd" d="M9.02686 10.0373C9.02686 10.0373 9.20414 9.80249 9.36394 9.74859C9.52373 9.6947 9.59524 9.72708 9.59524 9.72708L9.50199 9.9656L9.36926 10.1126L9.37824 10.1879C9.37824 10.1879 9.35661 10.387 9.48934 10.525C9.62207 10.6631 9.72064 10.6577 9.77808 10.6577C9.83552 10.6577 10.0004 10.6093 10.0847 10.4102C10.16 10.2238 10.2227 9.98474 10.0721 9.74505C9.925 9.50653 9.66509 9.49731 9.61486 9.49731C9.56463 9.49731 9.17022 9.51705 9.02686 10.037V10.0373Z" fill="#252211"/>
<path fill-rule="evenodd" clip-rule="evenodd" d="M13.579 10.835C13.5127 10.8046 13.5755 10.6182 13.6418 10.5607C13.7081 10.5033 13.7923 10.4371 13.9395 10.428C13.9932 10.4244 14.0452 10.4585 14.0363 10.4944C14.0238 10.5607 13.9305 10.654 13.8462 10.7203C13.7297 10.8118 13.6543 10.8691 13.579 10.835Z" fill="#F7F7E7"/>
<path fill-rule="evenodd" clip-rule="evenodd" d="M9.99319 9.81834C10.0417 9.81479 10.1044 9.8538 10.1169 9.90628C10.1295 9.96361 10.0865 10.0784 9.99319 10.0784C9.9179 10.0784 9.87842 9.98512 9.87842 9.95829C9.87927 9.93623 9.88543 9.91469 9.89638 9.89552C9.89993 9.89009 9.90891 9.82732 9.99319 9.81834V9.81834Z" fill="#F8F6DE"/>
<path fill-rule="evenodd" clip-rule="evenodd" d="M9.29335 9.85962C9.29335 9.85962 9.1696 9.91694 9.11228 10.0369C9.07132 10.1255 9.05893 10.2246 9.07682 10.3206C9.0858 10.3654 9.1306 10.4765 9.16109 10.5159C9.19159 10.5554 9.23284 10.5823 9.26333 10.5787C9.29383 10.575 9.35647 10.4944 9.35647 10.4461C9.35647 10.3977 9.36014 10.1933 9.41923 10.0821C9.47124 9.97095 9.29371 9.85974 9.29371 9.85974L9.29335 9.85962Z" fill="#D4C38B"/>
<path fill-rule="evenodd" clip-rule="evenodd" d="M9.31156 9.85066C9.29005 9.86318 9.25424 9.88115 9.2631 9.90443C9.27208 9.92594 9.34738 9.93989 9.37432 9.99236C9.40482 10.0461 9.40482 10.1035 9.39584 10.1304C9.41926 10.1193 9.44051 10.1041 9.4586 10.0855C9.49807 10.0407 9.54642 9.97984 9.58767 9.97984C9.61462 9.97984 9.64145 9.99236 9.66662 9.99236C9.7061 9.99236 9.74546 9.97983 9.75089 9.93859C9.75976 9.88481 9.6756 9.83636 9.62714 9.84534C9.63613 9.80988 9.64866 9.75752 9.60918 9.72159C9.5697 9.68567 9.44607 9.74854 9.41912 9.76651C9.39217 9.78447 9.31156 9.85077 9.31156 9.85077V9.85066Z" fill="#E2D59D"/>
<path fill-rule="evenodd" clip-rule="evenodd" d="M12.1609 13.6177L12.4262 13.5393L12.5015 13.5931C12.5015 13.5931 12.5552 13.7079 12.6396 13.7222C12.6126 13.7795 12.5427 13.8285 12.5463 13.8692C12.55 13.9098 12.5858 13.9409 12.5858 13.9409C12.5858 13.9409 12.3473 14.3353 12.8171 14.7328C12.7059 14.7776 12.5643 14.8392 12.489 14.8747C12.5427 14.8872 12.6574 14.9101 12.7059 14.9536C12.7543 14.9971 12.7543 15.0109 12.7991 15.0379C12.8439 15.0648 12.8708 15.1007 12.8619 15.1167C12.8314 15.0988 12.7292 15.0451 12.7113 15.0952C12.6935 15.1453 12.2684 15.1257 12.2684 15.1257L11.5512 15.2638C11.5512 15.2638 11.5781 15.192 11.5028 15.1257C11.415 15.0469 11.3074 15.1293 11.1926 15.0414C11.0421 14.9267 11.0366 14.7939 10.9883 14.7438C11.0366 14.7133 11.1353 14.6685 11.3702 14.6375C11.3612 14.6195 11.3307 14.5657 11.3487 14.5174C11.3702 14.4546 11.4598 14.4151 11.4329 14.3401C11.4724 14.3311 11.4903 14.3311 11.5889 14.2073C11.6822 14.0836 11.7395 14.0568 11.8113 14.0478C11.883 14.0388 11.926 14.0478 12.0588 13.924C12.1519 13.8362 12.1215 13.7609 12.1215 13.7609C12.1215 13.7609 12.1824 13.7412 12.161 13.6174L12.1609 13.6177Z" fill="#CBAC5A"/>
<path fill-rule="evenodd" clip-rule="evenodd" d="M11.3774 13.6578C11.381 13.6398 11.3954 13.6308 11.4922 13.6398C11.589 13.6488 12.2022 13.5825 12.369 13.5735C12.5375 13.561 13.131 13.5698 13.4197 13.6308C13.7085 13.6918 14.0006 13.7635 14.1422 13.7994C14.2841 13.8388 14.3288 13.853 14.3233 13.871C14.3198 13.8889 14.2879 13.9064 14.2695 13.9015C14.2517 13.8979 13.7819 13.7544 13.6367 13.7242C13.4916 13.6939 12.9894 13.613 12.7148 13.6178C12.4584 13.6215 12.3562 13.6143 12.1393 13.6393C11.9223 13.6663 11.5637 13.7021 11.4561 13.6878C11.3497 13.6753 11.3717 13.6753 11.3772 13.6573L11.3774 13.6578Z" fill="#D6BC6F"/>
<path fill-rule="evenodd" clip-rule="evenodd" d="M12.8206 15.0628C12.8206 15.0628 13.1881 15.2619 13.3209 15.5057C13.4177 15.6868 13.2636 15.7765 13.2636 15.7765C13.2636 15.7765 13.4716 15.7765 13.4446 15.8913C13.4321 15.9629 13.086 16.1565 12.8547 16.2587C12.6199 16.361 12.6288 16.3556 12.5141 16.3735C12.4029 16.3915 12.098 16.338 12.0353 16.4273C11.9725 16.5165 11.9998 16.6085 12.0173 16.6228C12.0353 16.6353 12.1805 16.6533 12.1805 16.6533C12.1805 16.6533 12.15 16.7375 11.8489 16.7465C11.5477 16.7555 11.4723 16.7769 11.4544 16.8093C11.4364 16.8396 11.5117 16.8218 11.6498 16.8447C11.7879 16.8662 11.9815 16.8802 11.9815 16.8802C11.9815 16.8802 11.9187 16.934 11.7556 16.977C11.5691 17.0253 11.2768 17.0702 11.189 17.124C11.2338 17.1545 11.3002 17.1993 11.3308 17.2028C11.2556 17.2208 11.1496 17.2603 11.1318 17.2746C11.1586 17.2926 11.1946 17.3141 11.1946 17.3141C11.1946 17.3141 11.0439 17.4951 10.956 17.5401C10.8682 17.585 10.3626 17.8197 10.1886 17.7749C9.75472 17.6601 9.70094 17.185 9.59516 17.1492C9.4356 17.0954 9.36031 17.2028 9.21859 17.1276C9.28136 17.0828 9.31551 17.0559 9.38182 17.0254C9.31008 16.99 8.93895 16.7547 8.93895 16.7547C8.90014 16.6701 8.85706 16.5875 8.80988 16.5073C8.73814 16.3835 8.63259 16.2185 8.5534 16.0733C8.38131 15.7542 8.37232 15.6071 8.21631 15.4261C8.24326 15.3906 8.33639 15.3956 8.33639 15.3956L9.64362 15.8259L11.9615 15.893L12.5643 15.0325L12.8207 15.063L12.8206 15.0628Z" fill="#DFC677"/>
<path fill-rule="evenodd" clip-rule="evenodd" d="M9.38721 16.3754C9.40119 16.391 9.4175 16.4043 9.43555 16.4149C9.48046 16.4454 9.54677 16.4813 9.59157 16.535C9.60953 16.5082 9.65433 16.4597 9.7334 16.535C9.81247 16.6103 9.91069 16.5566 9.9718 16.5745C10.0346 16.5961 10.0381 16.605 10.0381 16.605C10.0381 16.605 10.0736 16.5745 10.1529 16.5422C10.2013 16.5242 10.2587 16.5117 10.3214 16.4939C10.3787 16.4813 10.4415 16.4634 10.4846 16.4634C10.5241 16.4902 10.6657 16.6407 11.2341 16.4186C11.7702 16.2105 11.8939 16.1873 11.9836 16.2194C11.9926 16.1979 12.0016 16.1567 12.1396 16.1621C12.1396 16.1048 12.0248 15.9093 12.0248 15.9093L11.3919 15.6924H11.0457L10.0076 15.8824L9.43236 16.2107L9.38756 16.3761L9.38721 16.3754Z" fill="#C4A859"/>
<path fill-rule="evenodd" clip-rule="evenodd" d="M9.04102 16.0116C9.04102 16.0116 9.05354 16.1084 9.19703 16.2106C9.33887 16.3127 9.38343 16.3737 9.38343 16.3737C9.38343 16.3737 9.41037 16.3382 9.43188 16.3021C9.4534 16.2626 9.47136 16.2178 9.50718 16.2053C9.57892 16.1748 9.74203 16.2321 9.77796 16.2231C9.80845 16.2143 9.79947 16.1515 9.83174 16.1515C9.90703 16.1478 9.95537 16.1998 9.98232 16.1998C10.0093 16.1998 10.0755 16.1963 10.0844 16.182C10.0934 16.1677 10.097 16.0188 10.1992 15.947C10.3104 15.8682 10.4467 15.9022 10.4829 15.9202C10.4829 15.947 10.4864 16.0134 10.5582 16.017C10.6299 16.0205 10.637 16.008 10.7 16.0295C10.763 16.051 10.838 16.026 10.8721 16.1316C10.9026 16.1228 10.9743 16.1138 10.9564 16.0116C10.9918 15.9847 11.0228 15.9668 11.0982 15.861C11.1162 15.8341 11.1465 15.8036 11.1699 15.7642C11.2327 15.7642 11.308 15.7516 11.4083 15.8395C11.3778 15.861 11.3599 15.8749 11.351 15.8968C11.3773 15.9228 11.4012 15.951 11.4226 15.9811C11.4496 16.0165 11.4676 16.06 11.5016 16.069C11.5769 16.0905 11.7006 16.06 11.8387 16.069C11.9714 16.078 12.0825 16.1263 12.131 16.1568C12.1489 16.1479 12.1489 16.1443 12.1937 16.1533C12.2385 16.1623 12.2726 16.1658 12.2242 16.1085C12.2511 16.121 12.2816 16.148 12.3085 16.121C12.3355 16.0941 12.3568 16.0547 12.4321 16.0457C12.5074 16.0367 12.5344 16.0493 12.5649 15.9704C12.6043 15.8736 12.4681 15.8736 12.4681 15.8736C12.4681 15.8736 12.5308 15.8162 12.6008 15.7409C12.6851 15.6621 12.7819 15.5598 12.8052 15.4343C12.8446 15.203 12.6188 15.1726 12.6188 15.1726L11.5232 15.5097L10.1838 15.4433L9.04172 16.0117L9.04102 16.0116Z" fill="#927D49"/>
<path fill-rule="evenodd" clip-rule="evenodd" d="M8.05664 12.8467C8.05664 12.8467 8.02118 12.8915 7.99932 12.9973C7.97745 13.1031 7.98679 13.0906 7.96882 13.1659C7.95086 13.2412 7.73019 13.9906 7.81292 14.2435C7.89566 14.4963 8.03891 14.5896 8.1285 14.7939C8.14647 14.8387 8.16396 14.8657 8.1733 14.9051C8.20379 15.0378 8.17696 15.14 8.21278 15.2727C8.2253 15.3175 8.25769 15.3695 8.30603 15.4233C8.41241 15.5344 8.5858 15.6402 8.66061 15.7155C8.76628 15.8267 8.91698 16.0527 9.1088 16.0741C9.21104 16.0866 9.3563 16.0436 9.47639 15.972C9.58276 15.9056 9.64848 15.8124 9.76005 15.7592C9.83889 15.7198 9.92316 15.7055 9.99845 15.6875C10.1545 15.657 10.2962 15.652 10.3805 15.6695C10.5095 15.6965 10.8143 15.7897 10.9832 15.7897C11.1152 15.7876 11.2465 15.7695 11.3741 15.7359C11.6305 15.6607 11.9406 15.5315 12.1451 15.4741C12.2652 15.4387 12.362 15.4293 12.4607 15.4078C12.6292 15.3684 12.7708 15.3146 12.8515 15.2123C12.7978 15.1496 12.7315 15.0528 12.3727 15.0563C11.9658 15.0653 11.496 15.2912 11.2647 15.3271C11.0334 15.363 10.933 15.3934 10.6748 15.3002C10.4216 15.206 10.4132 15.1437 10.4132 15.1437C10.4132 15.1437 10.1474 14.9577 10.0362 14.4838C9.92493 14.0098 10.0362 13.6644 10.3249 13.3362C10.4002 13.2519 10.3822 13.1766 10.3822 13.1766C10.3822 13.1766 10.5723 12.9203 10.5203 12.6802C10.463 12.4417 10.0954 12.4901 10.0954 12.4901L8.05676 12.8467H8.05664Z" fill="#6E6342"/>
<path fill-rule="evenodd" clip-rule="evenodd" d="M8.36307 13.6448C8.34726 13.6745 8.33982 13.708 8.34155 13.7416C8.3451 13.7899 8.35952 13.8527 8.50466 13.9944C8.62841 14.118 8.60146 14.2561 8.60146 14.2561C8.60146 14.2561 8.66375 14.2686 8.83277 14.1895C8.9655 14.1268 9.01006 14.238 9.01006 14.238C9.0487 14.2177 9.09058 14.2044 9.13381 14.1985C9.17298 14.1949 9.21089 14.1828 9.24491 14.163C9.24491 14.163 9.40093 14.3226 9.53721 14.3979C9.66096 14.4643 9.7327 14.5091 9.79369 14.4643C9.85101 14.4248 9.85101 14.3441 9.84735 14.3083C9.83313 14.2752 9.81512 14.244 9.79369 14.215C9.75421 14.1577 9.69145 14.0913 9.68731 14.0378C9.67833 13.9141 9.78057 13.767 9.75894 13.7312C9.73731 13.6954 9.65682 13.6864 9.45778 13.7581C9.25165 13.8262 8.36224 13.6451 8.36224 13.6451L8.36307 13.6448Z" fill="#39331F"/>
<path fill-rule="evenodd" clip-rule="evenodd" d="M8.83317 14.4463C8.83317 14.4463 8.73109 14.3495 8.76689 13.8797C8.81023 13.8791 8.8535 13.8833 8.89591 13.8922C8.89591 13.8922 8.95156 14.2563 8.83317 14.4463V14.4463Z" fill="#292311"/>
<path fill-rule="evenodd" clip-rule="evenodd" d="M8.1049 12.4881C8.11915 12.4776 8.13237 12.4657 8.14438 12.4527C8.10892 12.519 7.94522 12.7843 8.07795 13.2021C8.21069 13.618 8.54411 13.9282 8.95472 13.9426C9.36533 13.957 9.58115 13.7561 9.82794 13.4549C9.92475 13.3349 10.036 13.1842 10.1345 13.082C10.2816 12.9224 10.3963 12.8776 10.3963 12.7234C10.3963 12.4079 10.0736 12.2662 9.59841 12.1246C9.12327 11.983 8.69469 12.0005 8.47237 12.0974C8.25548 12.203 8.16223 12.3143 8.10478 12.4882L8.1049 12.4881Z" fill="#252211"/>
<path fill-rule="evenodd" clip-rule="evenodd" d="M9.63073 14.5877L9.66618 14.5698C9.66618 14.5698 9.67504 14.4279 9.73248 14.4317C9.7898 14.4407 9.81674 14.5161 9.81131 14.5429C9.80776 14.5698 9.79346 14.6147 9.73602 14.6093C9.66074 14.611 9.63037 14.5877 9.63037 14.5877H9.63073Z" fill="#3F3824"/>
<path fill-rule="evenodd" clip-rule="evenodd" d="M9.47119 13.9853C9.47119 13.9853 9.50665 13.9728 9.55003 14.0158C9.58549 14.0158 9.74008 13.9979 9.78854 14.0284C9.837 14.0588 9.8513 14.0857 9.8513 14.0857C9.8513 14.0857 9.67023 14.1251 9.57154 14.0857C9.47119 14.0516 9.47119 13.9853 9.47119 13.9853V13.9853Z" fill="#2D2815"/>
<path fill-rule="evenodd" clip-rule="evenodd" d="M10.2693 14.0122C10.2693 14.0032 10.1725 13.9369 10.0703 13.9153C10.0523 13.9118 10.0486 13.9243 10.0348 13.9243C10.0258 13.9207 10.0223 13.8938 10.0223 13.8938L9.96413 13.9244C9.96413 13.9244 9.95514 13.9369 9.98563 13.9599C10.0125 13.9814 10.0574 13.9993 10.0699 14.0351C10.0824 14.0709 10.0824 14.0835 10.0879 14.0889C10.0914 14.0924 10.1542 14.0889 10.1847 14.0709C10.2151 14.053 10.2726 14.0237 10.2689 14.0118L10.2693 14.0122Z" fill="#82764F"/>
<path fill-rule="evenodd" clip-rule="evenodd" d="M9.36377 14.3761C9.36377 14.3761 9.38162 14.2525 9.50182 14.2471C9.62545 14.2381 9.64885 14.3582 9.64885 14.3582L9.57711 14.4299C9.57711 14.4282 9.52333 14.3529 9.36436 14.3761H9.36377Z" fill="#2D2816"/>
<path fill-rule="evenodd" clip-rule="evenodd" d="M10.1437 13.8437C10.1437 13.8437 10.0773 13.9154 9.93034 13.9369C9.91781 13.919 9.89087 13.8831 9.93034 13.8258C9.96982 13.7685 10.0146 13.7505 10.0594 13.7683C10.0792 13.7715 10.0976 13.7803 10.1125 13.7937C10.1275 13.807 10.1383 13.8244 10.1437 13.8437V13.8437Z" fill="#574F35"/>
<path fill-rule="evenodd" clip-rule="evenodd" d="M10.4142 13.9315C10.4178 13.9135 10.4053 13.91 10.4142 13.901C10.423 13.892 10.4716 13.8741 10.4806 13.883C10.4841 13.8867 10.4806 13.901 10.4806 13.9185C10.4806 13.936 10.4806 13.9539 10.4716 13.9668C10.4591 13.9848 10.4233 13.9937 10.4053 13.9884C10.3873 13.9831 10.3838 13.9579 10.3838 13.953C10.3927 13.9494 10.4142 13.9404 10.4142 13.9315ZM10.7203 13.7379C10.7203 13.7289 10.7508 13.7109 10.7687 13.7109C10.7956 13.7109 10.7956 13.7324 10.7992 13.7379C10.8081 13.7414 10.8081 13.7342 10.8171 13.7504C10.8261 13.7666 10.8387 13.7952 10.8296 13.8132C10.8205 13.8311 10.7848 13.8435 10.776 13.84C10.7634 13.831 10.724 13.7504 10.7203 13.7379V13.7379Z" fill="#82764F"/>
<path fill-rule="evenodd" clip-rule="evenodd" d="M10.104 13.9728C10.104 13.9728 10.1435 13.9816 10.1973 14.0266C10.1793 14.0391 10.1523 14.0534 10.1523 14.0534C10.1523 14.0534 10.1488 14.0121 10.104 13.9727V13.9728Z" fill="#6E6342"/>
<path fill-rule="evenodd" clip-rule="evenodd" d="M10.0161 13.5783C10.0071 13.5694 10.0429 13.5479 10.0644 13.5515C10.0859 13.555 10.0949 13.5694 10.1182 13.573C10.1415 13.5765 10.1451 13.564 10.1536 13.555C10.1622 13.546 10.1931 13.5515 10.1984 13.555C10.2018 13.5589 10.2048 13.5631 10.2074 13.5675C10.2078 13.5607 10.2096 13.554 10.2127 13.5479C10.2157 13.5418 10.22 13.5364 10.2253 13.5321C10.2322 13.527 10.2401 13.5236 10.2485 13.522C10.2569 13.5205 10.2655 13.5208 10.2737 13.5231C10.2773 13.5356 10.2953 13.5804 10.2917 13.5894C10.2882 13.5984 10.2344 13.611 10.2253 13.6019C10.2343 13.6236 10.2737 13.6684 10.2791 13.6772C10.2844 13.6861 10.2396 13.7077 10.2217 13.7042C10.1967 13.7024 10.0424 13.6127 10.0156 13.5786L10.0161 13.5783ZM10.2509 13.2806C10.2476 13.2716 10.2413 13.264 10.233 13.2591C10.2204 13.2556 10.1792 13.2591 10.1792 13.2806C10.1792 13.3022 10.2146 13.4225 10.2545 13.4851C10.2994 13.5479 10.3298 13.5998 10.3603 13.6142C10.3698 13.6186 10.3807 13.6192 10.3907 13.6158C10.4007 13.6125 10.409 13.6055 10.414 13.5963C10.4176 13.5873 10.4266 13.521 10.423 13.3649C10.4195 13.2089 10.414 13.0583 10.4051 13.0493C10.3961 13.0403 10.3603 13.0405 10.3477 13.0583C10.3352 13.0762 10.2545 13.2538 10.2508 13.2806H10.2509Z" fill="#585136"/>
<path fill-rule="evenodd" clip-rule="evenodd" d="M10.0917 14.1987C10.0917 14.1987 10.0289 14.1592 9.96789 14.1862C9.91056 14.2131 9.91411 14.3189 9.91411 14.3189C9.927 14.3239 9.94094 14.3257 9.9547 14.3242C9.96847 14.3226 9.98164 14.3177 9.99307 14.3099C10.0326 14.2831 10.0827 14.2383 10.0917 14.1988V14.1987Z" fill="#574F35"/>
<path fill-rule="evenodd" clip-rule="evenodd" d="M10.2098 14.3403C10.2062 14.3048 10.1743 14.3048 10.1743 14.2865C10.1765 14.2777 10.1816 14.27 10.1887 14.2644C10.1959 14.2589 10.2046 14.2559 10.2137 14.256C10.2316 14.256 10.2491 14.2775 10.2711 14.2915C10.2926 14.304 10.3249 14.3269 10.3284 14.3542C10.332 14.3815 10.293 14.4563 10.2496 14.4563C10.2062 14.4563 10.2191 14.3756 10.2101 14.3398L10.2098 14.3403ZM10.5558 14.2918C10.5558 14.2918 10.4841 14.3133 10.4894 14.2918C10.4947 14.2703 10.5111 14.265 10.5343 14.265C10.5462 14.2526 10.5621 14.2449 10.5791 14.2433C10.5889 14.2429 10.5985 14.2461 10.606 14.2523C10.606 14.2523 10.6544 14.2308 10.6687 14.2433C10.683 14.2559 10.6724 14.2559 10.6813 14.2703C10.6925 14.2863 10.6999 14.3047 10.7029 14.3241C10.7029 14.3384 10.6491 14.3689 10.606 14.3636C10.5558 14.3528 10.5647 14.3008 10.5558 14.2918V14.2918ZM10.9735 14.2111C10.9735 14.2111 10.9951 14.2236 10.9772 14.238C10.9647 14.2506 10.9019 14.2735 10.848 14.2775C10.7942 14.2775 10.7459 14.2864 10.7459 14.2685C10.7459 14.2507 10.7907 14.2147 10.8175 14.2058C10.8229 14.199 10.8297 14.1936 10.8375 14.1899C10.8453 14.1861 10.8538 14.1842 10.8624 14.1842C10.884 14.1842 10.9681 14.1753 10.9915 14.1717C11.013 14.1681 11.031 14.1806 11.0183 14.1985C11.013 14.2111 10.9735 14.2111 10.9735 14.2111V14.2111ZM11.0973 13.6574C11.0973 13.6574 11.0704 13.7148 11.04 13.7148C11.0095 13.7112 11.0095 13.7022 11.0095 13.6932C11.0095 13.6807 11.04 13.6485 11.0363 13.6395C11.0274 13.6395 11.0058 13.6395 11.0095 13.618C11.0095 13.6 11.04 13.5785 11.0668 13.5825C11.0871 13.5658 11.1123 13.5564 11.1385 13.5557C11.169 13.5557 11.1959 13.5645 11.1959 13.5825C11.1959 13.6005 11.1604 13.6398 11.1474 13.6489C11.1331 13.6632 11.1151 13.6726 11.0973 13.6578V13.6574ZM10.6885 14.7171C10.6885 14.7171 10.653 14.7208 10.653 14.7386C10.653 14.7476 10.6619 14.7476 10.6745 14.7423C10.6818 14.7419 10.689 14.7406 10.696 14.7386C10.6996 14.7423 10.6996 14.7601 10.7265 14.7601C10.7487 14.7571 10.77 14.7498 10.7893 14.7386C10.8108 14.7297 10.8288 14.7206 10.8288 14.7031C10.8198 14.6726 10.8018 14.6582 10.775 14.6582C10.7612 14.6574 10.7475 14.6605 10.7355 14.6672C10.7355 14.6672 10.7265 14.6492 10.696 14.6672C10.6655 14.6852 10.6691 14.6852 10.6781 14.6942C10.6941 14.7085 10.6888 14.7178 10.6888 14.7178L10.6885 14.7171ZM10.4859 14.9036C10.4859 14.8946 10.5307 14.8767 10.5432 14.8821C10.5557 14.8856 10.5915 14.9537 10.5915 14.9609C10.5915 14.9699 10.5467 14.9914 10.5288 14.9914C10.5108 14.9914 10.4804 14.9609 10.4804 14.956C10.4804 14.9524 10.502 14.9471 10.502 14.9434C10.5073 14.9346 10.4859 14.9129 10.4859 14.904V14.9036ZM10.344 14.6418C10.353 14.6383 10.353 14.6293 10.3656 14.6203C10.3695 14.6177 10.3739 14.616 10.3786 14.6154C10.3833 14.6148 10.388 14.6152 10.3925 14.6167C10.3957 14.6111 10.4 14.6062 10.4053 14.6025C10.4106 14.5987 10.4166 14.5962 10.423 14.5951C10.4445 14.5916 10.4625 14.5951 10.4585 14.6041C10.4585 14.631 10.4764 14.6489 10.4764 14.6704C10.4764 14.6919 10.4639 14.7189 10.4191 14.7368C10.3743 14.7494 10.3133 14.7494 10.3043 14.7458C10.2953 14.7423 10.2864 14.7063 10.2953 14.6884C10.3043 14.6704 10.3294 14.6508 10.3438 14.6418H10.344Z" fill="#82764F"/>
<path fill-rule="evenodd" clip-rule="evenodd" d="M10.4013 14.6541C10.4013 14.6541 10.3708 14.672 10.3708 14.681C10.3681 14.6897 10.3669 14.6987 10.3672 14.7078C10.3672 14.7131 10.4067 14.7043 10.4121 14.6988C10.4138 14.6953 10.4013 14.6634 10.4013 14.6541Z" fill="#6E6342"/>
<path fill-rule="evenodd" clip-rule="evenodd" d="M10.1343 14.5699C10.1522 14.5736 10.1827 14.5699 10.2059 14.5789C10.2239 14.5879 10.2364 14.6058 10.2185 14.6273C10.2005 14.6488 10.183 14.6811 10.1432 14.6757C10.0984 14.6721 10.0554 14.6488 10.0554 14.6309C10.0546 14.6195 10.0561 14.6081 10.0598 14.5974C10.0635 14.5866 10.0693 14.5767 10.0769 14.5681C10.0948 14.5538 10.1037 14.5628 10.1342 14.5699H10.1343Z" fill="#585136"/>
<path fill-rule="evenodd" clip-rule="evenodd" d="M10.1133 14.5879C10.1133 14.5879 10.056 14.6327 10.0415 14.6543C10.0236 14.6758 9.93575 14.7869 9.90892 14.8102C9.91783 14.7945 9.92799 14.7795 9.9393 14.7654C9.90384 14.7881 9.87726 14.8223 9.86401 14.8622C9.8425 14.9286 9.98422 14.9645 10.0774 14.9914C10.1705 15.0184 10.2065 15.0269 10.2065 15.0269C10.1723 14.9753 10.1428 14.9207 10.1186 14.8638C10.0831 14.7795 10.0648 14.7705 10.0881 14.731C10.1061 14.6915 10.133 14.6647 10.133 14.6342C10.1223 14.6059 10.1133 14.5879 10.1133 14.5879V14.5879Z" fill="#574F35"/>
<path fill-rule="evenodd" clip-rule="evenodd" d="M8.06908 14.7296C8.08213 14.732 8.09551 14.732 8.10856 14.7296C8.13539 14.7259 8.41516 14.6232 8.70745 14.6416C8.92626 14.6548 9.14314 14.6905 9.35468 14.748C9.72226 14.8448 10.1794 15.0366 10.4753 15.1461C10.5541 15.1765 10.6313 15.2304 10.688 15.2518C10.914 15.3397 10.9229 15.3397 11.0556 15.363C11.2116 15.3845 11.3712 15.3325 11.538 15.2967C11.7423 15.2518 12.0919 15.2303 12.3985 15.1855C12.4977 15.1717 12.5955 15.1495 12.6908 15.1191C12.6908 15.1191 12.447 15.363 11.8624 15.4508C11.6261 15.4867 11.386 15.4897 11.1489 15.4598C10.9624 15.4418 10.8387 15.4149 10.7455 15.3881C10.6397 15.3576 10.4227 15.2768 10.1556 15.2108C9.96905 15.1623 9.76103 15.1265 9.52263 15.0817C8.9345 14.974 8.29625 14.8504 8.06885 14.7303L8.06908 14.7296Z" fill="#252211"/>
<path fill-rule="evenodd" clip-rule="evenodd" d="M7.40902 13.6213C7.26719 13.7414 7.11673 13.8562 6.96981 13.9673L6.52694 14.3076C6.37636 14.4187 6.22933 14.5334 6.07863 14.6447C5.92793 14.7559 5.77747 14.8616 5.61768 14.9638C5.75951 14.8437 5.90997 14.7325 6.06055 14.6232C6.21113 14.5138 6.36726 14.4066 6.51252 14.2958L6.95539 13.955C7.10775 13.8439 7.25478 13.7291 7.40902 13.6216V13.6213ZM6.62552 14.8764C6.62552 14.8764 6.78508 14.7437 6.98412 14.5573C7.2315 14.3261 7.53454 14.0302 7.63135 13.9765L6.6254 14.8766L6.62552 14.8764Z" fill="#CFB66C"/>
<path fill-rule="evenodd" clip-rule="evenodd" d="M6.62549 14.8764C6.70444 14.7975 6.78872 14.7205 6.87299 14.6451L7.00206 14.534C7.04153 14.4985 7.08645 14.4587 7.12581 14.4192C7.20464 14.3404 7.28182 14.256 7.36066 14.1754C7.39973 14.1348 7.44105 14.0965 7.48441 14.0606C7.50609 14.0414 7.53016 14.0251 7.55604 14.0121C7.57767 13.9996 7.60095 13.9767 7.63133 13.9727C7.61348 13.9996 7.59197 14.0121 7.574 14.0354C7.55249 14.0534 7.53452 14.0749 7.51668 14.0927C7.4772 14.1322 7.4324 14.168 7.39293 14.204C7.30865 14.2757 7.22084 14.3458 7.13656 14.4209C7.05229 14.4959 6.97345 14.5769 6.88906 14.6522C6.7977 14.7293 6.71343 14.8046 6.62549 14.8767V14.8764ZM7.69775 14.1592C7.69775 14.1592 7.11328 14.7312 6.99307 14.8244L7.69775 14.1592Z" fill="#CFB66C"/>
<path fill-rule="evenodd" clip-rule="evenodd" d="M7.69784 14.1592C7.64526 14.22 7.58889 14.2775 7.52906 14.3313L7.35177 14.4998C7.29444 14.5571 7.24055 14.6146 7.17968 14.6719C7.11691 14.7257 7.05959 14.7783 6.99316 14.8279L7.16526 14.6594C7.2227 14.6021 7.28546 14.5537 7.34645 14.4963L7.51854 14.3277C7.57764 14.2686 7.63508 14.2112 7.69784 14.1592V14.1592ZM7.72467 14.4693C7.6708 14.6197 7.60731 14.7664 7.53461 14.9087C7.38403 15.2099 7.15816 15.5864 7.05947 15.7783L7.72467 14.4693Z" fill="#CFB66C"/>
<path fill-rule="evenodd" clip-rule="evenodd" d="M7.72446 14.4695C7.72446 14.5358 7.7065 14.5932 7.68498 14.6506C7.66402 14.7079 7.64011 14.7642 7.61336 14.8191C7.58641 14.8729 7.55592 14.9303 7.52542 14.9823C7.49493 15.0343 7.45911 15.088 7.43217 15.1419L7.25109 15.461C7.18833 15.5674 7.12734 15.6744 7.06104 15.7766C7.10583 15.6618 7.16682 15.5543 7.22426 15.4485C7.28702 15.3421 7.34435 15.2357 7.40155 15.1257C7.42948 15.0709 7.45461 15.0147 7.47684 14.9573C7.50367 14.8998 7.5305 14.8461 7.55213 14.794C7.57896 14.7367 7.60048 14.6828 7.62742 14.6309C7.6578 14.5753 7.68298 14.5215 7.72423 14.4695H7.72446Z" fill="#CFB66C"/>
<path fill-rule="evenodd" clip-rule="evenodd" d="M8.36296 15.9397C8.36296 15.9397 8.18567 16.1746 8.20339 16.4722C8.25174 16.3163 8.31272 16.0777 8.36296 15.9397ZM8.5315 16.1751C8.5315 16.1751 8.46874 16.8134 8.41673 17.1272C8.49025 16.7645 8.50455 16.795 8.5315 16.1751ZM9.70586 17.1649C9.70586 17.1649 9.44052 17.945 9.43508 18.1618C9.49253 17.9388 9.60363 17.4834 9.70586 17.1643V17.1649Z" fill="#DEC270"/>
<path fill-rule="evenodd" clip-rule="evenodd" d="M10.3267 15.8916C10.3267 15.8916 10.757 16.6016 11.0798 17.2076C10.9925 16.9026 10.7915 16.3433 10.3267 15.8916Z" fill="#CBAF59"/>
<path fill-rule="evenodd" clip-rule="evenodd" d="M11.4834 16.9368C11.7197 17.3544 11.9328 17.7848 12.1216 18.2259C12.0858 17.9211 11.9889 17.3994 11.4834 16.9368Z" fill="#E3C677"/>
<path fill-rule="evenodd" clip-rule="evenodd" d="M14.8827 17.9835C14.9543 17.9387 15.096 17.6948 15.2198 17.6339C15.3434 17.5712 15.4366 17.5586 15.5479 17.4349C15.659 17.3057 15.6897 17.2269 15.9333 17.1247C16.274 16.9776 16.0397 16.7875 16.0397 16.7875C16.0772 16.7507 16.1173 16.7165 16.1597 16.6854C16.2477 16.6191 16.3498 16.5384 16.3409 16.3967C16.3284 16.1583 16.2836 15.8122 16.0881 15.6114C16.2782 15.5719 16.6421 15.5451 16.8682 15.4877C17.1299 15.4213 17.2501 15.3281 17.2501 15.3281C17.2501 15.3281 17.0995 15.0717 17.3433 14.8136C17.5872 14.5554 17.7862 14.4012 17.9333 14.1124C17.7647 14.0909 17.5078 14.0013 16.852 14.2505C16.8874 14.2671 16.9216 14.2863 16.9543 14.3078C16.9543 14.3078 16.5509 14.419 16.4038 14.5428C16.1473 14.7597 16.1151 14.9372 15.8372 15.0699C15.5593 15.2027 15.2796 15.1667 15.0484 15.2743C14.8172 15.3818 14.783 15.4733 14.6986 15.5128C14.7166 15.5343 14.6951 15.5701 14.7291 15.6006C14.7076 15.6311 14.5821 15.8355 14.4548 15.8355C14.4673 15.8839 14.5749 15.9197 14.5749 15.9197C14.5749 15.9197 14.4961 15.9772 14.2952 15.9915C14.3974 16.0979 14.4943 16.2138 14.7614 16.3824C14.7399 16.4272 14.6502 16.4936 14.6861 16.5779C14.7256 16.6621 14.8279 16.7769 15.2365 16.8701C15.0285 16.879 14.7848 16.9275 14.4565 16.8827C14.1283 16.8432 14.0746 16.8199 13.872 16.8701C13.8935 16.8917 13.9508 16.8917 14.0011 16.949C13.9473 16.9525 13.6102 16.9095 13.4954 17.0602C13.3753 17.2161 13.3233 17.4726 13.3323 17.6447C13.2696 17.6752 13.2086 17.729 13.2391 17.8402C13.2696 17.9514 13.4291 17.9872 13.5314 18.0571C13.6335 18.1324 13.6425 18.1592 13.7394 18.1413C13.8415 18.1198 13.9921 18.0177 14.08 18.0177C14.1679 18.0177 14.2306 18.084 14.2306 18.084C14.2306 18.084 14.4691 17.9692 14.4924 17.9908C14.5139 18.0123 14.4959 18.1503 14.5192 18.1718C14.5429 18.188 14.8115 18.0285 14.8833 17.9835H14.8827Z" fill="#ECD592"/>
<path fill-rule="evenodd" clip-rule="evenodd" d="M20.0948 10.8082C18.9742 7.9143 16.204 7.37817 16.204 7.37817H8.30041L8.33091 10.3258H9.9049V16.908H8.30029V19.8503H15.9852C17.8373 19.8503 19.3219 17.9891 19.3219 17.9891C21.6994 14.6148 20.0947 10.8082 20.0947 10.8082H20.0948ZM16.0264 16.006C16.0264 16.006 15.4237 16.8757 14.7678 16.8757H13.4558L13.4247 10.333H15.1084C15.1084 10.333 15.8885 10.4962 16.4335 12.0399C16.4335 12.0399 17.156 14.2501 16.0264 16.006V16.006Z" fill="white" fill-opacity="0.8"/>
</svg>
