<svg width="52" height="52" viewBox="0 0 52 52" fill="none" xmlns="http://www.w3.org/2000/svg">
<rect width="52" height="52" rx="26" fill="#1F4293"/>
<path d="M25.064 8.522H28.232V15.65H25.064V8.522ZM25.064 35.882H28.232V43.478H25.064V35.882ZM33.812 19.07C32.9 18.494 32 18.038 31.112 17.702C30.224 17.366 29.384 17.126 28.592 16.982C27.8 16.838 27.08 16.766 26.432 16.766C25.184 16.766 24.188 17.006 23.444 17.486C22.7 17.966 22.328 18.662 22.328 19.574C22.328 20.39 22.568 21.062 23.048 21.59C23.552 22.094 24.2 22.514 24.992 22.85C25.808 23.162 26.696 23.462 27.656 23.75C28.64 24.038 29.612 24.362 30.572 24.722C31.532 25.058 32.42 25.502 33.236 26.054C34.052 26.606 34.7 27.314 35.18 28.178C35.66 29.018 35.9 30.086 35.9 31.382C35.9 32.87 35.492 34.166 34.676 35.27C33.86 36.35 32.732 37.19 31.292 37.79C29.876 38.39 28.244 38.69 26.396 38.69C25.076 38.69 23.792 38.522 22.544 38.186C21.296 37.826 20.12 37.346 19.016 36.746C17.936 36.146 16.964 35.45 16.1 34.658L17.936 31.166C18.8 31.958 19.712 32.63 20.672 33.182C21.656 33.734 22.64 34.154 23.624 34.442C24.632 34.73 25.58 34.874 26.468 34.874C27.956 34.874 29.108 34.586 29.924 34.01C30.764 33.434 31.184 32.63 31.184 31.598C31.184 30.758 30.932 30.086 30.428 29.582C29.948 29.054 29.3 28.622 28.484 28.286C27.692 27.95 26.804 27.65 25.82 27.386C24.86 27.122 23.888 26.822 22.904 26.486C21.944 26.126 21.056 25.682 20.24 25.154C19.448 24.626 18.8 23.942 18.296 23.102C17.816 22.262 17.576 21.194 17.576 19.898C17.576 18.482 17.96 17.258 18.728 16.226C19.496 15.17 20.564 14.354 21.932 13.778C23.324 13.202 24.932 12.914 26.756 12.914C28.388 12.914 29.972 13.154 31.508 13.634C33.044 14.114 34.4 14.738 35.576 15.506L33.812 19.07Z" fill="white"/>
</svg>
