<svg width="28" height="28" viewBox="0 0 28 28" fill="none" xmlns="http://www.w3.org/2000/svg">
<g clip-path="url(#clip0_4218_2982)">
<path d="M19.7765 10.4439C19.6785 10.5419 19.5469 10.5979 19.4097 10.5979H6.40369C5.94449 10.5979 5.71209 10.0379 6.03129 9.70474L8.16489 7.49554C8.26289 7.39474 8.39729 7.33594 8.53729 7.33594H21.5909C22.0529 7.33594 22.2853 7.90154 21.9577 8.23474L19.7765 10.4439ZM19.7765 20.3167C19.6785 20.4119 19.5469 20.4679 19.4097 20.4679H6.40369C5.94449 20.4679 5.71209 19.9219 6.03129 19.5971L8.16489 17.4411C8.26289 17.3431 8.39729 17.2871 8.53729 17.2871H21.5909C22.0529 17.2871 22.2853 17.8387 21.9577 18.1635L19.7765 20.3167ZM19.4097 12.3115C19.5469 12.3115 19.6785 12.3647 19.7765 12.4627L21.9577 14.6187C22.2853 14.9407 22.0529 15.4951 21.5909 15.4951H8.53729C8.39729 15.4951 8.26289 15.4391 8.16489 15.3411L6.03129 13.1851C5.70929 12.8603 5.94169 12.3143 6.40369 12.3143L19.4097 12.3115Z" fill="#00FFAD"/>
<path d="M14 0C21.7308 0 28 6.2692 28 14C28 21.7308 21.7308 28 14 28C6.2692 28 0 21.7308 0 14C0 6.2692 6.2692 0 14 0Z" fill="black"/>
<path fill-rule="evenodd" clip-rule="evenodd" d="M6.4739 12.6644H19.4295C19.5919 12.6644 19.7459 12.7288 19.8579 12.8436L21.9075 14.9072C22.2855 15.288 22.0167 15.9376 21.4791 15.9376H8.5235C8.3611 15.9376 8.2071 15.8732 8.0951 15.7584L6.0455 13.6948C5.6647 13.314 5.9363 12.6644 6.4739 12.6644ZM6.0455 9.92883L8.0951 7.86523C8.2099 7.75043 8.3639 7.68604 8.5235 7.68604H21.4763C22.0139 7.68604 22.2855 8.33563 21.9047 8.71643L19.8579 10.78C19.7431 10.8948 19.5891 10.9592 19.4295 10.9592H6.4739C5.9363 10.9592 5.6647 10.3096 6.0455 9.92883ZM21.9047 18.6732L19.8551 20.7368C19.7403 20.8516 19.5863 20.916 19.4267 20.916H6.4739C5.9363 20.916 5.6647 20.2664 6.0455 19.8856L8.0951 17.822C8.2099 17.7072 8.3639 17.6428 8.5235 17.6428H21.4763C22.0139 17.6428 22.2855 18.2924 21.9047 18.6732Z" fill="url(#paint0_linear_4218_2982)"/>
</g>
<defs>
<linearGradient id="paint0_linear_4218_2982" x1="6.79085" y1="21.4853" x2="21.1593" y2="7.11678" gradientUnits="userSpaceOnUse">
<stop stop-color="#CB4EE8"/>
<stop offset="1" stop-color="#10F4B1"/>
</linearGradient>
<clipPath id="clip0_4218_2982">
<rect width="28" height="28" fill="white"/>
</clipPath>
</defs>
</svg>
