<svg width="28" height="28" viewBox="0 0 28 28" fill="none" xmlns="http://www.w3.org/2000/svg">
<g clip-path="url(#clip0_4218_3001)">
<path d="M14 28C21.732 28 28 21.732 28 14C28 6.26801 21.732 0 14 0C6.26801 0 0 6.26801 0 14C0 21.732 6.26801 28 14 28Z" fill="#23292F"/>
<path d="M20.1862 7H22.715L17.4519 12.2124C16.5317 13.119 15.2918 13.6272 14 13.6272C12.7082 13.6272 11.4683 13.119 10.5481 12.2124L5.28062 7H7.81375L11.8125 10.9576C12.3948 11.5324 13.1801 11.8546 13.9983 11.8546C14.8164 11.8546 15.6017 11.5324 16.184 10.9576L20.1862 7ZM7.78313 21.4926H5.25L10.5481 16.2487C11.4683 15.3421 12.7082 14.8339 14 14.8339C15.2918 14.8339 16.5317 15.3421 17.4519 16.2487L22.75 21.4918H20.2169L16.1875 17.5C15.6052 16.9252 14.8199 16.603 14.0018 16.603C13.1836 16.603 12.3983 16.9252 11.816 17.5L7.78225 21.4926H7.78313Z" fill="white"/>
</g>
<defs>
<clipPath id="clip0_4218_3001">
<rect width="28" height="28" fill="white"/>
</clipPath>
</defs>
</svg>
